<svg width="357" height="108" viewBox="0 0 357 108" fill="none" xmlns="http://www.w3.org/2000/svg">
<g filter="url(#filter0_d_684_25822)">
<rect x="8" y="8" width="341" height="92" rx="16" fill="white" shape-rendering="crispEdges"/>
<rect x="8.5" y="8.5" width="340" height="91" rx="15.5" stroke="#F0E9DB" shape-rendering="crispEdges"/>
<path d="M36.0179 41C35.2059 41 34.5713 40.8787 34.1139 40.636C33.6659 40.384 33.3486 40.0013 33.1619 39.488C32.9846 38.9653 32.8959 38.3027 32.8959 37.5C32.8959 36.6973 32.9846 36.0393 33.1619 35.526C33.3486 35.0033 33.6659 34.6207 34.1139 34.378C34.5713 34.126 35.2059 34 36.0179 34H38.9159V40.44H37.8239V34.518L38.3839 34.994H36.0179C35.4766 34.994 35.0566 35.0593 34.7579 35.19C34.4686 35.3207 34.2679 35.568 34.1559 35.932C34.0439 36.2867 33.9879 36.8093 33.9879 37.5C33.9879 38.1907 34.0439 38.718 34.1559 39.082C34.2679 39.4367 34.4686 39.6793 34.7579 39.81C35.0566 39.9407 35.4766 40.006 36.0179 40.006H40.4279V41H36.0179ZM40.4279 41V40.006C40.4839 40.006 40.5306 40.02 40.5679 40.048C40.6053 40.0667 40.6333 40.0993 40.6519 40.146C40.6706 40.1833 40.6846 40.2347 40.6939 40.3C40.7033 40.356 40.7079 40.4213 40.7079 40.496C40.7079 40.5707 40.7033 40.6407 40.6939 40.706C40.6846 40.7713 40.6706 40.8273 40.6519 40.874C40.6333 40.9113 40.6053 40.944 40.5679 40.972C40.5306 40.9907 40.4839 41 40.4279 41ZM34.6599 32.74V31.48H35.7519V32.74H34.6599ZM36.5779 32.74V31.48H37.6699V32.74H36.5779ZM47.3597 41V40.006H48.8717V41H47.3597ZM40.4297 41C40.3737 41 40.327 40.9907 40.2897 40.972C40.2524 40.944 40.2244 40.9113 40.2057 40.874C40.187 40.8273 40.173 40.7713 40.1637 40.706C40.1544 40.6407 40.1497 40.5707 40.1497 40.496C40.1497 40.3933 40.159 40.3093 40.1777 40.244C40.187 40.1693 40.215 40.1133 40.2617 40.076C40.299 40.0293 40.355 40.006 40.4297 40.006V41ZM40.4297 41V40.006H46.6037L46.2677 40.3V36.828C46.2677 36.2213 46.0764 35.7687 45.6937 35.47C45.3204 35.162 44.7464 35.008 43.9717 35.008C43.729 35.008 43.379 35.0313 42.9217 35.078C42.4644 35.1153 41.9837 35.1713 41.4797 35.246L41.3537 34.35C41.7364 34.2567 42.1564 34.1773 42.6137 34.112C43.071 34.0373 43.5144 34 43.9437 34C44.653 34 45.2597 34.112 45.7637 34.336C46.277 34.5507 46.669 34.868 46.9397 35.288C47.2197 35.708 47.3597 36.2213 47.3597 36.828V41H40.4297ZM48.8717 41V40.006C48.9277 40.006 48.9744 40.02 49.0117 40.048C49.049 40.0667 49.077 40.0993 49.0957 40.146C49.1144 40.1833 49.1284 40.2347 49.1377 40.3C49.147 40.356 49.1517 40.4213 49.1517 40.496C49.1517 40.5707 49.147 40.6407 49.1377 40.706C49.1284 40.7713 49.1144 40.8273 49.0957 40.874C49.077 40.9113 49.049 40.944 49.0117 40.972C48.9744 40.9907 48.9277 41 48.8717 41ZM43.3977 43.52V42.26H44.4897V43.52H43.3977ZM50.5592 41V30.962H51.6512V41H50.5592ZM48.8652 41V40.006H50.5592V41H48.8652ZM48.8652 41C48.8092 41 48.7626 40.9907 48.7252 40.972C48.6879 40.944 48.6599 40.9113 48.6412 40.874C48.6226 40.8273 48.6086 40.7713 48.5992 40.706C48.5899 40.6407 48.5852 40.5707 48.5852 40.496C48.5852 40.3933 48.5946 40.3093 48.6132 40.244C48.6226 40.1693 48.6506 40.1133 48.6972 40.076C48.7346 40.0293 48.7906 40.006 48.8652 40.006V41ZM55.1427 41V40.006H56.8507V41H55.1427ZM54.0647 41V30.962H55.1427V41H54.0647ZM56.8507 41V40.006C56.9067 40.006 56.9534 40.02 56.9907 40.048C57.028 40.0667 57.056 40.0993 57.0747 40.146C57.0934 40.1833 57.1074 40.2347 57.1167 40.3C57.126 40.356 57.1307 40.4213 57.1307 40.496C57.1307 40.5707 57.126 40.6407 57.1167 40.706C57.1074 40.7713 57.0934 40.8273 57.0747 40.874C57.056 40.9113 57.028 40.944 56.9907 40.972C56.9534 40.9907 56.9067 41 56.8507 41ZM56.8496 41V40.006H58.7256C59.2856 40.006 59.8223 39.9173 60.3356 39.74C60.8489 39.5533 61.3203 39.3107 61.7496 39.012C62.1789 38.704 62.5523 38.368 62.8696 38.004C63.1869 37.6307 63.4343 37.2527 63.6116 36.87C63.7889 36.4873 63.8776 36.128 63.8776 35.792V34.952L64.4656 35.834C63.9243 35.554 63.3923 35.344 62.8696 35.204C62.3469 35.064 61.8383 34.994 61.3436 34.994C60.8489 34.994 60.3403 35.064 59.8176 35.204C59.2949 35.344 58.7676 35.554 58.2356 35.834L58.8236 34.952V35.792C58.8236 36.128 58.9123 36.4873 59.0896 36.87C59.2669 37.2527 59.5096 37.6307 59.8176 38.004C60.1349 38.368 60.5083 38.704 60.9376 39.012C61.3669 39.3107 61.8383 39.5533 62.3516 39.74C62.8649 39.9173 63.4016 40.006 63.9616 40.006H65.7536V41H63.9616C63.2336 41 62.5523 40.8833 61.9176 40.65C61.2829 40.4167 60.7089 40.1087 60.1956 39.726C59.6823 39.334 59.2389 38.9093 58.8656 38.452C58.5016 37.9853 58.2216 37.5233 58.0256 37.066C57.8296 36.5993 57.7316 36.1747 57.7316 35.792V34.952C58.1329 34.7373 58.5389 34.56 58.9496 34.42C59.3603 34.28 59.7663 34.1773 60.1676 34.112C60.5783 34.0373 60.9703 34 61.3436 34C61.7263 34 62.1183 34.0373 62.5196 34.112C62.9209 34.1773 63.3269 34.28 63.7376 34.42C64.1483 34.56 64.5543 34.7373 64.9556 34.952V35.792C64.9556 36.1747 64.8576 36.5993 64.6616 37.066C64.4656 37.5233 64.1809 37.9853 63.8076 38.452C63.4436 38.9093 63.0049 39.334 62.4916 39.726C61.9783 40.1087 61.4043 40.4167 60.7696 40.65C60.1349 40.8833 59.4536 41 58.7256 41H56.8496ZM56.8496 41C56.7936 41 56.7469 40.9907 56.7096 40.972C56.6723 40.944 56.6443 40.9113 56.6256 40.874C56.6069 40.8273 56.5929 40.7713 56.5836 40.706C56.5743 40.6407 56.5696 40.5707 56.5696 40.496C56.5696 40.3933 56.5789 40.3093 56.5976 40.244C56.6069 40.1693 56.6349 40.1133 56.6816 40.076C56.7189 40.0293 56.7749 40.006 56.8496 40.006V41ZM65.7536 41V40.006C65.8096 40.006 65.8563 40.02 65.8936 40.048C65.9309 40.0667 65.9589 40.0993 65.9776 40.146C65.9963 40.1833 66.0103 40.2347 66.0196 40.3C66.0289 40.356 66.0336 40.4213 66.0336 40.496C66.0336 40.5707 66.0289 40.6407 66.0196 40.706C66.0103 40.7713 65.9963 40.8273 65.9776 40.874C65.9589 40.9113 65.9309 40.944 65.8936 40.972C65.8563 40.9907 65.8096 41 65.7536 41ZM73.688 41V40.006H75.2V41H73.688ZM65.75 41C65.694 41 65.6473 40.9907 65.61 40.972C65.5727 40.944 65.5447 40.9113 65.526 40.874C65.5073 40.8273 65.4933 40.7713 65.484 40.706C65.4747 40.6407 65.47 40.5707 65.47 40.496C65.47 40.3933 65.4793 40.3093 65.498 40.244C65.5073 40.1693 65.5353 40.1133 65.582 40.076C65.6193 40.0293 65.6753 40.006 65.75 40.006V41ZM65.75 41V40.006H73.408L72.596 40.58V37.57C72.596 36.9167 72.5213 36.4033 72.372 36.03C72.2227 35.6567 71.966 35.3907 71.602 35.232C71.2473 35.0733 70.762 34.994 70.146 34.994C69.754 34.994 69.362 35.022 68.97 35.078C68.5873 35.134 68.2887 35.2087 68.074 35.302L68.732 34.63C68.676 34.854 68.62 35.1387 68.564 35.484C68.508 35.82 68.4613 36.184 68.424 36.576C68.3867 36.968 68.368 37.36 68.368 37.752C68.368 38.1533 68.3867 38.5453 68.424 38.928C68.4613 39.3107 68.5033 39.642 68.55 39.922C68.5967 40.202 68.634 40.398 68.662 40.51L67.626 40.804C67.5887 40.6827 67.542 40.4727 67.486 40.174C67.4393 39.8753 67.3927 39.516 67.346 39.096C67.3087 38.676 67.29 38.228 67.29 37.752C67.29 37.2947 67.3087 36.8513 67.346 36.422C67.3927 35.9833 67.444 35.5867 67.5 35.232C67.5653 34.8773 67.626 34.5927 67.682 34.378C67.8873 34.294 68.214 34.21 68.662 34.126C69.11 34.042 69.6047 34 70.146 34C70.93 34 71.5833 34.1167 72.106 34.35C72.638 34.5833 73.0347 34.9613 73.296 35.484C73.5573 35.9973 73.688 36.6927 73.688 37.57V41H65.75ZM75.2 41V40.006C75.256 40.006 75.3027 40.02 75.34 40.048C75.3773 40.0667 75.4053 40.0993 75.424 40.146C75.4427 40.1833 75.4567 40.2347 75.466 40.3C75.4753 40.356 75.48 40.4213 75.48 40.496C75.48 40.5707 75.4753 40.6407 75.466 40.706C75.4567 40.7713 75.4427 40.8273 75.424 40.874C75.4053 40.9113 75.3773 40.944 75.34 40.972C75.3027 40.9907 75.256 41 75.2 41ZM76.8913 41V30.962H77.9833V41H76.8913ZM75.1973 41V40.006H76.8913V41H75.1973ZM75.1973 41C75.1413 41 75.0946 40.9907 75.0573 40.972C75.0199 40.944 74.9919 40.9113 74.9733 40.874C74.9546 40.8273 74.9406 40.7713 74.9313 40.706C74.9219 40.6407 74.9173 40.5707 74.9173 40.496C74.9173 40.3933 74.9266 40.3093 74.9453 40.244C74.9546 40.1693 74.9826 40.1133 75.0293 40.076C75.0666 40.0293 75.1226 40.006 75.1973 40.006V41ZM80.3967 41V30.962H81.4747V41H80.3967ZM91.8667 41V40.006H93.3787V41H91.8667ZM86.4487 41V40.006H91.6707L90.7747 40.804V37.752C90.7747 37.0613 90.6953 36.5153 90.5367 36.114C90.378 35.7127 90.1167 35.428 89.7527 35.26C89.398 35.0827 88.9173 34.994 88.3107 34.994H87.1767V34H88.3107C89.0573 34 89.6967 34.1167 90.2287 34.35C90.7607 34.5833 91.1667 34.9753 91.4467 35.526C91.7267 36.0673 91.8667 36.8093 91.8667 37.752V41H86.4487ZM93.3787 41V40.006C93.4347 40.006 93.4813 40.02 93.5187 40.048C93.556 40.0667 93.584 40.0993 93.6027 40.146C93.6213 40.1833 93.6353 40.2347 93.6447 40.3C93.654 40.356 93.6587 40.4213 93.6587 40.496C93.6587 40.5707 93.654 40.6407 93.6447 40.706C93.6353 40.7713 93.6213 40.8273 93.6027 40.874C93.584 40.9113 93.556 40.944 93.5187 40.972C93.4813 40.9907 93.4347 41 93.3787 41ZM95.9849 41V40.006H97.4969V41H95.9849ZM97.4969 41V40.006C97.5529 40.006 97.5995 40.02 97.6369 40.048C97.6742 40.0667 97.7022 40.0993 97.7209 40.146C97.7395 40.1833 97.7535 40.2347 97.7629 40.3C97.7722 40.356 97.7769 40.4213 97.7769 40.496C97.7769 40.5707 97.7722 40.6407 97.7629 40.706C97.7535 40.7713 97.7395 40.8273 97.7209 40.874C97.7022 40.9113 97.6742 40.944 97.6369 40.972C97.5995 40.9907 97.5529 41 97.4969 41ZM93.3809 41C93.3249 41 93.2782 40.9907 93.2409 40.972C93.2035 40.944 93.1755 40.9113 93.1569 40.874C93.1382 40.8273 93.1242 40.7713 93.1149 40.706C93.1055 40.6407 93.1009 40.5707 93.1009 40.496C93.1009 40.3933 93.1102 40.3093 93.1289 40.244C93.1382 40.1693 93.1662 40.1133 93.2129 40.076C93.2502 40.0293 93.3062 40.006 93.3809 40.006V41ZM93.3809 41V40.006H95.3969L94.8929 40.412V34H95.9849V41H93.3809ZM93.9409 43.52V42.26H95.0329V43.52H93.9409ZM95.8589 43.52V42.26H96.9509V43.52H95.8589ZM97.4961 41V40.006H104.566L103.838 40.636V34.518L104.412 34.994H102.032C101.491 34.994 101.071 35.0593 100.772 35.19C100.483 35.3207 100.282 35.568 100.17 35.932C100.058 36.2867 100.002 36.8093 100.002 37.5C100.002 38.1907 100.058 38.718 100.17 39.082C100.282 39.4367 100.483 39.6793 100.772 39.81C101.071 39.9407 101.491 40.006 102.032 40.006V40.72C101.22 40.72 100.585 40.622 100.128 40.426C99.6801 40.2207 99.3628 39.8847 99.1761 39.418C98.9988 38.942 98.9101 38.3027 98.9101 37.5C98.9101 36.6973 98.9988 36.0393 99.1761 35.526C99.3628 35.0033 99.6801 34.6207 100.128 34.378C100.585 34.126 101.22 34 102.032 34H104.93V41H97.4961ZM97.4961 41C97.4401 41 97.3934 40.9907 97.3561 40.972C97.3188 40.944 97.2908 40.9113 97.2721 40.874C97.2534 40.8273 97.2394 40.7713 97.2301 40.706C97.2208 40.6407 97.2161 40.5707 97.2161 40.496C97.2161 40.3933 97.2254 40.3093 97.2441 40.244C97.2534 40.1693 97.2814 40.1133 97.3281 40.076C97.3654 40.0293 97.4214 40.006 97.4961 40.006V41ZM100.744 32.74V31.48H101.836V32.74H100.744ZM102.662 32.74V31.48H103.754V32.74H102.662Z" fill="#2563EB"/>
<path d="M153.514 42C152.608 42 151.861 41.856 151.274 41.568C150.688 41.28 150.25 40.8427 149.962 40.256C149.685 39.6693 149.546 38.928 149.546 38.032C149.546 37.136 149.685 36.3893 149.962 35.792C150.25 35.184 150.688 34.7307 151.274 34.432C151.861 34.1227 152.608 33.968 153.514 33.968H157.13V40.992H154.986V35.36L155.514 35.824H153.514C153.077 35.824 152.725 35.8773 152.458 35.984C152.192 36.08 151.994 36.288 151.866 36.608C151.749 36.9173 151.69 37.392 151.69 38.032C151.69 38.64 151.744 39.0987 151.85 39.408C151.968 39.7067 152.16 39.904 152.426 40C152.693 40.096 153.056 40.144 153.514 40.144H158.81V42H153.514ZM158.81 42V40.144C158.874 40.144 158.922 40.1653 158.954 40.208C158.997 40.2507 159.029 40.3147 159.05 40.4C159.082 40.4853 159.104 40.5867 159.114 40.704C159.125 40.8107 159.13 40.9333 159.13 41.072C159.13 41.2107 159.125 41.3387 159.114 41.456C159.104 41.5733 159.082 41.6747 159.05 41.76C159.029 41.8347 158.997 41.8933 158.954 41.936C158.922 41.9787 158.874 42 158.81 42ZM151.13 32.496V30.672H153.194V32.496H151.13ZM154.042 32.496V30.672H156.106V32.496H154.042ZM160.621 42V30.688H162.765V42H160.621ZM158.812 42V40.144H160.621V42H158.812ZM158.812 42C158.748 42 158.7 41.9787 158.668 41.936C158.626 41.8933 158.594 41.8347 158.572 41.76C158.54 41.6747 158.519 41.5733 158.508 41.456C158.498 41.3387 158.492 41.2107 158.492 41.072C158.492 40.88 158.503 40.72 158.524 40.592C158.546 40.4533 158.583 40.3467 158.636 40.272C158.679 40.1867 158.738 40.144 158.812 40.144V42ZM167.459 42V40.144H169.283V42H167.459ZM165.331 42V30.688H167.459V42H165.331ZM169.283 42V40.144C169.347 40.144 169.395 40.1653 169.427 40.208C169.469 40.2507 169.501 40.3147 169.523 40.4C169.555 40.4853 169.576 40.5867 169.587 40.704C169.597 40.8107 169.603 40.9333 169.603 41.072C169.603 41.2107 169.597 41.3387 169.587 41.456C169.576 41.5733 169.555 41.6747 169.523 41.76C169.501 41.8347 169.469 41.8933 169.427 41.936C169.395 41.9787 169.347 42 169.283 42ZM169.281 42V40.144H177.313L176.609 40.72V38.544C176.609 37.9893 176.551 37.5467 176.433 37.216C176.316 36.8853 176.135 36.6453 175.889 36.496C175.655 36.3467 175.356 36.272 174.993 36.272H171.489L170.161 34.352L170.977 32.816C171.073 32.6347 171.18 32.4373 171.297 32.224C171.415 32.0107 171.569 31.7547 171.761 31.456C171.953 31.1573 172.199 30.784 172.497 30.336L174.289 31.344C174.012 31.76 173.788 32.1067 173.617 32.384C173.447 32.6507 173.303 32.8853 173.185 33.088C173.068 33.2907 172.961 33.4933 172.865 33.696L172.225 34.896L171.905 34.416H174.993C175.676 34.416 176.257 34.528 176.737 34.752C177.217 34.976 177.601 35.2853 177.889 35.68C178.188 36.0747 178.407 36.5173 178.545 37.008C178.684 37.4987 178.753 38.0107 178.753 38.544V42H169.281ZM169.281 42C169.217 42 169.169 41.9787 169.137 41.936C169.095 41.8933 169.063 41.8347 169.041 41.76C169.009 41.6747 168.988 41.5733 168.977 41.456C168.967 41.3387 168.961 41.2107 168.961 41.072C168.961 40.88 168.972 40.72 168.993 40.592C169.015 40.4533 169.052 40.3467 169.105 40.272C169.148 40.1867 169.207 40.144 169.281 40.144V42ZM183.763 45.968C183.369 45.968 182.953 45.936 182.515 45.872C182.089 45.8187 181.63 45.744 181.139 45.648L181.459 43.936C181.993 44 182.446 44.048 182.819 44.08C183.193 44.112 183.507 44.128 183.763 44.128C184.531 44.128 185.086 43.9893 185.427 43.712C185.769 43.4347 185.939 43.0187 185.939 42.464V35.44L186.467 35.824H184.467C184.03 35.824 183.678 35.8773 183.411 35.984C183.145 36.08 182.947 36.288 182.819 36.608C182.702 36.9173 182.643 37.392 182.643 38.032C182.643 38.64 182.697 39.0987 182.803 39.408C182.921 39.7067 183.113 39.904 183.379 40C183.646 40.096 184.009 40.144 184.467 40.144H185.939V42H184.467C183.561 42 182.814 41.856 182.227 41.568C181.641 41.28 181.203 40.8427 180.915 40.256C180.638 39.6693 180.499 38.928 180.499 38.032C180.499 37.136 180.638 36.3893 180.915 35.792C181.203 35.184 181.641 34.7307 182.227 34.432C182.814 34.1227 183.561 33.968 184.467 33.968H188.083V42.464C188.083 43.1893 187.902 43.8133 187.539 44.336C187.187 44.8693 186.686 45.2747 186.035 45.552C185.395 45.8293 184.638 45.968 183.763 45.968ZM206.144 42V40.144H207.84V42H206.144ZM197.952 46.256C197.077 46.256 196.288 46.0907 195.584 45.76C194.88 45.44 194.325 44.992 193.92 44.416C193.515 43.8507 193.312 43.2053 193.312 42.48C193.312 42.256 193.328 41.9627 193.36 41.6C193.403 41.2373 193.451 40.8373 193.504 40.4C193.568 39.9627 193.632 39.5093 193.696 39.04C193.771 38.5707 193.84 38.128 193.904 37.712L196.016 38.016C195.909 38.72 195.813 39.3653 195.728 39.952C195.643 40.5387 195.573 41.04 195.52 41.456C195.477 41.872 195.456 42.192 195.456 42.416C195.456 42.8427 195.552 43.2 195.744 43.488C195.947 43.7867 196.235 44.0107 196.608 44.16C196.981 44.32 197.429 44.4 197.952 44.4H201.696C202.219 44.4 202.651 44.3307 202.992 44.192C203.333 44.0533 203.589 43.8453 203.76 43.568C203.931 43.3013 204.016 42.9707 204.016 42.576V35.36L204.544 35.824H202.528C202.059 35.824 201.691 35.8827 201.424 36C201.157 36.1173 200.971 36.336 200.864 36.656C200.757 36.9653 200.704 37.408 200.704 37.984C200.704 38.6133 200.757 39.0827 200.864 39.392C200.971 39.6907 201.157 39.8933 201.424 40C201.691 40.096 202.059 40.144 202.528 40.144H204.016V42H202.528C201.621 42 200.875 41.8613 200.288 41.584C199.701 41.296 199.264 40.8533 198.976 40.256C198.699 39.6587 198.56 38.9013 198.56 37.984C198.56 37.1093 198.699 36.3733 198.976 35.776C199.264 35.1787 199.701 34.7307 200.288 34.432C200.875 34.1227 201.621 33.968 202.528 33.968H206.144V42.576C206.144 43.3333 205.947 43.984 205.552 44.528C205.168 45.0827 204.64 45.5093 203.968 45.808C203.307 46.1067 202.549 46.256 201.696 46.256H197.952ZM207.84 42V40.144C207.893 40.144 207.941 40.1653 207.984 40.208C208.027 40.2507 208.059 40.3147 208.08 40.4C208.101 40.4853 208.117 40.5867 208.128 40.704C208.149 40.8107 208.16 40.9333 208.16 41.072C208.16 41.2107 208.149 41.3387 208.128 41.456C208.117 41.5733 208.101 41.6747 208.08 41.76C208.059 41.8347 208.027 41.8933 207.984 41.936C207.941 41.9787 207.893 42 207.84 42ZM200.288 32.496V30.672H202.352V32.496H200.288ZM203.2 32.496V30.672H205.264V32.496H203.2ZM212.516 42V40.144H214.516V42H212.516ZM214.516 42V40.144C214.569 40.144 214.617 40.1653 214.66 40.208C214.702 40.2507 214.734 40.3147 214.756 40.4C214.777 40.4853 214.793 40.5867 214.804 40.704C214.825 40.8107 214.836 40.9333 214.836 41.072C214.836 41.2107 214.825 41.3387 214.804 41.456C214.793 41.5733 214.777 41.6747 214.756 41.76C214.734 41.8347 214.702 41.8933 214.66 41.936C214.628 41.9787 214.58 42 214.516 42ZM207.844 42C207.78 42 207.732 41.9787 207.7 41.936C207.657 41.8933 207.625 41.8347 207.604 41.76C207.572 41.6747 207.55 41.5733 207.54 41.456C207.529 41.3387 207.524 41.2107 207.524 41.072C207.524 40.88 207.534 40.72 207.556 40.592C207.577 40.4533 207.614 40.3467 207.668 40.272C207.71 40.1867 207.769 40.144 207.844 40.144V42ZM207.844 42V40.144H211.636L210.388 41.184V33.968H212.516V42H207.844ZM208.42 45.408V43.584H210.484V45.408H208.42ZM211.332 45.408V43.584H213.396V45.408H211.332ZM214.516 42V40.144H218.308L217.06 41.184V33.968H219.188V42H214.516ZM214.516 42C214.452 42 214.404 41.9787 214.372 41.936C214.329 41.8933 214.297 41.8347 214.276 41.76C214.244 41.6747 214.222 41.5733 214.212 41.456C214.201 41.3387 214.196 41.2107 214.196 41.072C214.196 40.88 214.206 40.72 214.228 40.592C214.249 40.4533 214.286 40.3467 214.34 40.272C214.382 40.1867 214.441 40.144 214.516 40.144V42ZM217.188 30.048V28.448H219.044V30.048H217.188ZM215.636 32.496V30.672H217.7V32.496H215.636ZM218.548 32.496V30.672H220.612V32.496H218.548ZM228.646 42V40.144H230.326V42H228.646ZM224.326 45.968C223.931 45.968 223.515 45.936 223.078 45.872C222.651 45.8187 222.193 45.744 221.702 45.648L222.022 43.936C222.555 44 223.009 44.048 223.382 44.08C223.755 44.112 224.07 44.128 224.326 44.128C225.094 44.128 225.649 43.9893 225.99 43.712C226.331 43.4347 226.502 43.0187 226.502 42.464V35.44L227.03 35.824H225.03C224.593 35.824 224.241 35.8773 223.974 35.984C223.707 36.08 223.51 36.288 223.382 36.608C223.265 36.9173 223.206 37.392 223.206 38.032C223.206 38.64 223.259 39.0987 223.366 39.408C223.483 39.7067 223.675 39.904 223.942 40C224.209 40.096 224.571 40.144 225.03 40.144H226.502V42H225.03C224.123 42 223.377 41.856 222.79 41.568C222.203 41.28 221.766 40.8427 221.478 40.256C221.201 39.6693 221.062 38.928 221.062 38.032C221.062 37.136 221.201 36.3893 221.478 35.792C221.766 35.184 222.203 34.7307 222.79 34.432C223.377 34.1227 224.123 33.968 225.03 33.968H228.646V42.464C228.646 43.1893 228.465 43.8133 228.102 44.336C227.75 44.8693 227.249 45.2747 226.598 45.552C225.958 45.8293 225.201 45.968 224.326 45.968ZM230.326 42V40.144C230.39 40.144 230.438 40.1653 230.47 40.208C230.513 40.2507 230.545 40.3147 230.566 40.4C230.598 40.4853 230.619 40.5867 230.63 40.704C230.641 40.8107 230.646 40.9333 230.646 41.072C230.646 41.2107 230.641 41.3387 230.63 41.456C230.619 41.5733 230.598 41.6747 230.566 41.76C230.545 41.8347 230.513 41.8933 230.47 41.936C230.438 41.9787 230.39 42 230.326 42ZM230.328 42V40.144H234.12L232.872 41.184V33.968H235V42H230.328ZM230.328 42C230.264 42 230.216 41.9787 230.184 41.936C230.141 41.8933 230.109 41.8347 230.088 41.76C230.056 41.6747 230.035 41.5733 230.024 41.456C230.013 41.3387 230.008 41.2107 230.008 41.072C230.008 40.88 230.019 40.72 230.04 40.592C230.061 40.4533 230.099 40.3467 230.152 40.272C230.195 40.1867 230.253 40.144 230.328 40.144V42ZM231.464 32.496V30.672H233.528V32.496H231.464ZM234.376 32.496V30.672H236.44V32.496H234.376ZM252.088 42V40.144H253.768V42H252.088ZM245.56 42C244.419 42 243.454 41.8507 242.664 41.552C241.886 41.2533 241.294 40.8107 240.888 40.224C240.494 39.6373 240.296 38.9067 240.296 38.032C240.296 37.776 240.312 37.5093 240.344 37.232C240.376 36.944 240.414 36.672 240.456 36.416C240.51 36.1493 240.558 35.9147 240.6 35.712C240.643 35.5093 240.675 35.36 240.696 35.264L242.776 35.664C242.744 35.8347 242.702 36.0533 242.648 36.32C242.595 36.5867 242.547 36.8693 242.504 37.168C242.462 37.456 242.44 37.7333 242.44 38C242.44 38.416 242.504 38.7627 242.632 39.04C242.771 39.3173 242.974 39.5413 243.24 39.712C243.507 39.872 243.843 39.984 244.248 40.048C244.654 40.112 245.128 40.144 245.672 40.144H249.944V33.968H252.088V42H245.56ZM253.768 42V40.144C253.832 40.144 253.88 40.1653 253.912 40.208C253.955 40.2507 253.987 40.3147 254.008 40.4C254.04 40.4853 254.062 40.5867 254.072 40.704C254.083 40.8107 254.088 40.9333 254.088 41.072C254.088 41.2107 254.083 41.3387 254.072 41.456C254.062 41.5733 254.04 41.6747 254.008 41.76C253.987 41.8347 253.955 41.8933 253.912 41.936C253.88 41.9787 253.832 42 253.768 42ZM245.24 45.408V43.584H247.384V45.408H245.24ZM257.718 42V40.144H259.398V42H257.718ZM253.766 42C253.702 42 253.654 41.9787 253.622 41.936C253.579 41.8933 253.547 41.8347 253.526 41.76C253.494 41.6747 253.472 41.5733 253.462 41.456C253.451 41.3387 253.446 41.2107 253.446 41.072C253.446 40.88 253.456 40.72 253.478 40.592C253.499 40.4533 253.536 40.3467 253.59 40.272C253.632 40.1867 253.691 40.144 253.766 40.144V42ZM255.574 42V30.688H257.718V42H255.574ZM253.766 42V40.144H255.574V42H253.766ZM259.398 42V40.144C259.462 40.144 259.515 40.1653 259.558 40.208C259.6 40.2507 259.632 40.3147 259.654 40.4C259.675 40.4853 259.691 40.5867 259.702 40.704C259.712 40.8107 259.718 40.9333 259.718 41.072C259.718 41.2107 259.712 41.3387 259.702 41.456C259.691 41.5733 259.675 41.6747 259.654 41.76C259.632 41.8347 259.6 41.8933 259.558 41.936C259.515 41.9787 259.462 42 259.398 42ZM259.391 42V40.144H270.559L268.751 41.712V38.352C268.751 37.744 268.671 37.2587 268.511 36.896C268.351 36.5227 268.116 36.2507 267.807 36.08C267.508 35.9093 267.145 35.824 266.719 35.824C266.26 35.824 265.828 35.9147 265.423 36.096C265.017 36.2773 264.633 36.512 264.271 36.8C263.919 37.088 263.593 37.3973 263.295 37.728C262.996 38.0587 262.729 38.3787 262.495 38.688C262.26 38.9867 262.057 39.2427 261.887 39.456L261.407 37.904C261.844 37.3493 262.249 36.832 262.623 36.352C263.007 35.872 263.407 35.456 263.823 35.104C264.239 34.7413 264.697 34.464 265.199 34.272C265.7 34.0693 266.281 33.968 266.943 33.968C267.657 33.968 268.26 34.0907 268.751 34.336C269.252 34.5707 269.663 34.896 269.983 35.312C270.303 35.728 270.532 36.1973 270.671 36.72C270.809 37.2427 270.879 37.7867 270.879 38.352V42H259.391ZM260.495 40.144V30.688H262.623V40.144H260.495ZM259.391 42C259.327 42 259.279 41.9787 259.247 41.936C259.204 41.8933 259.172 41.8347 259.151 41.76C259.119 41.6747 259.097 41.5733 259.087 41.456C259.076 41.3387 259.071 41.2107 259.071 41.072C259.071 40.88 259.081 40.72 259.103 40.592C259.124 40.4533 259.161 40.3467 259.215 40.272C259.257 40.1867 259.316 40.144 259.391 40.144V42Z" fill="#483A1E"/>
<path d="M33.8723 79V78.048L36.5323 75.262C36.9149 74.8607 37.2463 74.5013 37.5263 74.184C37.8063 73.8573 38.0209 73.54 38.1703 73.232C38.3196 72.9147 38.3943 72.5787 38.3943 72.224C38.3943 71.6173 38.2263 71.202 37.8903 70.978C37.5636 70.7447 37.0689 70.628 36.4062 70.628C36.1636 70.628 35.8929 70.6467 35.5943 70.684C35.2956 70.712 35.0063 70.7493 34.7263 70.796C34.4556 70.8333 34.2223 70.8753 34.0263 70.922L33.9423 69.998C34.1383 69.942 34.3809 69.886 34.6703 69.83C34.9596 69.774 35.2723 69.7273 35.6083 69.69C35.9536 69.6433 36.2896 69.62 36.6163 69.62C37.5963 69.62 38.3289 69.816 38.8143 70.208C39.3089 70.6 39.5563 71.23 39.5563 72.098C39.5563 72.5553 39.4816 72.966 39.3323 73.33C39.1923 73.694 38.9776 74.0533 38.6883 74.408C38.4083 74.7533 38.0489 75.1407 37.6103 75.57L35.1883 78.02H39.7803V79H33.8723ZM44.6602 79.14C44.1282 79.14 43.6522 79.0653 43.2322 78.916C42.8216 78.7667 42.4669 78.5193 42.1682 78.174C41.8789 77.8193 41.6549 77.3433 41.4962 76.746C41.3469 76.1487 41.2722 75.4067 41.2722 74.52C41.2722 73.5773 41.3469 72.7887 41.4962 72.154C41.6456 71.5193 41.8649 71.0153 42.1542 70.642C42.4529 70.2687 42.8076 70.0027 43.2182 69.844C43.6382 69.6853 44.1142 69.606 44.6462 69.606C45.1969 69.606 45.6822 69.6853 46.1022 69.844C46.5222 70.0027 46.8722 70.2687 47.1522 70.642C47.4416 71.0153 47.6609 71.5193 47.8102 72.154C47.9596 72.7793 48.0342 73.568 48.0342 74.52C48.0342 75.696 47.8989 76.62 47.6282 77.292C47.3576 77.964 46.9702 78.44 46.4662 78.72C45.9716 79 45.3696 79.14 44.6602 79.14ZM44.6602 78.146C45.0242 78.146 45.3416 78.09 45.6122 77.978C45.8922 77.866 46.1256 77.6747 46.3122 77.404C46.4989 77.1333 46.6389 76.7647 46.7322 76.298C46.8256 75.822 46.8722 75.2293 46.8722 74.52C46.8722 73.7453 46.8256 73.106 46.7322 72.602C46.6482 72.098 46.5129 71.7013 46.3262 71.412C46.1489 71.1133 45.9202 70.9033 45.6402 70.782C45.3696 70.6607 45.0429 70.6 44.6602 70.6C44.2869 70.6 43.9602 70.6607 43.6802 70.782C43.4002 70.9033 43.1669 71.1087 42.9802 71.398C42.8029 71.6873 42.6676 72.0887 42.5742 72.602C42.4809 73.106 42.4342 73.75 42.4342 74.534C42.4342 75.2433 42.4809 75.836 42.5742 76.312C42.6769 76.7787 42.8216 77.1473 43.0082 77.418C43.2042 77.6793 43.4376 77.866 43.7082 77.978C43.9882 78.09 44.3056 78.146 44.6602 78.146ZM49.5402 79V78.048L52.2002 75.262C52.5829 74.8607 52.9142 74.5013 53.1942 74.184C53.4742 73.8573 53.6889 73.54 53.8382 73.232C53.9876 72.9147 54.0622 72.5787 54.0622 72.224C54.0622 71.6173 53.8942 71.202 53.5582 70.978C53.2316 70.7447 52.7369 70.628 52.0742 70.628C51.8316 70.628 51.5609 70.6467 51.2622 70.684C50.9636 70.712 50.6742 70.7493 50.3942 70.796C50.1236 70.8333 49.8902 70.8753 49.6942 70.922L49.6102 69.998C49.8062 69.942 50.0489 69.886 50.3382 69.83C50.6276 69.774 50.9402 69.7273 51.2762 69.69C51.6216 69.6433 51.9576 69.62 52.2842 69.62C53.2642 69.62 53.9969 69.816 54.4822 70.208C54.9769 70.6 55.2242 71.23 55.2242 72.098C55.2242 72.5553 55.1496 72.966 55.0002 73.33C54.8602 73.694 54.6456 74.0533 54.3562 74.408C54.0762 74.7533 53.7169 75.1407 53.2782 75.57L50.8562 78.02H55.4482V79H49.5402ZM60.3562 79.126C60.0109 79.126 59.6469 79.1027 59.2642 79.056C58.8815 79.0093 58.5129 78.958 58.1582 78.902C57.8129 78.8367 57.5235 78.776 57.2902 78.72L57.4162 77.824C57.6495 77.8613 57.9295 77.908 58.2562 77.964C58.5829 78.0107 58.9189 78.0527 59.2642 78.09C59.6189 78.118 59.9455 78.132 60.2442 78.132C60.8789 78.132 61.3782 77.95 61.7422 77.586C62.1155 77.222 62.3022 76.6947 62.3022 76.004C62.3022 75.5373 62.2229 75.1733 62.0642 74.912C61.9055 74.6413 61.6815 74.45 61.3922 74.338C61.1029 74.226 60.7669 74.17 60.3842 74.17C60.1042 74.17 59.8242 74.198 59.5442 74.254C59.2642 74.31 59.0075 74.38 58.7742 74.464C58.5409 74.548 58.3495 74.632 58.2002 74.716L57.4442 74.562L57.6962 69.76H63.0862V70.768H58.6202L58.3682 73.722C58.5269 73.6473 58.7229 73.568 58.9562 73.484C59.1895 73.4 59.4415 73.33 59.7122 73.274C59.9829 73.2087 60.2489 73.176 60.5102 73.176C61.1169 73.176 61.6395 73.2693 62.0782 73.456C62.5169 73.6333 62.8575 73.9227 63.1002 74.324C63.3429 74.716 63.4642 75.2433 63.4642 75.906C63.4642 76.6153 63.3382 77.208 63.0862 77.684C62.8435 78.16 62.4889 78.5193 62.0222 78.762C61.5649 79.0047 61.0095 79.126 60.3562 79.126ZM73.8984 79V78.006H75.4104V79H73.8984ZM70.5804 82.094C70.2537 82.094 69.9037 82.066 69.5304 82.01C69.1664 81.9633 68.765 81.8933 68.3264 81.8L68.4944 80.918C68.989 80.9833 69.3997 81.03 69.7264 81.058C70.0624 81.086 70.347 81.1 70.5804 81.1C71.355 81.1 71.9197 80.9507 72.2744 80.652C72.629 80.3627 72.8064 79.938 72.8064 79.378V72.63L73.3664 72.994H71.0004C70.459 72.994 70.039 73.0593 69.7404 73.19C69.451 73.3207 69.2504 73.568 69.1384 73.932C69.0264 74.2867 68.9704 74.8093 68.9704 75.5C68.9704 76.1907 69.0264 76.718 69.1384 77.082C69.2504 77.4367 69.451 77.6793 69.7404 77.81C70.039 77.9407 70.459 78.006 71.0004 78.006H72.8064V79H71.0004C70.1884 79 69.5537 78.8787 69.0964 78.636C68.6484 78.384 68.331 78.0013 68.1444 77.488C67.967 76.9653 67.8784 76.3027 67.8784 75.5C67.8784 74.6973 67.967 74.0393 68.1444 73.526C68.331 73.0033 68.6484 72.6207 69.0964 72.378C69.5537 72.126 70.1884 72 71.0004 72H73.8984V79.364C73.8984 79.9427 73.763 80.4373 73.4924 80.848C73.231 81.2587 72.853 81.5667 72.3584 81.772C71.8637 81.9867 71.271 82.094 70.5804 82.094ZM75.4104 79V78.006C75.4664 78.006 75.513 78.02 75.5504 78.048C75.5877 78.0667 75.6157 78.0993 75.6344 78.146C75.653 78.1833 75.667 78.2347 75.6764 78.3C75.6857 78.356 75.6904 78.4213 75.6904 78.496C75.6904 78.5707 75.6857 78.6407 75.6764 78.706C75.667 78.7713 75.653 78.8273 75.6344 78.874C75.6157 78.9113 75.5877 78.944 75.5504 78.972C75.513 78.9907 75.4664 79 75.4104 79ZM75.4121 79V78.006H77.4281L76.9241 78.412V72H78.0161V79H75.4121ZM75.4121 79C75.3561 79 75.3094 78.9907 75.2721 78.972C75.2348 78.944 75.2068 78.9113 75.1881 78.874C75.1694 78.8273 75.1554 78.7713 75.1461 78.706C75.1368 78.6407 75.1321 78.5707 75.1321 78.496C75.1321 78.3933 75.1414 78.3093 75.1601 78.244C75.1694 78.1693 75.1974 78.1133 75.2441 78.076C75.2814 78.0293 75.3374 78.006 75.4121 78.006V79ZM75.9721 81.52V80.26H77.0641V81.52H75.9721ZM77.8901 81.52V80.26H78.9821V81.52H77.8901ZM81.5665 79V78.006H83.2745V79H81.5665ZM80.4885 79V68.962H81.5665V79H80.4885ZM83.2745 79V78.006C83.3305 78.006 83.3772 78.02 83.4145 78.048C83.4519 78.0667 83.4799 78.0993 83.4985 78.146C83.5172 78.1833 83.5312 78.2347 83.5405 78.3C83.5499 78.356 83.5545 78.4213 83.5545 78.496C83.5545 78.5707 83.5499 78.6407 83.5405 78.706C83.5312 78.7713 83.5172 78.8273 83.4985 78.874C83.4799 78.9113 83.4519 78.944 83.4145 78.972C83.3772 78.9907 83.3305 79 83.2745 79ZM83.2734 79V78.006H90.9314L90.1194 78.58V75.57C90.1194 74.9167 90.0448 74.4033 89.8954 74.03C89.7461 73.6567 89.4894 73.3907 89.1254 73.232C88.7708 73.0733 88.2854 72.994 87.6694 72.994C87.2774 72.994 86.8854 73.022 86.4934 73.078C86.1108 73.134 85.8121 73.2087 85.5974 73.302L86.2554 72.63C86.1994 72.854 86.1434 73.1387 86.0874 73.484C86.0314 73.82 85.9848 74.184 85.9474 74.576C85.9101 74.968 85.8914 75.36 85.8914 75.752C85.8914 76.1533 85.9101 76.5453 85.9474 76.928C85.9848 77.3107 86.0268 77.642 86.0734 77.922C86.1201 78.202 86.1574 78.398 86.1854 78.51L85.1494 78.804C85.1121 78.6827 85.0654 78.4727 85.0094 78.174C84.9628 77.8753 84.9161 77.516 84.8694 77.096C84.8321 76.676 84.8134 76.228 84.8134 75.752C84.8134 75.2947 84.8321 74.8513 84.8694 74.422C84.9161 73.9833 84.9674 73.5867 85.0234 73.232C85.0888 72.8773 85.1494 72.5927 85.2054 72.378C85.4108 72.294 85.7374 72.21 86.1854 72.126C86.6334 72.042 87.1281 72 87.6694 72C88.4534 72 89.1068 72.1167 89.6294 72.35C90.1614 72.5833 90.5581 72.9613 90.8194 73.484C91.0808 73.9973 91.2114 74.6927 91.2114 75.57V79H83.2734ZM83.2734 79C83.2174 79 83.1708 78.9907 83.1334 78.972C83.0961 78.944 83.0681 78.9113 83.0494 78.874C83.0308 78.8273 83.0168 78.7713 83.0074 78.706C82.9981 78.6407 82.9934 78.5707 82.9934 78.496C82.9934 78.3933 83.0028 78.3093 83.0214 78.244C83.0308 78.1693 83.0588 78.1133 83.1054 78.076C83.1428 78.0293 83.1988 78.006 83.2734 78.006V79ZM99.672 79V71.006L97.32 72.574L96.802 71.72L99.742 69.76H100.792V79H99.672ZM104.132 79V78.048L106.792 75.262C107.175 74.8607 107.506 74.5013 107.786 74.184C108.066 73.8573 108.281 73.54 108.43 73.232C108.579 72.9147 108.654 72.5787 108.654 72.224C108.654 71.6173 108.486 71.202 108.15 70.978C107.823 70.7447 107.329 70.628 106.666 70.628C106.423 70.628 106.153 70.6467 105.854 70.684C105.555 70.712 105.266 70.7493 104.986 70.796C104.715 70.8333 104.482 70.8753 104.286 70.922L104.202 69.998C104.398 69.942 104.641 69.886 104.93 69.83C105.219 69.774 105.532 69.7273 105.868 69.69C106.213 69.6433 106.549 69.62 106.876 69.62C107.856 69.62 108.589 69.816 109.074 70.208C109.569 70.6 109.816 71.23 109.816 72.098C109.816 72.5553 109.741 72.966 109.592 73.33C109.452 73.694 109.237 74.0533 108.948 74.408C108.668 74.7533 108.309 75.1407 107.87 75.57L105.448 78.02H110.04V79H104.132Z" fill="#483A1E" fill-opacity="0.75"/>
<path d="M177.541 79V71.006L175.189 72.574L174.671 71.72L177.611 69.76H178.661V79H177.541ZM182.001 79V78.048L184.661 75.262C185.044 74.8607 185.375 74.5013 185.655 74.184C185.935 73.8573 186.15 73.54 186.299 73.232C186.448 72.9147 186.523 72.5787 186.523 72.224C186.523 71.6173 186.355 71.202 186.019 70.978C185.692 70.7447 185.198 70.628 184.535 70.628C184.292 70.628 184.022 70.6467 183.723 70.684C183.424 70.712 183.135 70.7493 182.855 70.796C182.584 70.8333 182.351 70.8753 182.155 70.922L182.071 69.998C182.267 69.942 182.51 69.886 182.799 69.83C183.088 69.774 183.401 69.7273 183.737 69.69C184.082 69.6433 184.418 69.62 184.745 69.62C185.725 69.62 186.458 69.816 186.943 70.208C187.438 70.6 187.685 71.23 187.685 72.098C187.685 72.5553 187.61 72.966 187.461 73.33C187.321 73.694 187.106 74.0533 186.817 74.408C186.537 74.7533 186.178 75.1407 185.739 75.57L183.317 78.02H187.909V79H182.001ZM192.761 79.14C192.406 79.14 192.038 79.1167 191.655 79.07C191.272 79.0327 190.913 78.986 190.577 78.93C190.241 78.874 189.961 78.818 189.737 78.762L189.835 77.852C190.05 77.8893 190.316 77.9313 190.633 77.978C190.95 78.0247 191.286 78.0667 191.641 78.104C191.996 78.132 192.332 78.146 192.649 78.146C193.321 78.146 193.816 78.0013 194.133 77.712C194.46 77.4133 194.623 76.9747 194.623 76.396C194.623 75.976 194.539 75.6447 194.371 75.402C194.203 75.1593 193.974 74.982 193.685 74.87C193.405 74.758 193.092 74.6973 192.747 74.688H190.885V73.722H192.747C192.98 73.722 193.223 73.6567 193.475 73.526C193.736 73.3953 193.956 73.2087 194.133 72.966C194.31 72.714 194.399 72.4153 194.399 72.07C194.399 71.5473 194.254 71.174 193.965 70.95C193.685 70.7167 193.209 70.6 192.537 70.6C192.229 70.6 191.912 70.6187 191.585 70.656C191.268 70.684 190.964 70.7213 190.675 70.768C190.395 70.8053 190.162 70.8473 189.975 70.894L189.877 69.998C190.064 69.942 190.302 69.886 190.591 69.83C190.89 69.7647 191.212 69.7133 191.557 69.676C191.902 69.6293 192.243 69.606 192.579 69.606C193.316 69.606 193.9 69.6947 194.329 69.872C194.768 70.04 195.08 70.3013 195.267 70.656C195.463 71.0107 195.561 71.4633 195.561 72.014C195.561 72.3687 195.505 72.672 195.393 72.924C195.281 73.1667 195.146 73.372 194.987 73.54C194.828 73.6987 194.674 73.8247 194.525 73.918C194.376 74.0113 194.264 74.0813 194.189 74.128C194.506 74.24 194.782 74.3753 195.015 74.534C195.258 74.6833 195.444 74.9027 195.575 75.192C195.715 75.472 195.785 75.8593 195.785 76.354C195.785 76.9793 195.678 77.4973 195.463 77.908C195.258 78.3187 194.931 78.6267 194.483 78.832C194.035 79.0373 193.461 79.14 192.761 79.14ZM201.715 79V77.208H197.263V76.34L199.881 69.76H201.113L198.439 76.214H201.715V73.358H202.835V76.214H203.997V77.208H202.835V79H201.715ZM208.551 74.52V72.882H209.741V74.52H208.551ZM208.551 79V77.362H209.741V79H208.551ZM220.602 79V78.006H222.114V79H220.602ZM215.394 79C214.47 79 213.7 78.8927 213.084 78.678C212.468 78.4633 212.006 78.1367 211.698 77.698C211.39 77.2593 211.236 76.6993 211.236 76.018C211.236 75.794 211.25 75.5513 211.278 75.29C211.315 75.0287 211.357 74.7767 211.404 74.534C211.45 74.282 211.492 74.0673 211.53 73.89C211.567 73.7033 211.59 73.5773 211.6 73.512L212.664 73.708C212.636 73.8573 212.594 74.0627 212.538 74.324C212.491 74.5853 212.444 74.8653 212.398 75.164C212.351 75.4627 212.328 75.7473 212.328 76.018C212.328 76.3633 212.379 76.662 212.482 76.914C212.594 77.166 212.766 77.376 213 77.544C213.242 77.7027 213.56 77.8193 213.952 77.894C214.344 77.9687 214.824 78.006 215.394 78.006H219.51V72H220.602V79H215.394ZM222.114 79V78.006C222.17 78.006 222.216 78.02 222.254 78.048C222.291 78.0667 222.319 78.0993 222.338 78.146C222.356 78.1833 222.37 78.2347 222.38 78.3C222.389 78.356 222.394 78.4213 222.394 78.496C222.394 78.5707 222.389 78.6407 222.38 78.706C222.37 78.7713 222.356 78.8273 222.338 78.874C222.319 78.9113 222.291 78.944 222.254 78.972C222.216 78.9907 222.17 79 222.114 79ZM215.38 81.52V80.26H216.472V81.52H215.38ZM224.905 79V78.006H226.417V79H224.905ZM222.119 79C222.063 79 222.016 78.9907 221.979 78.972C221.942 78.944 221.914 78.9113 221.895 78.874C221.876 78.8273 221.862 78.7713 221.853 78.706C221.844 78.6407 221.839 78.5707 221.839 78.496C221.839 78.3933 221.848 78.3093 221.867 78.244C221.876 78.1693 221.904 78.1133 221.951 78.076C221.988 78.0293 222.044 78.006 222.119 78.006V79ZM223.813 79V68.962H224.905V79H223.813ZM222.119 79V78.006H223.813V79H222.119ZM226.417 79V78.006C226.473 78.006 226.52 78.02 226.557 78.048C226.594 78.0667 226.622 78.0993 226.641 78.146C226.66 78.1833 226.674 78.2347 226.683 78.3C226.692 78.356 226.697 78.4213 226.697 78.496C226.697 78.5707 226.692 78.6407 226.683 78.706C226.674 78.7713 226.66 78.8273 226.641 78.874C226.622 78.9113 226.594 78.944 226.557 78.972C226.52 78.9907 226.473 79 226.417 79ZM235.386 79V78.006H236.898V79H235.386ZM226.412 79V78.006H235.694L234.686 78.916V75.626C234.686 75.038 234.602 74.5527 234.434 74.17C234.275 73.778 234.033 73.484 233.706 73.288C233.389 73.092 232.987 72.994 232.502 72.994C232.091 72.994 231.709 73.064 231.354 73.204C231.009 73.3347 230.687 73.512 230.388 73.736C230.089 73.9507 229.809 74.1933 229.548 74.464C229.296 74.7253 229.063 74.9913 228.848 75.262C228.633 75.5327 228.437 75.78 228.26 76.004L227.896 75.01C228.185 74.646 228.479 74.2867 228.778 73.932C229.077 73.5773 229.403 73.2553 229.758 72.966C230.113 72.6767 230.514 72.4433 230.962 72.266C231.41 72.0887 231.923 72 232.502 72C233.165 72 233.706 72.112 234.126 72.336C234.555 72.56 234.887 72.8587 235.12 73.232C235.363 73.596 235.531 73.988 235.624 74.408C235.717 74.828 235.764 75.234 235.764 75.626V79H226.412ZM227.336 78.006V68.962H228.428V78.006H227.336ZM226.412 79C226.356 79 226.309 78.9907 226.272 78.972C226.235 78.944 226.207 78.9113 226.188 78.874C226.169 78.8273 226.155 78.7713 226.146 78.706C226.137 78.6407 226.132 78.5707 226.132 78.496C226.132 78.3933 226.141 78.3093 226.16 78.244C226.169 78.1693 226.197 78.1133 226.244 78.076C226.281 78.0293 226.337 78.006 226.412 78.006V79ZM236.898 79V78.006C236.954 78.006 237.001 78.02 237.038 78.048C237.075 78.0667 237.103 78.0993 237.122 78.146C237.141 78.1833 237.155 78.2347 237.164 78.3C237.173 78.356 237.178 78.4213 237.178 78.496C237.178 78.5707 237.173 78.6407 237.164 78.706C237.155 78.7713 237.141 78.8273 237.122 78.874C237.103 78.9113 237.075 78.944 237.038 78.972C237.001 78.9907 236.954 79 236.898 79ZM238.592 79V68.962H239.684V79H238.592ZM236.898 79V78.006H238.592V79H236.898ZM236.898 79C236.842 79 236.796 78.9907 236.758 78.972C236.721 78.944 236.693 78.9113 236.674 78.874C236.656 78.8273 236.642 78.7713 236.632 78.706C236.623 78.6407 236.618 78.5707 236.618 78.496C236.618 78.3933 236.628 78.3093 236.646 78.244C236.656 78.1693 236.684 78.1133 236.73 78.076C236.768 78.0293 236.824 78.006 236.898 78.006V79ZM242.098 79V68.962H243.176V79H242.098ZM255.304 79V78.006H256.816V79H255.304ZM248.5 83.648C248.407 83.116 248.323 82.612 248.248 82.136C248.183 81.66 248.15 81.254 248.15 80.918C248.15 80.3113 248.253 79.7887 248.458 79.35C248.673 78.9207 248.976 78.5893 249.368 78.356C249.769 78.1227 250.245 78.006 250.796 78.006C250.955 78.006 251.188 78.006 251.496 78.006C251.804 78.006 252.159 78.006 252.56 78.006C252.961 78.006 253.377 78.006 253.806 78.006C254.235 78.006 254.641 78.006 255.024 78.006L254.212 78.72V75.57C254.212 74.9167 254.137 74.4033 253.988 74.03C253.839 73.6567 253.582 73.3907 253.218 73.232C252.863 73.0733 252.378 72.994 251.762 72.994C251.37 72.994 250.978 73.022 250.586 73.078C250.203 73.134 249.905 73.2087 249.69 73.302L250.348 72.63C250.292 72.854 250.236 73.1387 250.18 73.484C250.124 73.82 250.077 74.184 250.04 74.576C250.012 74.968 249.998 75.36 249.998 75.752C249.998 76.1533 250.012 76.5453 250.04 76.928C250.077 77.3107 250.119 77.642 250.166 77.922C250.213 78.202 250.25 78.398 250.278 78.51L249.242 78.804C249.205 78.6827 249.158 78.4727 249.102 78.174C249.055 77.8753 249.009 77.516 248.962 77.096C248.925 76.676 248.906 76.228 248.906 75.752C248.906 75.2947 248.925 74.8513 248.962 74.422C249.009 73.9833 249.06 73.5867 249.116 73.232C249.181 72.8773 249.242 72.5927 249.298 72.378C249.503 72.294 249.83 72.21 250.278 72.126C250.726 72.042 251.221 72 251.762 72C252.229 72 252.649 72.042 253.022 72.126C253.405 72.2007 253.736 72.3267 254.016 72.504C254.305 72.6813 254.543 72.91 254.73 73.19C254.926 73.4607 255.071 73.7967 255.164 74.198C255.257 74.59 255.304 75.0473 255.304 75.57V79C254.912 79 254.487 79 254.03 79C253.582 79 253.139 79 252.7 79C252.271 79 251.883 79 251.538 79C251.202 79 250.955 79 250.796 79C250.647 79 250.483 79.0187 250.306 79.056C250.129 79.1027 249.956 79.1867 249.788 79.308C249.629 79.4387 249.499 79.63 249.396 79.882C249.293 80.1433 249.242 80.4887 249.242 80.918C249.242 81.2727 249.275 81.6787 249.34 82.136C249.405 82.5933 249.48 83.0973 249.564 83.648H248.5ZM256.816 79V78.006C256.872 78.006 256.919 78.02 256.956 78.048C256.993 78.0667 257.021 78.0993 257.04 78.146C257.059 78.1833 257.073 78.2347 257.082 78.3C257.091 78.356 257.096 78.4213 257.096 78.496C257.096 78.5707 257.091 78.6407 257.082 78.706C257.073 78.7713 257.059 78.8273 257.04 78.874C257.021 78.9113 256.993 78.944 256.956 78.972C256.919 78.9907 256.872 79 256.816 79ZM256.818 79V78.006H263.888L263.16 78.636V72.518L263.734 72.994H261.354C260.813 72.994 260.393 73.0593 260.094 73.19C259.805 73.3207 259.604 73.568 259.492 73.932C259.38 74.2867 259.324 74.8093 259.324 75.5C259.324 76.1907 259.38 76.718 259.492 77.082C259.604 77.4367 259.805 77.6793 260.094 77.81C260.393 77.9407 260.813 78.006 261.354 78.006V78.72C260.542 78.72 259.908 78.622 259.45 78.426C259.002 78.2207 258.685 77.8847 258.498 77.418C258.321 76.942 258.232 76.3027 258.232 75.5C258.232 74.6973 258.321 74.0393 258.498 73.526C258.685 73.0033 259.002 72.6207 259.45 72.378C259.908 72.126 260.542 72 261.354 72H264.252V79H256.818ZM256.818 79C256.762 79 256.716 78.9907 256.678 78.972C256.641 78.944 256.613 78.9113 256.594 78.874C256.576 78.8273 256.562 78.7713 256.552 78.706C256.543 78.6407 256.538 78.5707 256.538 78.496C256.538 78.3933 256.548 78.3093 256.566 78.244C256.576 78.1693 256.604 78.1133 256.65 78.076C256.688 78.0293 256.744 78.006 256.818 78.006V79ZM260.066 70.74V69.48H261.158V70.74H260.066ZM261.984 70.74V69.48H263.076V70.74H261.984ZM265.448 82.094C265.327 82.094 265.201 82.0847 265.07 82.066C264.93 82.0567 264.795 82.0473 264.664 82.038L264.79 81.044C264.921 81.0533 265.042 81.0627 265.154 81.072C265.266 81.0907 265.364 81.1 265.448 81.1C265.887 81.1 266.242 80.932 266.512 80.596C266.783 80.2693 266.918 79.812 266.918 79.224V72H268.01V79.224C268.01 79.7933 267.898 80.2927 267.674 80.722C267.46 81.1607 267.161 81.4967 266.778 81.73C266.396 81.9727 265.952 82.094 265.448 82.094Z" fill="#483A1E" fill-opacity="0.75"/>
<path d="M311.25 55.6665C311.25 55.335 311.118 55.017 310.884 54.7826C310.649 54.5482 310.332 54.4165 310 54.4165H300C299.668 54.4165 299.351 54.5482 299.116 54.7826C298.882 55.017 298.75 55.335 298.75 55.6665C298.75 55.998 298.882 56.316 299.116 56.5504C299.351 56.7848 299.668 56.9165 300 56.9165H310C310.332 56.9165 310.649 56.7848 310.884 56.5504C311.118 56.316 311.25 55.998 311.25 55.6665ZM311.25 62.3332C311.25 62.0017 311.118 61.6837 310.884 61.4493C310.649 61.2149 310.332 61.0832 310 61.0832H300C299.668 61.0832 299.351 61.2149 299.116 61.4493C298.882 61.6837 298.75 62.0017 298.75 62.3332C298.75 62.6647 298.882 62.9826 299.116 63.2171C299.351 63.4515 299.668 63.5832 300 63.5832H310C310.332 63.5832 310.649 63.4515 310.884 63.2171C311.118 62.9826 311.25 62.6647 311.25 62.3332Z" fill="#483A1E"/>
<path fill-rule="evenodd" clip-rule="evenodd" d="M296.667 37.75C295.451 37.75 294.285 38.2329 293.426 39.0924C292.566 39.952 292.083 41.1178 292.083 42.3333V65.6667C292.083 66.8822 292.566 68.048 293.426 68.9076C294.285 69.7671 295.451 70.25 296.667 70.25H313.333C314.549 70.25 315.715 69.7671 316.574 68.9076C317.434 68.048 317.917 66.8822 317.917 65.6667V47.28C317.917 46.645 317.71 46.0283 317.327 45.5217L312.33 38.9083C312.058 38.5485 311.706 38.2567 311.303 38.0557C310.899 37.8547 310.454 37.7501 310.003 37.75H296.667ZM294.583 42.3333C294.583 41.1833 295.517 40.25 296.667 40.25H308.75V47.5783C308.75 48.2683 309.31 48.8283 310 48.8283H315.417V65.6667C315.417 66.8167 314.483 67.75 313.333 67.75H296.667C295.517 67.75 294.583 66.8167 294.583 65.6667V42.3333Z" fill="#483A1E"/>
</g>
<defs>
<filter id="filter0_d_684_25822" x="0" y="0" width="357" height="108" filterUnits="userSpaceOnUse" color-interpolation-filters="sRGB">
<feFlood flood-opacity="0" result="BackgroundImageFix"/>
<feColorMatrix in="SourceAlpha" type="matrix" values="0 0 0 0 0 0 0 0 0 0 0 0 0 0 0 0 0 0 127 0" result="hardAlpha"/>
<feOffset/>
<feGaussianBlur stdDeviation="4"/>
<feComposite in2="hardAlpha" operator="out"/>
<feColorMatrix type="matrix" values="0 0 0 0 0 0 0 0 0 0 0 0 0 0 0 0 0 0 0.12 0"/>
<feBlend mode="normal" in2="BackgroundImageFix" result="effect1_dropShadow_684_25822"/>
<feBlend mode="normal" in="SourceGraphic" in2="effect1_dropShadow_684_25822" result="shape"/>
</filter>
</defs>
</svg>
