<svg width="372" height="76" viewBox="0 0 372 76" fill="none" xmlns="http://www.w3.org/2000/svg">
<g filter="url(#filter0_d_447_12482)">
<rect x="8" y="8" width="356" height="60" rx="30" fill="white" fill-opacity="0.5" shape-rendering="crispEdges"/>
<rect x="8.5" y="8.5" width="355" height="59" rx="29.5" stroke="#F0E9DB" shape-rendering="crispEdges"/>
<path d="M63.35 33.1C64.2 32.45 65.15 31.9375 66.2 31.5625C67.25 31.1875 68.35 31 69.5 31C70.65 31 71.75 31.1875 72.8 31.5625C73.85 31.9375 74.8 32.45 75.65 33.1C76.2333 32.4167 76.6875 31.6417 77.0125 30.775C77.3375 29.9083 77.5 28.9833 77.5 28C77.5 25.7833 76.7208 23.8958 75.1625 22.3375C73.6042 20.7792 71.7167 20 69.5 20C67.2833 20 65.3958 20.7792 63.8375 22.3375C62.2792 23.8958 61.5 25.7833 61.5 28C61.5 28.9833 61.6625 29.9083 61.9875 30.775C62.3125 31.6417 62.7667 32.4167 63.35 33.1ZM69.5 29C68.5167 29 67.6875 28.6625 67.0125 27.9875C66.3375 27.3125 66 26.4833 66 25.5C66 24.5167 66.3375 23.6875 67.0125 23.0125C67.6875 22.3375 68.5167 22 69.5 22C70.4833 22 71.3125 22.3375 71.9875 23.0125C72.6625 23.6875 73 24.5167 73 25.5C73 26.4833 72.6625 27.3125 71.9875 27.9875C71.3125 28.6625 70.4833 29 69.5 29ZM69.5 38C68.1167 38 66.8167 37.7375 65.6 37.2125C64.3833 36.6875 63.325 35.975 62.425 35.075C61.525 34.175 60.8125 33.1167 60.2875 31.9C59.7625 30.6833 59.5 29.3833 59.5 28C59.5 26.6167 59.7625 25.3167 60.2875 24.1C60.8125 22.8833 61.525 21.825 62.425 20.925C63.325 20.025 64.3833 19.3125 65.6 18.7875C66.8167 18.2625 68.1167 18 69.5 18C70.8833 18 72.1833 18.2625 73.4 18.7875C74.6167 19.3125 75.675 20.025 76.575 20.925C77.475 21.825 78.1875 22.8833 78.7125 24.1C79.2375 25.3167 79.5 26.6167 79.5 28C79.5 29.3833 79.2375 30.6833 78.7125 31.9C78.1875 33.1167 77.475 34.175 76.575 35.075C75.675 35.975 74.6167 36.6875 73.4 37.2125C72.1833 37.7375 70.8833 38 69.5 38Z" fill="black"/>
<path d="M56.1179 58.976C55.6539 58.976 55.2219 58.908 54.8219 58.772C54.4219 58.644 54.0699 58.46 53.7659 58.22C53.4699 57.988 53.2379 57.708 53.0699 57.38C52.9019 57.052 52.8179 56.692 52.8179 56.3C52.8179 56.14 52.8299 55.928 52.8539 55.664C52.8859 55.4 52.9219 55.104 52.9619 54.776C53.0099 54.44 53.0619 54.1 53.1179 53.756L54.0419 53.888C53.9539 54.424 53.8819 54.912 53.8259 55.352C53.7779 55.792 53.7539 56.104 53.7539 56.288C53.7539 56.648 53.8539 56.964 54.0539 57.236C54.2539 57.516 54.5299 57.732 54.8819 57.884C55.2419 58.044 55.6539 58.124 56.1179 58.124H59.5139C60.1219 58.124 60.5819 57.956 60.8939 57.62C61.2139 57.284 61.3739 56.792 61.3739 56.144V55.748H62.2979V56.156C62.2979 56.708 62.1899 57.196 61.9739 57.62C61.7579 58.044 61.4419 58.376 61.0259 58.616C60.6179 58.856 60.1139 58.976 59.5139 58.976H56.1179ZM60.6779 56C60.4059 56 60.1299 55.972 59.8499 55.916C59.5779 55.86 59.3059 55.744 59.0339 55.568L59.5619 54.86C59.6739 54.932 59.7819 54.992 59.8859 55.04C59.9899 55.08 60.1059 55.108 60.2339 55.124C60.3619 55.14 60.5099 55.148 60.6779 55.148H62.9459V56H60.6779ZM62.9459 56V55.148C62.9939 55.148 63.0339 55.16 63.0659 55.184C63.0979 55.2 63.1219 55.228 63.1379 55.268C63.1539 55.3 63.1659 55.344 63.1739 55.4C63.1819 55.448 63.1859 55.504 63.1859 55.568C63.1859 55.632 63.1819 55.692 63.1739 55.748C63.1659 55.804 63.1539 55.852 63.1379 55.892C63.1219 55.924 63.0979 55.952 63.0659 55.976C63.0339 55.992 62.9939 56 62.9459 56ZM56.2739 61.16V60.08H57.2099V61.16H56.2739ZM57.9179 61.16V60.08H58.8539V61.16H57.9179ZM62.9434 56V55.148H64.6714L64.2394 55.496V50H65.1754V56H62.9434ZM62.9434 56C62.8954 56 62.8554 55.992 62.8234 55.976C62.7914 55.952 62.7674 55.924 62.7514 55.892C62.7354 55.852 62.7234 55.804 62.7154 55.748C62.7074 55.692 62.7034 55.632 62.7034 55.568C62.7034 55.48 62.7114 55.408 62.7274 55.352C62.7354 55.288 62.7594 55.24 62.7994 55.208C62.8314 55.168 62.8794 55.148 62.9434 55.148V56ZM64.2394 58.16V57.08H65.1754V58.16H64.2394ZM68.2186 56V55.148H69.6826V56H68.2186ZM67.2946 56V47.396H68.2186V56H67.2946ZM69.6826 56V55.148C69.7306 55.148 69.7706 55.16 69.8026 55.184C69.8346 55.2 69.8586 55.228 69.8746 55.268C69.8906 55.3 69.9026 55.344 69.9106 55.4C69.9186 55.448 69.9226 55.504 69.9226 55.568C69.9226 55.632 69.9186 55.692 69.9106 55.748C69.9026 55.804 69.8906 55.852 69.8746 55.892C69.8586 55.924 69.8346 55.952 69.8026 55.976C69.7706 55.992 69.7306 56 69.6826 56ZM78.7056 56V55.148H80.0016V56H78.7056ZM69.6816 56C69.6336 56 69.5936 55.992 69.5616 55.976C69.5296 55.952 69.5056 55.924 69.4896 55.892C69.4736 55.852 69.4616 55.804 69.4536 55.748C69.4456 55.692 69.4416 55.632 69.4416 55.568C69.4416 55.48 69.4496 55.408 69.4656 55.352C69.4736 55.288 69.4976 55.24 69.5376 55.208C69.5696 55.168 69.6176 55.148 69.6816 55.148V56ZM75.9936 56C75.7216 56 75.4536 55.948 75.1896 55.844C74.9336 55.74 74.6856 55.576 74.4456 55.352L75.0576 54.716C75.2416 54.868 75.4056 54.98 75.5496 55.052C75.6936 55.116 75.8416 55.148 75.9936 55.148H78.1296L77.7696 55.532V52.664C77.7696 52.52 77.7536 52.316 77.7216 52.052C77.6976 51.788 77.6576 51.492 77.6016 51.164C77.5536 50.828 77.4936 50.492 77.4216 50.156L78.3336 50C78.3896 50.28 78.4456 50.592 78.5016 50.936C78.5576 51.28 78.6056 51.608 78.6456 51.92C78.6856 52.224 78.7056 52.472 78.7056 52.664V56H75.9936ZM69.6816 56V55.148H71.4336L71.1936 55.388V51.2H72.1176V56H69.6816ZM72.1176 56V55.148H73.4736C73.7456 55.148 73.9496 55.108 74.0856 55.028C74.2296 54.948 74.3296 54.788 74.3856 54.548C74.4416 54.308 74.4696 53.956 74.4696 53.492V50.6H75.4056V53.492C75.4056 54.116 75.3376 54.612 75.2016 54.98C75.0736 55.348 74.8696 55.612 74.5896 55.772C74.3096 55.924 73.9376 56 73.4736 56H72.1176ZM80.0016 56V55.148C80.0496 55.148 80.0896 55.16 80.1216 55.184C80.1536 55.2 80.1776 55.228 80.1936 55.268C80.2096 55.3 80.2216 55.344 80.2296 55.4C80.2376 55.448 80.2416 55.504 80.2416 55.568C80.2416 55.632 80.2376 55.692 80.2296 55.748C80.2216 55.804 80.2096 55.852 80.1936 55.892C80.1776 55.924 80.1536 55.952 80.1216 55.976C80.0896 55.992 80.0496 56 80.0016 56ZM80.0059 56V55.148H85.2979L85.0099 55.4V52.424C85.0099 51.904 84.8459 51.516 84.5179 51.26C84.1979 50.996 83.7059 50.864 83.0419 50.864C82.8339 50.864 82.5339 50.884 82.1419 50.924C81.7499 50.956 81.3379 51.004 80.9059 51.068L80.7979 50.3C81.1259 50.22 81.4859 50.152 81.8779 50.096C82.2699 50.032 82.6499 50 83.0179 50C83.6259 50 84.1459 50.096 84.5779 50.288C85.0179 50.472 85.3539 50.744 85.5859 51.104C85.8259 51.464 85.9459 51.904 85.9459 52.424V56H80.0059ZM80.0059 56C79.9579 56 79.9179 55.992 79.8859 55.976C79.8539 55.952 79.8299 55.924 79.8139 55.892C79.7979 55.852 79.7859 55.804 79.7779 55.748C79.7699 55.692 79.7659 55.632 79.7659 55.568C79.7659 55.48 79.7739 55.408 79.7899 55.352C79.7979 55.288 79.8219 55.24 79.8619 55.208C79.8939 55.168 79.9419 55.148 80.0059 55.148V56Z" fill="#2B2B2B"/>
<mask id="mask0_447_12482" style="mask-type:alpha" maskUnits="userSpaceOnUse" x="132" y="16" width="24" height="24">
<rect x="132" y="16" width="24" height="24" fill="#D9D9D9"/>
</mask>
<g mask="url(#mask0_447_12482)">
<path d="M145 27.6V24C145 23.7167 144.904 23.4792 144.713 23.2875C144.521 23.0958 144.283 23 144 23C143.717 23 143.479 23.0958 143.288 23.2875C143.096 23.4792 143 23.7167 143 24V27.975C143 28.1083 143.025 28.2375 143.075 28.3625C143.125 28.4875 143.2 28.6 143.3 28.7L146.6 32C146.783 32.1833 147.017 32.275 147.3 32.275C147.583 32.275 147.817 32.1833 148 32C148.183 31.8167 148.275 31.5833 148.275 31.3C148.275 31.0167 148.183 30.7833 148 30.6L145 27.6ZM144 38C142.617 38 141.317 37.7375 140.1 37.2125C138.883 36.6875 137.825 35.975 136.925 35.075C136.025 34.175 135.312 33.1167 134.788 31.9C134.262 30.6833 134 29.3833 134 28C134 26.6167 134.262 25.3167 134.788 24.1C135.312 22.8833 136.025 21.825 136.925 20.925C137.825 20.025 138.883 19.3125 140.1 18.7875C141.317 18.2625 142.617 18 144 18C145.383 18 146.683 18.2625 147.9 18.7875C149.117 19.3125 150.175 20.025 151.075 20.925C151.975 21.825 152.688 22.8833 153.212 24.1C153.737 25.3167 154 26.6167 154 28C154 29.3833 153.737 30.6833 153.212 31.9C152.688 33.1167 151.975 34.175 151.075 35.075C150.175 35.975 149.117 36.6875 147.9 37.2125C146.683 37.7375 145.383 38 144 38ZM144 36C146.217 36 148.104 35.2208 149.663 33.6625C151.221 32.1042 152 30.2167 152 28C152 25.7833 151.221 23.8958 149.663 22.3375C148.104 20.7792 146.217 20 144 20C141.783 20 139.896 20.7792 138.338 22.3375C136.779 23.8958 136 25.7833 136 28C136 30.2167 136.779 32.1042 138.338 33.6625C139.896 35.2208 141.783 36 144 36Z" fill="#2B2B2B"/>
</g>
<path d="M131.046 58.976C130.582 58.976 130.15 58.908 129.75 58.772C129.35 58.644 128.998 58.46 128.694 58.22C128.398 57.988 128.166 57.708 127.998 57.38C127.83 57.052 127.746 56.692 127.746 56.3C127.746 56.14 127.758 55.928 127.782 55.664C127.814 55.4 127.85 55.104 127.89 54.776C127.938 54.44 127.99 54.1 128.046 53.756L128.97 53.888C128.882 54.424 128.81 54.912 128.754 55.352C128.706 55.792 128.682 56.104 128.682 56.288C128.682 56.648 128.782 56.964 128.982 57.236C129.182 57.516 129.458 57.732 129.81 57.884C130.17 58.044 130.582 58.124 131.046 58.124H134.442C135.05 58.124 135.51 57.956 135.822 57.62C136.142 57.284 136.302 56.792 136.302 56.144V55.748H137.226V56.156C137.226 56.708 137.118 57.196 136.902 57.62C136.686 58.044 136.37 58.376 135.954 58.616C135.546 58.856 135.042 58.976 134.442 58.976H131.046ZM135.606 56C135.334 56 135.058 55.972 134.778 55.916C134.506 55.86 134.234 55.744 133.962 55.568L134.49 54.86C134.602 54.932 134.71 54.992 134.814 55.04C134.918 55.08 135.034 55.108 135.162 55.124C135.29 55.14 135.438 55.148 135.606 55.148H137.874V56H135.606ZM137.874 56V55.148C137.922 55.148 137.962 55.16 137.994 55.184C138.026 55.2 138.05 55.228 138.066 55.268C138.082 55.3 138.094 55.344 138.102 55.4C138.11 55.448 138.114 55.504 138.114 55.568C138.114 55.632 138.11 55.692 138.102 55.748C138.094 55.804 138.082 55.852 138.066 55.892C138.05 55.924 138.026 55.952 137.994 55.976C137.962 55.992 137.922 56 137.874 56ZM131.202 61.16V60.08H132.138V61.16H131.202ZM132.846 61.16V60.08H133.782V61.16H132.846ZM137.871 56V55.148H139.599L139.167 55.496V50H140.103V56H137.871ZM137.871 56C137.823 56 137.783 55.992 137.751 55.976C137.719 55.952 137.695 55.924 137.679 55.892C137.663 55.852 137.651 55.804 137.643 55.748C137.635 55.692 137.631 55.632 137.631 55.568C137.631 55.48 137.639 55.408 137.655 55.352C137.663 55.288 137.687 55.24 137.727 55.208C137.759 55.168 137.807 55.148 137.871 55.148V56ZM138.351 48.92V47.84H139.287V48.92H138.351ZM139.995 48.92V47.84H140.931V48.92H139.995ZM143.146 56V55.148H144.61V56H143.146ZM142.222 56V47.396H143.146V56H142.222ZM144.61 56V55.148C144.658 55.148 144.698 55.16 144.73 55.184C144.762 55.2 144.786 55.228 144.802 55.268C144.818 55.3 144.83 55.344 144.838 55.4C144.846 55.448 144.85 55.504 144.85 55.568C144.85 55.632 144.846 55.692 144.838 55.748C144.83 55.804 144.818 55.852 144.802 55.892C144.786 55.924 144.762 55.952 144.73 55.976C144.698 55.992 144.658 56 144.61 56ZM146.841 56V55.148H148.137V56H146.841ZM144.609 56C144.561 56 144.521 55.992 144.489 55.976C144.457 55.952 144.433 55.924 144.417 55.892C144.401 55.852 144.389 55.804 144.381 55.748C144.373 55.692 144.369 55.632 144.369 55.568C144.369 55.48 144.377 55.408 144.393 55.352C144.401 55.288 144.425 55.24 144.465 55.208C144.497 55.168 144.545 55.148 144.609 55.148V56ZM144.609 56V55.148H146.337L145.905 55.496V50H146.841V56H144.609ZM148.137 56V55.148C148.185 55.148 148.225 55.16 148.257 55.184C148.289 55.2 148.313 55.228 148.329 55.268C148.345 55.3 148.357 55.344 148.365 55.4C148.373 55.448 148.377 55.504 148.377 55.568C148.377 55.632 148.373 55.692 148.365 55.748C148.357 55.804 148.345 55.852 148.329 55.892C148.313 55.924 148.289 55.952 148.257 55.976C148.225 55.992 148.185 56 148.137 56ZM145.905 58.16V57.08H146.841V58.16H145.905ZM150.525 56V55.148H151.821V56H150.525ZM148.137 56C148.089 56 148.049 55.992 148.017 55.976C147.985 55.952 147.961 55.924 147.945 55.892C147.929 55.852 147.917 55.804 147.909 55.748C147.901 55.692 147.897 55.632 147.897 55.568C147.897 55.48 147.905 55.408 147.921 55.352C147.929 55.288 147.953 55.24 147.993 55.208C148.025 55.168 148.073 55.148 148.137 55.148V56ZM149.589 56V47.396H150.525V56H149.589ZM148.137 56V55.148H149.589V56H148.137ZM151.821 56V55.148C151.869 55.148 151.909 55.16 151.941 55.184C151.973 55.2 151.997 55.228 152.013 55.268C152.029 55.3 152.041 55.344 152.049 55.4C152.057 55.448 152.061 55.504 152.061 55.568C152.061 55.632 152.057 55.692 152.049 55.748C152.041 55.804 152.029 55.852 152.013 55.892C151.997 55.924 151.973 55.952 151.941 55.976C151.909 55.992 151.869 56 151.821 56ZM151.816 56V55.148H159.772L158.908 55.928V53.108C158.908 52.604 158.836 52.188 158.692 51.86C158.556 51.524 158.348 51.272 158.068 51.104C157.796 50.936 157.452 50.852 157.036 50.852C156.684 50.852 156.356 50.912 156.052 51.032C155.756 51.144 155.48 51.296 155.224 51.488C154.968 51.672 154.728 51.88 154.504 52.112C154.288 52.336 154.088 52.564 153.904 52.796C153.72 53.028 153.552 53.24 153.4 53.432L153.088 52.58C153.336 52.268 153.588 51.96 153.844 51.656C154.1 51.352 154.38 51.076 154.684 50.828C154.988 50.58 155.332 50.38 155.716 50.228C156.1 50.076 156.54 50 157.036 50C157.604 50 158.068 50.096 158.428 50.288C158.796 50.48 159.08 50.736 159.28 51.056C159.488 51.368 159.632 51.704 159.712 52.064C159.792 52.424 159.832 52.772 159.832 53.108V56H151.816ZM152.608 55.148V47.396H153.544V55.148H152.608ZM151.816 56C151.768 56 151.728 55.992 151.696 55.976C151.664 55.952 151.64 55.924 151.624 55.892C151.608 55.852 151.596 55.804 151.588 55.748C151.58 55.692 151.576 55.632 151.576 55.568C151.576 55.48 151.584 55.408 151.6 55.352C151.608 55.288 151.632 55.24 151.672 55.208C151.704 55.168 151.752 55.148 151.816 55.148V56Z" fill="#2B2B2B"/>
<path d="M230.5 37.0002L226.157 32.6572M226.157 32.6572C226.9 31.9143 227.489 31.0324 227.891 30.0618C228.293 29.0911 228.5 28.0508 228.5 27.0002C228.5 25.9496 228.293 24.9093 227.891 23.9387C227.489 22.968 226.9 22.0861 226.157 21.3432C225.414 20.6003 224.532 20.011 223.562 19.609C222.591 19.2069 221.551 19 220.5 19C219.449 19 218.409 19.2069 217.438 19.609C216.468 20.011 215.586 20.6003 214.843 21.3432C213.343 22.8435 212.5 24.8784 212.5 27.0002C212.5 29.122 213.343 31.1569 214.843 32.6572C216.343 34.1575 218.378 35.0004 220.5 35.0004C222.622 35.0004 224.657 34.1575 226.157 32.6572Z" stroke="#B3914C" stroke-width="2" stroke-linecap="round" stroke-linejoin="round"/>
<path d="M205.095 56C204.303 56 203.643 55.908 203.115 55.724C202.587 55.54 202.191 55.26 201.927 54.884C201.663 54.508 201.531 54.028 201.531 53.444C201.531 53.252 201.543 53.044 201.567 52.82C201.599 52.596 201.635 52.38 201.675 52.172C201.715 51.956 201.751 51.772 201.783 51.62C201.815 51.46 201.835 51.352 201.843 51.296L202.755 51.464C202.731 51.592 202.695 51.768 202.647 51.992C202.607 52.216 202.567 52.456 202.527 52.712C202.487 52.968 202.467 53.212 202.467 53.444C202.467 53.74 202.511 53.996 202.599 54.212C202.695 54.428 202.843 54.608 203.043 54.752C203.251 54.888 203.523 54.988 203.859 55.052C204.195 55.116 204.607 55.148 205.095 55.148H208.623V50H209.559V56H205.095ZM204.267 50.084V49.004H205.203V50.084H204.267ZM205.911 50.084V49.004H206.847V50.084H205.911ZM212.607 56V55.148H214.071V56H212.607ZM211.683 56V47.396H212.607V56H211.683ZM214.071 56V55.148C214.119 55.148 214.159 55.16 214.191 55.184C214.223 55.2 214.247 55.228 214.263 55.268C214.279 55.3 214.291 55.344 214.299 55.4C214.307 55.448 214.311 55.504 214.311 55.568C214.311 55.632 214.307 55.692 214.299 55.748C214.291 55.804 214.279 55.852 214.263 55.892C214.247 55.924 214.223 55.952 214.191 55.976C214.159 55.992 214.119 56 214.071 56ZM214.07 56V55.148H220.634L219.938 55.64V53.06C219.938 52.5 219.874 52.06 219.746 51.74C219.618 51.42 219.398 51.192 219.086 51.056C218.782 50.92 218.366 50.852 217.838 50.852C217.502 50.852 217.166 50.876 216.83 50.924C216.502 50.972 216.246 51.036 216.062 51.116L216.626 50.54C216.578 50.732 216.53 50.976 216.482 51.272C216.434 51.56 216.394 51.872 216.362 52.208C216.33 52.544 216.314 52.88 216.314 53.216C216.314 53.56 216.33 53.896 216.362 54.224C216.394 54.552 216.43 54.836 216.47 55.076C216.51 55.316 216.542 55.484 216.566 55.58L215.678 55.832C215.646 55.728 215.606 55.548 215.558 55.292C215.518 55.036 215.478 54.728 215.438 54.368C215.406 54.008 215.39 53.624 215.39 53.216C215.39 52.824 215.406 52.444 215.438 52.076C215.478 51.7 215.522 51.36 215.57 51.056C215.626 50.752 215.678 50.508 215.726 50.324C215.902 50.252 216.182 50.18 216.566 50.108C216.95 50.036 217.374 50 217.838 50C218.51 50 219.07 50.1 219.518 50.3C219.974 50.5 220.314 50.824 220.538 51.272C220.762 51.712 220.874 52.308 220.874 53.06V56H214.07ZM214.07 56C214.022 56 213.982 55.992 213.95 55.976C213.918 55.952 213.894 55.924 213.878 55.892C213.862 55.852 213.85 55.804 213.842 55.748C213.834 55.692 213.83 55.632 213.83 55.568C213.83 55.48 213.838 55.408 213.854 55.352C213.862 55.288 213.886 55.24 213.926 55.208C213.958 55.168 214.006 55.148 214.07 55.148V56ZM226.894 56V55.148H228.19V56H226.894ZM222.25 56V55.148H226.726L225.958 55.832V53.216C225.958 52.624 225.89 52.156 225.754 51.812C225.618 51.468 225.394 51.224 225.082 51.08C224.778 50.928 224.366 50.852 223.846 50.852H222.874V50H223.846C224.486 50 225.034 50.1 225.49 50.3C225.946 50.5 226.294 50.836 226.534 51.308C226.774 51.772 226.894 52.408 226.894 53.216V56H222.25ZM228.19 56V55.148C228.238 55.148 228.278 55.16 228.31 55.184C228.342 55.2 228.366 55.228 228.382 55.268C228.398 55.3 228.41 55.344 228.418 55.4C228.426 55.448 228.43 55.504 228.43 55.568C228.43 55.632 228.426 55.692 228.418 55.748C228.41 55.804 228.398 55.852 228.382 55.892C228.366 55.924 228.342 55.952 228.31 55.976C228.278 55.992 228.238 56 228.19 56ZM234.131 56V55.148H235.427V56H234.131ZM228.191 56C228.143 56 228.103 55.992 228.071 55.976C228.039 55.952 228.015 55.924 227.999 55.892C227.983 55.852 227.971 55.804 227.963 55.748C227.955 55.692 227.951 55.632 227.951 55.568C227.951 55.48 227.959 55.408 227.975 55.352C227.983 55.288 228.007 55.24 228.047 55.208C228.079 55.168 228.127 55.148 228.191 55.148V56ZM228.191 56V55.148H233.483L233.195 55.4V52.424C233.195 51.904 233.031 51.516 232.703 51.26C232.383 50.996 231.891 50.864 231.227 50.864C231.019 50.864 230.719 50.884 230.327 50.924C229.935 50.956 229.523 51.004 229.091 51.068L228.983 50.3C229.311 50.22 229.671 50.152 230.063 50.096C230.455 50.032 230.835 50 231.203 50C231.811 50 232.331 50.096 232.763 50.288C233.203 50.472 233.539 50.744 233.771 51.104C234.011 51.464 234.131 51.904 234.131 52.424V56H228.191ZM235.427 56V55.148C235.475 55.148 235.515 55.16 235.547 55.184C235.579 55.2 235.603 55.228 235.619 55.268C235.635 55.3 235.647 55.344 235.655 55.4C235.663 55.448 235.667 55.504 235.667 55.568C235.667 55.632 235.663 55.692 235.655 55.748C235.647 55.804 235.635 55.852 235.619 55.892C235.603 55.924 235.579 55.952 235.547 55.976C235.515 55.992 235.475 56 235.427 56ZM230.735 49.172V48.092H231.671V49.172H230.735ZM236.874 56V47.396H237.81V56H236.874ZM235.422 56V55.148H236.874V56H235.422ZM235.422 56C235.374 56 235.334 55.992 235.302 55.976C235.27 55.952 235.246 55.924 235.23 55.892C235.214 55.852 235.202 55.804 235.194 55.748C235.186 55.692 235.182 55.632 235.182 55.568C235.182 55.48 235.19 55.408 235.206 55.352C235.214 55.288 235.238 55.24 235.278 55.208C235.31 55.168 235.358 55.148 235.422 55.148V56ZM239.879 56V47.396H240.803V56H239.879Z" fill="#B3914C"/>
<path fill-rule="evenodd" clip-rule="evenodd" d="M300.386 17.2106C300.747 16.9298 301.253 16.9298 301.614 17.2106L310.614 24.2106C310.858 24.4001 311 24.6914 311 25V36C311 36.7957 310.684 37.5587 310.121 38.1213C309.559 38.6839 308.796 39 308 39H294C293.204 39 292.441 38.6839 291.879 38.1213C291.316 37.5587 291 36.7957 291 36V25C291 24.6914 291.142 24.4001 291.386 24.2106L300.386 17.2106ZM293 25.4891V36C293 36.2652 293.105 36.5196 293.293 36.7071C293.48 36.8946 293.735 37 294 37H308C308.265 37 308.52 36.8946 308.707 36.7071C308.895 36.5196 309 36.2652 309 36V25.4891L301 19.2669L293 25.4891Z" fill="#2B2B2B"/>
<path fill-rule="evenodd" clip-rule="evenodd" d="M297 28C297 27.4477 297.448 27 298 27H304C304.552 27 305 27.4477 305 28V38C305 38.5523 304.552 39 304 39C303.448 39 303 38.5523 303 38V29H299V38C299 38.5523 298.552 39 298 39C297.448 39 297 38.5523 297 38V28Z" fill="#2B2B2B"/>
<path d="M285.336 56C284.64 56 284.096 55.896 283.704 55.688C283.32 55.472 283.048 55.144 282.888 54.704C282.736 54.256 282.66 53.688 282.66 53C282.66 52.312 282.736 51.748 282.888 51.308C283.048 50.86 283.32 50.532 283.704 50.324C284.096 50.108 284.64 50 285.336 50H287.82V55.52H286.884V50.444L287.364 50.852H285.336C284.872 50.852 284.512 50.908 284.256 51.02C284.008 51.132 283.836 51.344 283.74 51.656C283.644 51.96 283.596 52.408 283.596 53C283.596 53.592 283.644 54.044 283.74 54.356C283.836 54.66 284.008 54.868 284.256 54.98C284.512 55.092 284.872 55.148 285.336 55.148H289.116V56H285.336ZM289.116 56V55.148C289.164 55.148 289.204 55.16 289.236 55.184C289.268 55.2 289.292 55.228 289.308 55.268C289.324 55.3 289.336 55.344 289.344 55.4C289.352 55.448 289.356 55.504 289.356 55.568C289.356 55.632 289.352 55.692 289.344 55.748C289.336 55.804 289.324 55.852 289.308 55.892C289.292 55.924 289.268 55.952 289.236 55.976C289.204 55.992 289.164 56 289.116 56ZM284.172 48.92V47.84H285.108V48.92H284.172ZM285.816 48.92V47.84H286.752V48.92H285.816ZM291.349 56V55.148H292.645V56H291.349ZM292.645 56V55.148C292.693 55.148 292.733 55.16 292.765 55.184C292.797 55.2 292.821 55.228 292.837 55.268C292.853 55.3 292.865 55.344 292.873 55.4C292.881 55.448 292.885 55.504 292.885 55.568C292.885 55.632 292.881 55.692 292.873 55.748C292.865 55.804 292.853 55.852 292.837 55.892C292.821 55.924 292.797 55.952 292.765 55.976C292.733 55.992 292.693 56 292.645 56ZM289.117 56C289.069 56 289.029 55.992 288.997 55.976C288.965 55.952 288.941 55.924 288.925 55.892C288.909 55.852 288.897 55.804 288.889 55.748C288.881 55.692 288.877 55.632 288.877 55.568C288.877 55.48 288.885 55.408 288.901 55.352C288.909 55.288 288.933 55.24 288.973 55.208C289.005 55.168 289.053 55.148 289.117 55.148V56ZM289.117 56V55.148H290.845L290.413 55.496V50H291.349V56H289.117ZM289.597 58.16V57.08H290.533V58.16H289.597ZM291.241 58.16V57.08H292.177V58.16H291.241ZM301.669 56V55.148H302.965V56H301.669ZM292.645 56C292.597 56 292.557 55.992 292.525 55.976C292.493 55.952 292.469 55.924 292.453 55.892C292.437 55.852 292.425 55.804 292.417 55.748C292.409 55.692 292.405 55.632 292.405 55.568C292.405 55.48 292.413 55.408 292.429 55.352C292.437 55.288 292.461 55.24 292.501 55.208C292.533 55.168 292.581 55.148 292.645 55.148V56ZM298.957 56C298.685 56 298.417 55.948 298.153 55.844C297.897 55.74 297.649 55.576 297.409 55.352L298.021 54.716C298.205 54.868 298.369 54.98 298.513 55.052C298.657 55.116 298.805 55.148 298.957 55.148H301.093L300.733 55.532V52.664C300.733 52.52 300.717 52.316 300.685 52.052C300.661 51.788 300.621 51.492 300.565 51.164C300.517 50.828 300.457 50.492 300.385 50.156L301.297 50C301.353 50.28 301.409 50.592 301.465 50.936C301.521 51.28 301.569 51.608 301.609 51.92C301.649 52.224 301.669 52.472 301.669 52.664V56H298.957ZM292.645 56V55.148H294.397L294.157 55.388V51.2H295.081V56H292.645ZM295.081 56V55.148H296.437C296.709 55.148 296.913 55.108 297.049 55.028C297.193 54.948 297.293 54.788 297.349 54.548C297.405 54.308 297.433 53.956 297.433 53.492V50.6H298.369V53.492C298.369 54.116 298.301 54.612 298.165 54.98C298.037 55.348 297.833 55.612 297.553 55.772C297.273 55.924 296.901 56 296.437 56H295.081ZM302.965 56V55.148C303.013 55.148 303.053 55.16 303.085 55.184C303.117 55.2 303.141 55.228 303.157 55.268C303.173 55.3 303.185 55.344 303.193 55.4C303.201 55.448 303.205 55.504 303.205 55.568C303.205 55.632 303.201 55.692 303.193 55.748C303.185 55.804 303.173 55.852 303.157 55.892C303.141 55.924 303.117 55.952 303.085 55.976C303.053 55.992 303.013 56 302.965 56ZM305.201 56V55.148H306.497V56H305.201ZM306.497 56V55.148C306.545 55.148 306.585 55.16 306.617 55.184C306.649 55.2 306.673 55.228 306.689 55.268C306.705 55.3 306.717 55.344 306.725 55.4C306.733 55.448 306.737 55.504 306.737 55.568C306.737 55.632 306.733 55.692 306.725 55.748C306.717 55.804 306.705 55.852 306.689 55.892C306.673 55.924 306.649 55.952 306.617 55.976C306.585 55.992 306.545 56 306.497 56ZM302.969 56C302.921 56 302.881 55.992 302.849 55.976C302.817 55.952 302.793 55.924 302.777 55.892C302.761 55.852 302.749 55.804 302.741 55.748C302.733 55.692 302.729 55.632 302.729 55.568C302.729 55.48 302.737 55.408 302.753 55.352C302.761 55.288 302.785 55.24 302.825 55.208C302.857 55.168 302.905 55.148 302.969 55.148V56ZM302.969 56V55.148H304.697L304.265 55.496V50H305.201V56H302.969ZM303.449 58.16V57.08H304.385V58.16H303.449ZM305.093 58.16V57.08H306.029V58.16H305.093ZM306.496 56V55.148H308.224L307.792 55.496V50H308.728V56H306.496ZM306.496 56C306.448 56 306.408 55.992 306.376 55.976C306.344 55.952 306.32 55.924 306.304 55.892C306.288 55.852 306.276 55.804 306.268 55.748C306.26 55.692 306.256 55.632 306.256 55.568C306.256 55.48 306.264 55.408 306.28 55.352C306.288 55.288 306.312 55.24 306.352 55.208C306.384 55.168 306.432 55.148 306.496 55.148V56ZM307.696 48.92C307.568 48.76 307.468 48.604 307.396 48.452C307.332 48.3 307.3 48.14 307.3 47.972C307.3 47.74 307.356 47.532 307.468 47.348C307.588 47.164 307.744 47.02 307.936 46.916C308.128 46.812 308.336 46.76 308.56 46.76C308.688 46.76 308.816 46.78 308.944 46.82C309.072 46.852 309.184 46.9 309.28 46.964L308.968 47.504C308.904 47.464 308.84 47.44 308.776 47.432C308.72 47.416 308.66 47.408 308.596 47.408C308.412 47.408 308.264 47.46 308.152 47.564C308.048 47.668 307.996 47.804 307.996 47.972C307.996 48.076 308.016 48.176 308.056 48.272C308.104 48.368 308.172 48.472 308.26 48.584L307.696 48.92ZM307.072 48.92V48.284H309.436V48.92H307.072ZM311.759 56V55.148H313.295V56H311.759ZM309.803 58.652C309.699 58.652 309.591 58.644 309.479 58.628C309.359 58.62 309.243 58.612 309.131 58.604L309.239 57.752C309.351 57.76 309.455 57.768 309.551 57.776C309.647 57.792 309.731 57.8 309.803 57.8C310.179 57.8 310.483 57.656 310.715 57.368C310.947 57.088 311.063 56.696 311.063 56.192V50H311.999V56.192C311.999 56.68 311.903 57.108 311.711 57.476C311.527 57.852 311.271 58.14 310.943 58.34C310.615 58.548 310.235 58.652 309.803 58.652ZM313.295 56V55.148C313.343 55.148 313.383 55.16 313.415 55.184C313.447 55.2 313.471 55.228 313.487 55.268C313.503 55.3 313.515 55.344 313.523 55.4C313.531 55.448 313.535 55.504 313.535 55.568C313.535 55.632 313.531 55.692 313.523 55.748C313.515 55.804 313.503 55.852 313.487 55.892C313.471 55.924 313.447 55.952 313.415 55.976C313.383 55.992 313.343 56 313.295 56ZM314.745 56V47.396H315.681V56H314.745ZM313.293 56V55.148H314.745V56H313.293ZM313.293 56C313.245 56 313.205 55.992 313.173 55.976C313.141 55.952 313.117 55.924 313.101 55.892C313.085 55.852 313.073 55.804 313.065 55.748C313.057 55.692 313.053 55.632 313.053 55.568C313.053 55.48 313.061 55.408 313.077 55.352C313.085 55.288 313.109 55.24 313.149 55.208C313.181 55.168 313.229 55.148 313.293 55.148V56ZM317.75 56V47.396H318.674V56H317.75Z" fill="#2B2B2B"/>
</g>
<defs>
<filter id="filter0_d_447_12482" x="0" y="0" width="372" height="76" filterUnits="userSpaceOnUse" color-interpolation-filters="sRGB">
<feFlood flood-opacity="0" result="BackgroundImageFix"/>
<feColorMatrix in="SourceAlpha" type="matrix" values="0 0 0 0 0 0 0 0 0 0 0 0 0 0 0 0 0 0 127 0" result="hardAlpha"/>
<feOffset/>
<feGaussianBlur stdDeviation="4"/>
<feComposite in2="hardAlpha" operator="out"/>
<feColorMatrix type="matrix" values="0 0 0 0 0 0 0 0 0 0 0 0 0 0 0 0 0 0 0.08 0"/>
<feBlend mode="normal" in2="BackgroundImageFix" result="effect1_dropShadow_447_12482"/>
<feBlend mode="normal" in="BackgroundImageFix" in2="effect1_dropShadow_447_12482" result="BackgroundImageFix"/>
<feBlend mode="normal" in="SourceGraphic" in2="BackgroundImageFix" result="shape"/>
</filter>
</defs>
</svg>
