<svg width="396" height="128" viewBox="0 0 396 128" fill="none" xmlns="http://www.w3.org/2000/svg">
<g filter="url(#filter0_d_658_18104)">
<rect x="8" y="8" width="380" height="112" rx="16" fill="white" shape-rendering="crispEdges"/>
<rect x="8.5" y="8.5" width="379" height="111" rx="15.5" stroke="#F0E9DB" shape-rendering="crispEdges"/>
<path d="M33.8723 41V40.048L36.5323 37.262C36.9149 36.8607 37.2463 36.5013 37.5263 36.184C37.8063 35.8573 38.0209 35.54 38.1703 35.232C38.3196 34.9147 38.3943 34.5787 38.3943 34.224C38.3943 33.6173 38.2263 33.202 37.8903 32.978C37.5636 32.7447 37.0689 32.628 36.4062 32.628C36.1636 32.628 35.8929 32.6467 35.5943 32.684C35.2956 32.712 35.0063 32.7493 34.7263 32.796C34.4556 32.8333 34.2223 32.8753 34.0263 32.922L33.9423 31.998C34.1383 31.942 34.3809 31.886 34.6703 31.83C34.9596 31.774 35.2723 31.7273 35.6083 31.69C35.9536 31.6433 36.2896 31.62 36.6163 31.62C37.5963 31.62 38.3289 31.816 38.8143 32.208C39.3089 32.6 39.5563 33.23 39.5563 34.098C39.5563 34.5553 39.4816 34.966 39.3323 35.33C39.1923 35.694 38.9776 36.0533 38.6883 36.408C38.4083 36.7533 38.0489 37.1407 37.6103 37.57L35.1883 40.02H39.7803V41H33.8723ZM44.6602 41.14C44.1282 41.14 43.6522 41.0653 43.2322 40.916C42.8216 40.7667 42.4669 40.5193 42.1682 40.174C41.8789 39.8193 41.6549 39.3433 41.4962 38.746C41.3469 38.1487 41.2722 37.4067 41.2722 36.52C41.2722 35.5773 41.3469 34.7887 41.4962 34.154C41.6456 33.5193 41.8649 33.0153 42.1542 32.642C42.4529 32.2687 42.8076 32.0027 43.2182 31.844C43.6382 31.6853 44.1142 31.606 44.6462 31.606C45.1969 31.606 45.6822 31.6853 46.1022 31.844C46.5222 32.0027 46.8722 32.2687 47.1522 32.642C47.4416 33.0153 47.6609 33.5193 47.8102 34.154C47.9596 34.7793 48.0342 35.568 48.0342 36.52C48.0342 37.696 47.8989 38.62 47.6282 39.292C47.3576 39.964 46.9702 40.44 46.4662 40.72C45.9716 41 45.3696 41.14 44.6602 41.14ZM44.6602 40.146C45.0242 40.146 45.3416 40.09 45.6122 39.978C45.8922 39.866 46.1256 39.6747 46.3122 39.404C46.4989 39.1333 46.6389 38.7647 46.7322 38.298C46.8256 37.822 46.8722 37.2293 46.8722 36.52C46.8722 35.7453 46.8256 35.106 46.7322 34.602C46.6482 34.098 46.5129 33.7013 46.3262 33.412C46.1489 33.1133 45.9202 32.9033 45.6402 32.782C45.3696 32.6607 45.0429 32.6 44.6602 32.6C44.2869 32.6 43.9602 32.6607 43.6802 32.782C43.4002 32.9033 43.1669 33.1087 42.9802 33.398C42.8029 33.6873 42.6676 34.0887 42.5742 34.602C42.4809 35.106 42.4342 35.75 42.4342 36.534C42.4342 37.2433 42.4809 37.836 42.5742 38.312C42.6769 38.7787 42.8216 39.1473 43.0082 39.418C43.2042 39.6793 43.4376 39.866 43.7082 39.978C43.9882 40.09 44.3056 40.146 44.6602 40.146ZM49.5402 41V40.048L52.2002 37.262C52.5829 36.8607 52.9142 36.5013 53.1942 36.184C53.4742 35.8573 53.6889 35.54 53.8382 35.232C53.9876 34.9147 54.0622 34.5787 54.0622 34.224C54.0622 33.6173 53.8942 33.202 53.5582 32.978C53.2316 32.7447 52.7369 32.628 52.0742 32.628C51.8316 32.628 51.5609 32.6467 51.2622 32.684C50.9636 32.712 50.6742 32.7493 50.3942 32.796C50.1236 32.8333 49.8902 32.8753 49.6942 32.922L49.6102 31.998C49.8062 31.942 50.0489 31.886 50.3382 31.83C50.6276 31.774 50.9402 31.7273 51.2762 31.69C51.6216 31.6433 51.9576 31.62 52.2842 31.62C53.2642 31.62 53.9969 31.816 54.4822 32.208C54.9769 32.6 55.2242 33.23 55.2242 34.098C55.2242 34.5553 55.1496 34.966 55.0002 35.33C54.8602 35.694 54.6456 36.0533 54.3562 36.408C54.0762 36.7533 53.7169 37.1407 53.2782 37.57L50.8562 40.02H55.4482V41H49.5402ZM60.3562 41.126C60.0109 41.126 59.6469 41.1027 59.2642 41.056C58.8815 41.0093 58.5129 40.958 58.1582 40.902C57.8129 40.8367 57.5235 40.776 57.2902 40.72L57.4162 39.824C57.6495 39.8613 57.9295 39.908 58.2562 39.964C58.5829 40.0107 58.9189 40.0527 59.2642 40.09C59.6189 40.118 59.9455 40.132 60.2442 40.132C60.8789 40.132 61.3782 39.95 61.7422 39.586C62.1155 39.222 62.3022 38.6947 62.3022 38.004C62.3022 37.5373 62.2229 37.1733 62.0642 36.912C61.9055 36.6413 61.6815 36.45 61.3922 36.338C61.1029 36.226 60.7669 36.17 60.3842 36.17C60.1042 36.17 59.8242 36.198 59.5442 36.254C59.2642 36.31 59.0075 36.38 58.7742 36.464C58.5409 36.548 58.3495 36.632 58.2002 36.716L57.4442 36.562L57.6962 31.76H63.0862V32.768H58.6202L58.3682 35.722C58.5269 35.6473 58.7229 35.568 58.9562 35.484C59.1895 35.4 59.4415 35.33 59.7122 35.274C59.9829 35.2087 60.2489 35.176 60.5102 35.176C61.1169 35.176 61.6395 35.2693 62.0782 35.456C62.5169 35.6333 62.8575 35.9227 63.1002 36.324C63.3429 36.716 63.4642 37.2433 63.4642 37.906C63.4642 38.6153 63.3382 39.208 63.0862 39.684C62.8435 40.16 62.4889 40.5193 62.0222 40.762C61.5649 41.0047 61.0095 41.126 60.3562 41.126ZM73.8984 41V40.006H75.4104V41H73.8984ZM70.5804 44.094C70.2537 44.094 69.9037 44.066 69.5304 44.01C69.1664 43.9633 68.765 43.8933 68.3264 43.8L68.4944 42.918C68.989 42.9833 69.3997 43.03 69.7264 43.058C70.0624 43.086 70.347 43.1 70.5804 43.1C71.355 43.1 71.9197 42.9507 72.2744 42.652C72.629 42.3627 72.8064 41.938 72.8064 41.378V34.63L73.3664 34.994H71.0004C70.459 34.994 70.039 35.0593 69.7404 35.19C69.451 35.3207 69.2504 35.568 69.1384 35.932C69.0264 36.2867 68.9704 36.8093 68.9704 37.5C68.9704 38.1907 69.0264 38.718 69.1384 39.082C69.2504 39.4367 69.451 39.6793 69.7404 39.81C70.039 39.9407 70.459 40.006 71.0004 40.006H72.8064V41H71.0004C70.1884 41 69.5537 40.8787 69.0964 40.636C68.6484 40.384 68.331 40.0013 68.1444 39.488C67.967 38.9653 67.8784 38.3027 67.8784 37.5C67.8784 36.6973 67.967 36.0393 68.1444 35.526C68.331 35.0033 68.6484 34.6207 69.0964 34.378C69.5537 34.126 70.1884 34 71.0004 34H73.8984V41.364C73.8984 41.9427 73.763 42.4373 73.4924 42.848C73.231 43.2587 72.853 43.5667 72.3584 43.772C71.8637 43.9867 71.271 44.094 70.5804 44.094ZM75.4104 41V40.006C75.4664 40.006 75.513 40.02 75.5504 40.048C75.5877 40.0667 75.6157 40.0993 75.6344 40.146C75.653 40.1833 75.667 40.2347 75.6764 40.3C75.6857 40.356 75.6904 40.4213 75.6904 40.496C75.6904 40.5707 75.6857 40.6407 75.6764 40.706C75.667 40.7713 75.653 40.8273 75.6344 40.874C75.6157 40.9113 75.5877 40.944 75.5504 40.972C75.513 40.9907 75.4664 41 75.4104 41ZM75.4121 41V40.006H77.4281L76.9241 40.412V34H78.0161V41H75.4121ZM75.4121 41C75.3561 41 75.3094 40.9907 75.2721 40.972C75.2348 40.944 75.2068 40.9113 75.1881 40.874C75.1694 40.8273 75.1554 40.7713 75.1461 40.706C75.1368 40.6407 75.1321 40.5707 75.1321 40.496C75.1321 40.3933 75.1414 40.3093 75.1601 40.244C75.1694 40.1693 75.1974 40.1133 75.2441 40.076C75.2814 40.0293 75.3374 40.006 75.4121 40.006V41ZM75.9721 43.52V42.26H77.0641V43.52H75.9721ZM77.8901 43.52V42.26H78.9821V43.52H77.8901ZM81.5665 41V40.006H83.2745V41H81.5665ZM80.4885 41V30.962H81.5665V41H80.4885ZM83.2745 41V40.006C83.3305 40.006 83.3772 40.02 83.4145 40.048C83.4519 40.0667 83.4799 40.0993 83.4985 40.146C83.5172 40.1833 83.5312 40.2347 83.5405 40.3C83.5499 40.356 83.5545 40.4213 83.5545 40.496C83.5545 40.5707 83.5499 40.6407 83.5405 40.706C83.5312 40.7713 83.5172 40.8273 83.4985 40.874C83.4799 40.9113 83.4519 40.944 83.4145 40.972C83.3772 40.9907 83.3305 41 83.2745 41ZM83.2734 41V40.006H90.9314L90.1194 40.58V37.57C90.1194 36.9167 90.0448 36.4033 89.8954 36.03C89.7461 35.6567 89.4894 35.3907 89.1254 35.232C88.7708 35.0733 88.2854 34.994 87.6694 34.994C87.2774 34.994 86.8854 35.022 86.4934 35.078C86.1108 35.134 85.8121 35.2087 85.5974 35.302L86.2554 34.63C86.1994 34.854 86.1434 35.1387 86.0874 35.484C86.0314 35.82 85.9848 36.184 85.9474 36.576C85.9101 36.968 85.8914 37.36 85.8914 37.752C85.8914 38.1533 85.9101 38.5453 85.9474 38.928C85.9848 39.3107 86.0268 39.642 86.0734 39.922C86.1201 40.202 86.1574 40.398 86.1854 40.51L85.1494 40.804C85.1121 40.6827 85.0654 40.4727 85.0094 40.174C84.9628 39.8753 84.9161 39.516 84.8694 39.096C84.8321 38.676 84.8134 38.228 84.8134 37.752C84.8134 37.2947 84.8321 36.8513 84.8694 36.422C84.9161 35.9833 84.9674 35.5867 85.0234 35.232C85.0888 34.8773 85.1494 34.5927 85.2054 34.378C85.4108 34.294 85.7374 34.21 86.1854 34.126C86.6334 34.042 87.1281 34 87.6694 34C88.4534 34 89.1068 34.1167 89.6294 34.35C90.1614 34.5833 90.5581 34.9613 90.8194 35.484C91.0808 35.9973 91.2114 36.6927 91.2114 37.57V41H83.2734ZM83.2734 41C83.2174 41 83.1708 40.9907 83.1334 40.972C83.0961 40.944 83.0681 40.9113 83.0494 40.874C83.0308 40.8273 83.0168 40.7713 83.0074 40.706C82.9981 40.6407 82.9934 40.5707 82.9934 40.496C82.9934 40.3933 83.0028 40.3093 83.0214 40.244C83.0308 40.1693 83.0588 40.1133 83.1054 40.076C83.1428 40.0293 83.1988 40.006 83.2734 40.006V41ZM99.672 41V33.006L97.32 34.574L96.802 33.72L99.742 31.76H100.792V41H99.672ZM104.132 41V40.048L106.792 37.262C107.175 36.8607 107.506 36.5013 107.786 36.184C108.066 35.8573 108.281 35.54 108.43 35.232C108.579 34.9147 108.654 34.5787 108.654 34.224C108.654 33.6173 108.486 33.202 108.15 32.978C107.823 32.7447 107.329 32.628 106.666 32.628C106.423 32.628 106.153 32.6467 105.854 32.684C105.555 32.712 105.266 32.7493 104.986 32.796C104.715 32.8333 104.482 32.8753 104.286 32.922L104.202 31.998C104.398 31.942 104.641 31.886 104.93 31.83C105.219 31.774 105.532 31.7273 105.868 31.69C106.213 31.6433 106.549 31.62 106.876 31.62C107.856 31.62 108.589 31.816 109.074 32.208C109.569 32.6 109.816 33.23 109.816 34.098C109.816 34.5553 109.741 34.966 109.592 35.33C109.452 35.694 109.237 36.0533 108.948 36.408C108.668 36.7533 108.309 37.1407 107.87 37.57L105.448 40.02H110.04V41H104.132Z" fill="#483A1E" fill-opacity="0.75"/>
<path d="M212.389 45.968C212.251 45.968 212.101 45.9627 211.941 45.952C211.781 45.9413 211.616 45.9253 211.445 45.904L211.525 44.08C211.696 44.0907 211.856 44.1013 212.005 44.112C212.165 44.1227 212.283 44.128 212.357 44.128C212.773 44.128 213.104 43.9627 213.349 43.632C213.605 43.3013 213.733 42.8373 213.733 42.24V33.968H215.877V42.24C215.877 42.9653 215.728 43.6107 215.429 44.176C215.141 44.7413 214.736 45.1787 214.213 45.488C213.691 45.808 213.083 45.968 212.389 45.968ZM220.521 42V40.144H222.345V42H220.521ZM218.393 42V30.688H220.521V42H218.393ZM222.345 42V40.144C222.409 40.144 222.457 40.1653 222.489 40.208C222.532 40.2507 222.564 40.3147 222.585 40.4C222.617 40.4853 222.638 40.5867 222.649 40.704C222.66 40.8107 222.665 40.9333 222.665 41.072C222.665 41.2107 222.66 41.3387 222.649 41.456C222.638 41.5733 222.617 41.6747 222.585 41.76C222.564 41.8347 222.532 41.8933 222.489 41.936C222.457 41.9787 222.409 42 222.345 42ZM222.344 42V40.144H225.736C226.194 40.144 226.637 40.0587 227.064 39.888C227.49 39.7067 227.88 39.472 228.232 39.184C228.594 38.8853 228.909 38.56 229.176 38.208C229.453 37.8453 229.666 37.4773 229.816 37.104C229.976 36.7307 230.056 36.3787 230.056 36.048V35.024L231.08 36.72C230.525 36.4213 229.96 36.1973 229.384 36.048C228.808 35.8987 228.258 35.824 227.736 35.824C227.224 35.824 226.674 35.8987 226.088 36.048C225.512 36.1973 224.952 36.4213 224.408 36.72L225.432 35.024V36.048C225.432 36.3787 225.506 36.7307 225.656 37.104C225.816 37.4773 226.029 37.8453 226.296 38.208C226.562 38.56 226.877 38.8853 227.24 39.184C227.602 39.472 227.997 39.7067 228.424 39.888C228.85 40.0587 229.288 40.144 229.736 40.144H233.032V42H230.408C229.576 42 228.797 41.8667 228.072 41.6C227.346 41.3333 226.69 40.9813 226.104 40.544C225.517 40.096 225.01 39.6107 224.584 39.088C224.168 38.5547 223.848 38.0267 223.624 37.504C223.4 36.9707 223.288 36.4853 223.288 36.048V35.136C223.746 34.88 224.232 34.6667 224.744 34.496C225.266 34.3253 225.784 34.1973 226.296 34.112C226.818 34.016 227.298 33.968 227.736 33.968C228.184 33.968 228.664 34.016 229.176 34.112C229.688 34.1973 230.2 34.3253 230.712 34.496C231.234 34.6667 231.725 34.88 232.184 35.136V36.048C232.184 36.4853 232.072 36.9707 231.848 37.504C231.624 38.0267 231.298 38.5547 230.872 39.088C230.456 39.6107 229.954 40.096 229.368 40.544C228.781 40.9813 228.125 41.3333 227.4 41.6C226.674 41.8667 225.896 42 225.064 42H222.344ZM222.344 42C222.28 42 222.232 41.9787 222.2 41.936C222.157 41.8933 222.125 41.8347 222.104 41.76C222.072 41.6747 222.05 41.5733 222.04 41.456C222.029 41.3387 222.024 41.2107 222.024 41.072C222.024 40.88 222.034 40.72 222.056 40.592C222.077 40.4533 222.114 40.3467 222.168 40.272C222.21 40.1867 222.269 40.144 222.344 40.144V42ZM233.032 42V40.144C233.096 40.144 233.149 40.1653 233.192 40.208C233.234 40.2507 233.266 40.3147 233.288 40.4C233.309 40.4853 233.325 40.5867 233.336 40.704C233.346 40.8107 233.352 40.9333 233.352 41.072C233.352 41.2107 233.346 41.3387 233.336 41.456C233.325 41.5733 233.309 41.6747 233.288 41.76C233.266 41.8347 233.234 41.8933 233.192 41.936C233.149 41.9787 233.096 42 233.032 42ZM242.439 42C242.002 42 241.565 41.92 241.127 41.76C240.701 41.5893 240.306 41.3387 239.943 41.008L241.255 39.648C241.469 39.8187 241.666 39.9467 241.847 40.032C242.039 40.1067 242.237 40.144 242.439 40.144H245.431L244.327 41.152V37.6C244.327 37.4293 244.306 37.1733 244.263 36.832C244.231 36.48 244.178 36.0853 244.103 35.648C244.039 35.2 243.959 34.7467 243.863 34.288L245.975 33.968C246.05 34.352 246.119 34.784 246.183 35.264C246.258 35.7333 246.322 36.1813 246.375 36.608C246.429 37.024 246.455 37.3547 246.455 37.6V42H242.439ZM233.031 42V40.144H235.367L234.887 40.64V35.6H237.031V42H233.031ZM237.031 42V40.144H238.327C238.669 40.144 238.93 40.096 239.111 40C239.293 39.8933 239.415 39.6853 239.479 39.376C239.554 39.056 239.591 38.5813 239.591 37.952V34.8H241.735V37.952C241.735 38.9013 241.613 39.6747 241.367 40.272C241.133 40.8693 240.765 41.3067 240.263 41.584C239.762 41.8613 239.117 42 238.327 42H237.031ZM233.031 42C232.967 42 232.919 41.9787 232.887 41.936C232.845 41.8933 232.813 41.8347 232.791 41.76C232.759 41.6747 232.738 41.5733 232.727 41.456C232.717 41.3387 232.711 41.2107 232.711 41.072C232.711 40.88 232.722 40.72 232.743 40.592C232.765 40.4533 232.802 40.3467 232.855 40.272C232.898 40.1867 232.957 40.144 233.031 40.144V42ZM239.751 30.048V28.448H241.607V30.048H239.751ZM238.199 32.496V30.672H240.263V32.496H238.199ZM241.111 32.496V30.672H243.175V32.496H241.111ZM248.218 42V40.144H256.346L255.322 41.2V30.688H257.466V42H248.218ZM250.442 40.144V32.928H252.57V40.144H250.442ZM250.554 46.784C250.351 46.5387 250.197 46.304 250.09 46.08C249.983 45.856 249.93 45.616 249.93 45.36C249.93 44.9973 250.026 44.6667 250.218 44.368C250.41 44.08 250.661 43.8507 250.97 43.68C251.279 43.52 251.621 43.44 251.994 43.44C252.197 43.44 252.405 43.4667 252.618 43.52C252.831 43.5733 253.013 43.6533 253.162 43.76L252.618 44.736C252.522 44.6827 252.426 44.6453 252.33 44.624C252.245 44.6133 252.154 44.608 252.058 44.608C251.802 44.608 251.605 44.672 251.466 44.8C251.327 44.9387 251.258 45.12 251.258 45.344C251.258 45.472 251.285 45.5947 251.338 45.712C251.391 45.8293 251.471 45.9573 251.578 46.096L250.554 46.784ZM249.578 46.912V45.744H253.45V46.912H249.578ZM260.081 42V30.688H262.209V42H260.081ZM272.613 45.968C271.685 45.968 270.853 45.7973 270.117 45.456C269.391 45.1253 268.821 44.6613 268.405 44.064C267.989 43.4667 267.781 42.7893 267.781 42.032C267.781 41.8187 267.797 41.536 267.829 41.184C267.861 40.832 267.903 40.4373 267.957 40C268.021 39.5627 268.085 39.12 268.149 38.672C268.223 38.2133 268.293 37.7707 268.357 37.344L270.469 37.632C270.351 38.3467 270.25 39.0027 270.165 39.6C270.09 40.1867 270.031 40.688 269.989 41.104C269.946 41.52 269.925 41.824 269.925 42.016C269.925 42.4427 270.031 42.8107 270.245 43.12C270.458 43.4293 270.762 43.6693 271.157 43.84C271.562 44.0213 272.047 44.112 272.613 44.112C273.199 44.112 273.674 44.0267 274.037 43.856C274.399 43.6853 274.661 43.4507 274.821 43.152C274.991 42.8533 275.077 42.5173 275.077 42.144V33.968H277.221V42.144C277.221 42.912 277.018 43.584 276.613 44.16C276.218 44.736 275.674 45.1787 274.981 45.488C274.287 45.808 273.498 45.968 272.613 45.968ZM271.445 33.392V31.568H273.589V33.392H271.445ZM279.768 42V30.688H281.896V42H279.768ZM291.568 42V40.144H293.248V42H291.568ZM287.248 45.968C286.853 45.968 286.437 45.936 286 45.872C285.573 45.8187 285.114 45.744 284.624 45.648L284.944 43.936C285.477 44 285.93 44.048 286.304 44.08C286.677 44.112 286.992 44.128 287.248 44.128C288.016 44.128 288.57 43.9893 288.912 43.712C289.253 43.4347 289.424 43.0187 289.424 42.464V35.44L289.952 35.824H287.952C287.514 35.824 287.162 35.8773 286.896 35.984C286.629 36.08 286.432 36.288 286.304 36.608C286.186 36.9173 286.128 37.392 286.128 38.032C286.128 38.64 286.181 39.0987 286.288 39.408C286.405 39.7067 286.597 39.904 286.864 40C287.13 40.096 287.493 40.144 287.952 40.144H289.424V42H287.952C287.045 42 286.298 41.856 285.712 41.568C285.125 41.28 284.688 40.8427 284.4 40.256C284.122 39.6693 283.984 38.928 283.984 38.032C283.984 37.136 284.122 36.3893 284.4 35.792C284.688 35.184 285.125 34.7307 285.712 34.432C286.298 34.1227 287.045 33.968 287.952 33.968H291.568V42.464C291.568 43.1893 291.386 43.8133 291.024 44.336C290.672 44.8693 290.17 45.2747 289.52 45.552C288.88 45.8293 288.122 45.968 287.248 45.968ZM293.248 42V40.144C293.312 40.144 293.36 40.1653 293.392 40.208C293.434 40.2507 293.466 40.3147 293.488 40.4C293.52 40.4853 293.541 40.5867 293.552 40.704C293.562 40.8107 293.568 40.9333 293.568 41.072C293.568 41.2107 293.562 41.3387 293.552 41.456C293.541 41.5733 293.52 41.6747 293.488 41.76C293.466 41.8347 293.434 41.8933 293.392 41.936C293.36 41.9787 293.312 42 293.248 42ZM297.074 42V40.144H298.754V42H297.074ZM293.25 42C293.186 42 293.138 41.9787 293.106 41.936C293.063 41.8933 293.031 41.8347 293.01 41.76C292.978 41.6747 292.957 41.5733 292.946 41.456C292.935 41.3387 292.93 41.2107 292.93 41.072C292.93 40.88 292.941 40.72 292.962 40.592C292.983 40.4533 293.021 40.3467 293.074 40.272C293.117 40.1867 293.175 40.144 293.25 40.144V42ZM293.25 42V40.144H296.178L294.93 41.184V33.968H297.074V42H293.25ZM298.754 42V40.144C298.818 40.144 298.871 40.1653 298.914 40.208C298.957 40.2507 298.989 40.3147 299.01 40.4C299.031 40.4853 299.047 40.5867 299.058 40.704C299.069 40.8107 299.074 40.9333 299.074 41.072C299.074 41.2107 299.069 41.3387 299.058 41.456C299.047 41.5733 299.031 41.6747 299.01 41.76C298.989 41.8347 298.957 41.8933 298.914 41.936C298.871 41.9787 298.818 42 298.754 42ZM294.93 32.496V30.672H297.074V32.496H294.93ZM301.758 41.744C301.214 41.232 300.803 40.688 300.526 40.112C300.259 39.536 300.126 38.9227 300.126 38.272C300.126 37.6427 300.243 37.0667 300.478 36.544C300.713 36.0107 301.033 35.552 301.438 35.168C301.843 34.784 302.313 34.4907 302.846 34.288C303.39 34.0747 303.961 33.968 304.558 33.968C304.878 33.968 305.214 34 305.566 34.064C305.918 34.128 306.254 34.2133 306.574 34.32L305.934 36.064C305.71 35.9893 305.486 35.9307 305.262 35.888C305.049 35.8453 304.841 35.824 304.638 35.824C304.169 35.824 303.753 35.9307 303.39 36.144C303.027 36.3467 302.745 36.6293 302.542 36.992C302.35 37.3547 302.254 37.7707 302.254 38.24C302.254 38.6667 302.339 39.0667 302.51 39.44C302.691 39.8133 302.947 40.1493 303.278 40.448L301.758 41.744ZM298.75 42V40.144H306.718V42H298.75ZM298.75 42C298.686 42 298.638 41.9787 298.606 41.936C298.563 41.8933 298.531 41.8347 298.51 41.76C298.478 41.6747 298.457 41.5733 298.446 41.456C298.435 41.3387 298.43 41.2107 298.43 41.072C298.43 40.88 298.441 40.72 298.462 40.592C298.483 40.4533 298.521 40.3467 298.574 40.272C298.617 40.1867 298.675 40.144 298.75 40.144V42Z" fill="#483A1E"/>
<path d="M62.283 82.472C61.7417 82.472 61.2377 82.3927 60.771 82.234C60.3044 82.0847 59.8937 81.87 59.539 81.59C59.1937 81.3193 58.923 80.9927 58.727 80.61C58.531 80.2273 58.433 79.8073 58.433 79.35C58.433 79.1633 58.447 78.916 58.475 78.608C58.5124 78.3 58.5544 77.9547 58.601 77.572C58.657 77.18 58.7177 76.7833 58.783 76.382L59.861 76.536C59.7584 77.1613 59.6744 77.7307 59.609 78.244C59.553 78.7573 59.525 79.1213 59.525 79.336C59.525 79.756 59.6417 80.1247 59.875 80.442C60.1084 80.7687 60.4304 81.0207 60.841 81.198C61.261 81.3847 61.7417 81.478 62.283 81.478H66.245C66.9544 81.478 67.491 81.282 67.855 80.89C68.2284 80.5073 68.415 79.9193 68.415 79.126C68.415 78.7433 68.3544 78.4447 68.233 78.23C68.121 78.006 67.9157 77.8193 67.617 77.67C67.3277 77.5207 66.9124 77.3667 66.371 77.208C65.895 77.068 65.4657 76.9327 65.083 76.802C64.7004 76.6713 64.3737 76.5173 64.103 76.34C63.8324 76.1627 63.6224 75.934 63.473 75.654C63.333 75.374 63.263 75.01 63.263 74.562C63.263 73.9833 63.3797 73.5073 63.613 73.134C63.8557 72.7513 64.201 72.4667 64.649 72.28C65.097 72.0933 65.6384 72 66.273 72C66.5904 72 66.9544 72.0233 67.365 72.07C67.7757 72.1167 68.3497 72.2007 69.087 72.322L68.961 73.232C68.3077 73.1573 67.7617 73.1013 67.323 73.064C66.8844 73.0173 66.5204 72.994 66.231 72.994C65.8017 72.994 65.447 73.05 65.167 73.162C64.887 73.2647 64.677 73.428 64.537 73.652C64.4064 73.8667 64.341 74.1513 64.341 74.506C64.341 74.7953 64.3877 75.0287 64.481 75.206C64.5744 75.3833 64.719 75.5327 64.915 75.654C65.111 75.766 65.3537 75.8687 65.643 75.962C65.9324 76.046 66.273 76.144 66.665 76.256C67.1037 76.3773 67.4957 76.5127 67.841 76.662C68.1864 76.802 68.4804 76.9793 68.723 77.194C68.975 77.3993 69.1664 77.6653 69.297 77.992C69.4277 78.3093 69.493 78.706 69.493 79.182C69.493 79.826 69.367 80.3953 69.115 80.89C68.863 81.3847 68.4944 81.772 68.009 82.052C67.533 82.332 66.945 82.472 66.245 82.472H62.283ZM62.465 85.02V83.76H63.557V85.02H62.465ZM64.383 85.02V83.76H65.475V85.02H64.383ZM76.4018 79V78.006H77.9138V79H76.4018ZM70.9838 79V78.006H76.2058L75.3098 78.804V75.752C75.3098 75.0613 75.2305 74.5153 75.0718 74.114C74.9132 73.7127 74.6518 73.428 74.2878 73.26C73.9332 73.0827 73.4525 72.994 72.8458 72.994H71.7118V72H72.8458C73.5925 72 74.2318 72.1167 74.7638 72.35C75.2958 72.5833 75.7018 72.9753 75.9818 73.526C76.2618 74.0673 76.4018 74.8093 76.4018 75.752V79H70.9838ZM77.9138 79V78.006C77.9698 78.006 78.0165 78.02 78.0538 78.048C78.0912 78.0667 78.1192 78.0993 78.1378 78.146C78.1565 78.1833 78.1705 78.2347 78.1798 78.3C78.1892 78.356 78.1938 78.4213 78.1938 78.496C78.1938 78.5707 78.1892 78.6407 78.1798 78.706C78.1705 78.7713 78.1565 78.8273 78.1378 78.874C78.1192 78.9113 78.0912 78.944 78.0538 78.972C78.0165 78.9907 77.9698 79 77.9138 79ZM72.0478 70.74V69.48H73.1398V70.74H72.0478ZM79.61 79V68.962H80.702V79H79.61ZM77.916 79V78.006H79.61V79H77.916ZM77.916 79C77.86 79 77.8133 78.9907 77.776 78.972C77.7387 78.944 77.7107 78.9113 77.692 78.874C77.6733 78.8273 77.6593 78.7713 77.65 78.706C77.6407 78.6407 77.636 78.5707 77.636 78.496C77.636 78.3933 77.6453 78.3093 77.664 78.244C77.6733 78.1693 77.7013 78.1133 77.748 78.076C77.7853 78.0293 77.8413 78.006 77.916 78.006V79ZM83.1155 79V68.962H84.1935V79H83.1155ZM92.2894 79C91.4774 79 90.8428 78.8787 90.3854 78.636C89.9374 78.384 89.6201 78.0013 89.4334 77.488C89.2561 76.9653 89.1674 76.3027 89.1674 75.5C89.1674 74.6973 89.2561 74.0393 89.4334 73.526C89.6201 73.0033 89.9374 72.6207 90.3854 72.378C90.8428 72.126 91.4774 72 92.2894 72H95.1874V78.44H94.0954V72.518L94.6554 72.994H92.2894C91.7481 72.994 91.3281 73.0593 91.0294 73.19C90.7401 73.3207 90.5394 73.568 90.4274 73.932C90.3154 74.2867 90.2594 74.8093 90.2594 75.5C90.2594 76.1907 90.3154 76.718 90.4274 77.082C90.5394 77.4367 90.7401 77.6793 91.0294 77.81C91.3281 77.9407 91.7481 78.006 92.2894 78.006H96.6994V79H92.2894ZM96.6994 79V78.006C96.7554 78.006 96.8021 78.02 96.8394 78.048C96.8768 78.0667 96.9048 78.0993 96.9234 78.146C96.9421 78.1833 96.9561 78.2347 96.9654 78.3C96.9748 78.356 96.9794 78.4213 96.9794 78.496C96.9794 78.5707 96.9748 78.6407 96.9654 78.706C96.9561 78.7713 96.9421 78.8273 96.9234 78.874C96.9048 78.9113 96.8768 78.944 96.8394 78.972C96.8021 78.9907 96.7554 79 96.6994 79ZM90.9314 70.74V69.48H92.0234V70.74H90.9314ZM92.8494 70.74V69.48H93.9414V70.74H92.8494ZM98.3952 79V68.962H99.4872V79H98.3952ZM96.7012 79V78.006H98.3952V79H96.7012ZM96.7012 79C96.6452 79 96.5985 78.9907 96.5612 78.972C96.5238 78.944 96.4958 78.9113 96.4772 78.874C96.4585 78.8273 96.4445 78.7713 96.4352 78.706C96.4258 78.6407 96.4212 78.5707 96.4212 78.496C96.4212 78.3933 96.4305 78.3093 96.4492 78.244C96.4585 78.1693 96.4865 78.1133 96.5332 78.076C96.5705 78.0293 96.6265 78.006 96.7012 78.006V79ZM102.979 79V78.006H104.687V79H102.979ZM101.901 79V68.962H102.979V79H101.901ZM104.687 79V78.006C104.743 78.006 104.789 78.02 104.827 78.048C104.864 78.0667 104.892 78.0993 104.911 78.146C104.929 78.1833 104.943 78.2347 104.953 78.3C104.962 78.356 104.967 78.4213 104.967 78.496C104.967 78.5707 104.962 78.6407 104.953 78.706C104.943 78.7713 104.929 78.8273 104.911 78.874C104.892 78.9113 104.864 78.944 104.827 78.972C104.789 78.9907 104.743 79 104.687 79ZM112.05 79C111.732 79 111.42 78.9393 111.112 78.818C110.813 78.6967 110.524 78.5053 110.244 78.244L110.958 77.502C111.172 77.6793 111.364 77.81 111.532 77.894C111.7 77.9687 111.872 78.006 112.05 78.006H114.542L114.122 78.454V75.108C114.122 74.94 114.103 74.702 114.066 74.394C114.038 74.086 113.991 73.7407 113.926 73.358C113.87 72.966 113.8 72.574 113.716 72.182L114.78 72C114.845 72.3267 114.91 72.6907 114.976 73.092C115.041 73.4933 115.097 73.876 115.144 74.24C115.19 74.5947 115.214 74.884 115.214 75.108V79H112.05ZM104.686 79V78.006H106.73L106.45 78.286V73.4H107.528V79H104.686ZM107.528 79V78.006H109.11C109.427 78.006 109.665 77.9593 109.824 77.866C109.992 77.7727 110.108 77.586 110.174 77.306C110.239 77.026 110.272 76.6153 110.272 76.074V72.7H111.364V76.074C111.364 76.802 111.284 77.3807 111.126 77.81C110.976 78.2393 110.738 78.5473 110.412 78.734C110.085 78.9113 109.651 79 109.11 79H107.528ZM104.686 79C104.63 79 104.583 78.9907 104.546 78.972C104.508 78.944 104.48 78.9113 104.462 78.874C104.443 78.8273 104.429 78.7713 104.42 78.706C104.41 78.6407 104.406 78.5707 104.406 78.496C104.406 78.3933 104.415 78.3093 104.434 78.244C104.443 78.1693 104.471 78.1133 104.518 78.076C104.555 78.0293 104.611 78.006 104.686 78.006V79ZM118.674 79V78.006H120.466V79H118.674ZM116.392 82.094C116.27 82.094 116.144 82.0847 116.014 82.066C115.874 82.0567 115.738 82.0473 115.608 82.038L115.734 81.044C115.864 81.0533 115.986 81.0627 116.098 81.072C116.21 81.0907 116.308 81.1 116.392 81.1C116.83 81.1 117.185 80.932 117.456 80.596C117.726 80.2693 117.862 79.812 117.862 79.224V72H118.954V79.224C118.954 79.7933 118.842 80.2927 118.618 80.722C118.403 81.1607 118.104 81.4967 117.722 81.73C117.339 81.9727 116.896 82.094 116.392 82.094ZM120.466 79V78.006C120.522 78.006 120.568 78.02 120.606 78.048C120.643 78.0667 120.671 78.0993 120.69 78.146C120.708 78.1833 120.722 78.2347 120.732 78.3C120.741 78.356 120.746 78.4213 120.746 78.496C120.746 78.5707 120.741 78.6407 120.732 78.706C120.722 78.7713 120.708 78.8273 120.69 78.874C120.671 78.9113 120.643 78.944 120.606 78.972C120.568 78.9907 120.522 79 120.466 79ZM122.157 79V68.962H123.249V79H122.157ZM120.463 79V78.006H122.157V79H120.463ZM120.463 79C120.407 79 120.36 78.9907 120.323 78.972C120.286 78.944 120.258 78.9113 120.239 78.874C120.22 78.8273 120.206 78.7713 120.197 78.706C120.188 78.6407 120.183 78.5707 120.183 78.496C120.183 78.3933 120.192 78.3093 120.211 78.244C120.22 78.1693 120.248 78.1133 120.295 78.076C120.332 78.0293 120.388 78.006 120.463 78.006V79ZM125.662 79V68.962H126.74V79H125.662ZM146.764 79V78.006H148.29V79H146.764ZM135.648 82.472C134.911 82.472 134.244 82.3367 133.646 82.066C133.049 81.7953 132.578 81.4173 132.232 80.932C131.887 80.4467 131.714 79.8913 131.714 79.266C131.714 79.07 131.728 78.8133 131.756 78.496C131.794 78.1693 131.836 77.81 131.882 77.418C131.938 77.0167 131.999 76.6153 132.064 76.214C132.13 75.8033 132.19 75.416 132.246 75.052L133.324 75.22C133.222 75.864 133.128 76.4613 133.044 77.012C132.97 77.5533 132.909 78.02 132.862 78.412C132.825 78.7947 132.806 79.0793 132.806 79.266C132.806 79.6953 132.923 80.0733 133.156 80.4C133.399 80.736 133.735 80.9973 134.164 81.184C134.594 81.38 135.088 81.478 135.648 81.478C136.208 81.478 136.689 81.3893 137.09 81.212C137.492 81.0347 137.8 80.7873 138.014 80.47C138.229 80.1527 138.336 79.7793 138.336 79.35V72H139.428V79.35C139.428 80.0033 139.256 80.5633 138.91 81.03C138.574 81.4967 138.122 81.8513 137.552 82.094C136.983 82.346 136.348 82.472 135.648 82.472ZM139.428 79V78.006H146.694L145.686 78.916V75.626C145.686 75.038 145.602 74.5527 145.434 74.17C145.276 73.778 145.033 73.484 144.706 73.288C144.389 73.092 143.988 72.994 143.502 72.994C143.092 72.994 142.709 73.064 142.354 73.204C142.009 73.3347 141.687 73.512 141.388 73.736C141.09 73.9507 140.81 74.1933 140.548 74.464C140.296 74.7253 140.063 74.9913 139.848 75.262C139.634 75.5327 139.438 75.78 139.26 76.004L138.896 75.01C139.13 74.7207 139.363 74.4313 139.596 74.142C139.839 73.8527 140.091 73.582 140.352 73.33C140.614 73.0687 140.898 72.84 141.206 72.644C141.524 72.448 141.869 72.294 142.242 72.182C142.616 72.0607 143.036 72 143.502 72C144.165 72 144.706 72.112 145.126 72.336C145.556 72.56 145.887 72.8587 146.12 73.232C146.363 73.596 146.531 73.988 146.624 74.408C146.718 74.828 146.764 75.234 146.764 75.626V79H139.428ZM148.29 79V78.006C148.346 78.006 148.393 78.02 148.43 78.048C148.468 78.0667 148.496 78.0993 148.514 78.146C148.533 78.1833 148.547 78.2347 148.556 78.3C148.566 78.356 148.57 78.4213 148.57 78.496C148.57 78.5707 148.566 78.6407 148.556 78.706C148.547 78.7713 148.533 78.8273 148.514 78.874C148.496 78.9113 148.468 78.944 148.43 78.972C148.393 78.9907 148.346 79 148.29 79ZM148.285 79V78.006H150.301L149.797 78.412V72H150.889V79H148.285ZM148.285 79C148.229 79 148.182 78.9907 148.145 78.972C148.108 78.944 148.08 78.9113 148.061 78.874C148.042 78.8273 148.028 78.7713 148.019 78.706C148.01 78.6407 148.005 78.5707 148.005 78.496C148.005 78.3933 148.014 78.3093 148.033 78.244C148.042 78.1693 148.07 78.1133 148.117 78.076C148.154 78.0293 148.21 78.006 148.285 78.006V79ZM149.797 70.74V69.48H150.889V70.74H149.797ZM158.776 79C157.964 79 157.329 78.8787 156.872 78.636C156.424 78.384 156.106 78.0013 155.92 77.488C155.742 76.9653 155.654 76.3027 155.654 75.5C155.654 74.6973 155.742 74.0393 155.92 73.526C156.106 73.0033 156.424 72.6207 156.872 72.378C157.329 72.126 157.964 72 158.776 72H161.674V78.44H160.582V72.518L161.142 72.994H158.776C158.234 72.994 157.814 73.0593 157.516 73.19C157.226 73.3207 157.026 73.568 156.914 73.932C156.802 74.2867 156.746 74.8093 156.746 75.5C156.746 76.1907 156.802 76.718 156.914 77.082C157.026 77.4367 157.226 77.6793 157.516 77.81C157.814 77.9407 158.234 78.006 158.776 78.006H163.186V79H158.776ZM163.186 79V78.006C163.242 78.006 163.288 78.02 163.326 78.048C163.363 78.0667 163.391 78.0993 163.41 78.146C163.428 78.1833 163.442 78.2347 163.452 78.3C163.461 78.356 163.466 78.4213 163.466 78.496C163.466 78.5707 163.461 78.6407 163.452 78.706C163.442 78.7713 163.428 78.8273 163.41 78.874C163.391 78.9113 163.363 78.944 163.326 78.972C163.288 78.9907 163.242 79 163.186 79ZM165.792 79V78.006H167.303V79H165.792ZM167.303 79V78.006C167.36 78.006 167.406 78.02 167.444 78.048C167.481 78.0667 167.509 78.0993 167.528 78.146C167.546 78.1833 167.56 78.2347 167.57 78.3C167.579 78.356 167.584 78.4213 167.584 78.496C167.584 78.5707 167.579 78.6407 167.57 78.706C167.56 78.7713 167.546 78.8273 167.528 78.874C167.509 78.9113 167.481 78.944 167.444 78.972C167.406 78.9907 167.36 79 167.303 79ZM163.188 79C163.131 79 163.085 78.9907 163.047 78.972C163.01 78.944 162.982 78.9113 162.963 78.874C162.945 78.8273 162.931 78.7713 162.921 78.706C162.912 78.6407 162.907 78.5707 162.907 78.496C162.907 78.3933 162.917 78.3093 162.935 78.244C162.945 78.1693 162.973 78.1133 163.019 78.076C163.057 78.0293 163.113 78.006 163.188 78.006V79ZM163.188 79V78.006H165.204L164.7 78.412V72H165.792V79H163.188ZM163.748 81.52V80.26H164.84V81.52H163.748ZM165.666 81.52V80.26H166.758V81.52H165.666ZM170.089 79V78.006H171.601V79H170.089ZM167.303 79C167.247 79 167.2 78.9907 167.163 78.972C167.125 78.944 167.097 78.9113 167.079 78.874C167.06 78.8273 167.046 78.7713 167.037 78.706C167.027 78.6407 167.023 78.5707 167.023 78.496C167.023 78.3933 167.032 78.3093 167.051 78.244C167.06 78.1693 167.088 78.1133 167.135 78.076C167.172 78.0293 167.228 78.006 167.303 78.006V79ZM168.997 79V68.962H170.089V79H168.997ZM167.303 79V78.006H168.997V79H167.303ZM171.601 79V78.006C171.657 78.006 171.703 78.02 171.741 78.048C171.778 78.0667 171.806 78.0993 171.825 78.146C171.843 78.1833 171.857 78.2347 171.867 78.3C171.876 78.356 171.881 78.4213 171.881 78.496C171.881 78.5707 171.876 78.6407 171.867 78.706C171.857 78.7713 171.843 78.8273 171.825 78.874C171.806 78.9113 171.778 78.944 171.741 78.972C171.703 78.9907 171.657 79 171.601 79ZM174.634 78.958C174.13 78.5287 173.742 78.0387 173.472 77.488C173.21 76.928 173.08 76.3353 173.08 75.71C173.08 75.178 173.173 74.688 173.36 74.24C173.546 73.7827 173.803 73.386 174.13 73.05C174.456 72.714 174.844 72.4573 175.292 72.28C175.74 72.0933 176.22 72 176.734 72C177.004 72 177.294 72.028 177.602 72.084C177.919 72.14 178.222 72.2193 178.512 72.322L178.134 73.26C177.9 73.176 177.662 73.1107 177.42 73.064C177.186 73.0173 176.962 72.994 176.748 72.994C176.253 72.994 175.81 73.1107 175.418 73.344C175.026 73.5773 174.718 73.8993 174.494 74.31C174.279 74.7113 174.172 75.178 174.172 75.71C174.172 76.1953 174.27 76.6527 174.466 77.082C174.671 77.502 174.965 77.8753 175.348 78.202L174.634 78.958ZM171.596 79V78.006H178.68V79H171.596ZM171.596 79C171.54 79 171.493 78.9907 171.456 78.972C171.418 78.944 171.39 78.9113 171.372 78.874C171.353 78.8273 171.339 78.7713 171.33 78.706C171.32 78.6407 171.316 78.5707 171.316 78.496C171.316 78.3933 171.325 78.3093 171.344 78.244C171.353 78.1693 171.381 78.1133 171.428 78.076C171.465 78.0293 171.521 78.006 171.596 78.006V79ZM187.451 82.472C186.714 82.472 186.046 82.3367 185.449 82.066C184.852 81.7953 184.38 81.4173 184.035 80.932C183.69 80.4467 183.517 79.8913 183.517 79.266C183.517 79.07 183.531 78.8133 183.559 78.496C183.596 78.1693 183.638 77.81 183.685 77.418C183.741 77.0167 183.802 76.6153 183.867 76.214C183.932 75.8033 183.993 75.416 184.049 75.052L185.127 75.22C185.024 75.864 184.931 76.4613 184.847 77.012C184.772 77.5533 184.712 78.02 184.665 78.412C184.628 78.7947 184.609 79.0793 184.609 79.266C184.609 79.6953 184.726 80.0733 184.959 80.4C185.202 80.736 185.538 80.9973 185.967 81.184C186.396 81.38 186.891 81.478 187.451 81.478C188.011 81.478 188.492 81.3893 188.893 81.212C189.294 81.0347 189.602 80.7873 189.817 80.47C190.032 80.1527 190.139 79.7793 190.139 79.35V72H191.231V79.35C191.231 80.0033 191.058 80.5633 190.713 81.03C190.377 81.4967 189.924 81.8513 189.355 82.094C188.786 82.346 188.151 82.472 187.451 82.472ZM186.849 72V70.74H187.941V72H186.849ZM198.861 79V78.006H200.373V79H198.861ZM195.543 82.094C195.217 82.094 194.867 82.066 194.493 82.01C194.129 81.9633 193.728 81.8933 193.289 81.8L193.457 80.918C193.952 80.9833 194.363 81.03 194.689 81.058C195.025 81.086 195.31 81.1 195.543 81.1C196.318 81.1 196.883 80.9507 197.237 80.652C197.592 80.3627 197.769 79.938 197.769 79.378V72.63L198.329 72.994H195.963C195.422 72.994 195.002 73.0593 194.703 73.19C194.414 73.3207 194.213 73.568 194.101 73.932C193.989 74.2867 193.933 74.8093 193.933 75.5C193.933 76.1907 193.989 76.718 194.101 77.082C194.213 77.4367 194.414 77.6793 194.703 77.81C195.002 77.9407 195.422 78.006 195.963 78.006H197.769V79H195.963C195.151 79 194.517 78.8787 194.059 78.636C193.611 78.384 193.294 78.0013 193.107 77.488C192.93 76.9653 192.841 76.3027 192.841 75.5C192.841 74.6973 192.93 74.0393 193.107 73.526C193.294 73.0033 193.611 72.6207 194.059 72.378C194.517 72.126 195.151 72 195.963 72H198.861V79.364C198.861 79.9427 198.726 80.4373 198.455 80.848C198.194 81.2587 197.816 81.5667 197.321 81.772C196.827 81.9867 196.234 82.094 195.543 82.094ZM200.373 79V78.006C200.429 78.006 200.476 78.02 200.513 78.048C200.551 78.0667 200.579 78.0993 200.597 78.146C200.616 78.1833 200.63 78.2347 200.639 78.3C200.649 78.356 200.653 78.4213 200.653 78.496C200.653 78.5707 200.649 78.6407 200.639 78.706C200.63 78.7713 200.616 78.8273 200.597 78.874C200.579 78.9113 200.551 78.944 200.513 78.972C200.476 78.9907 200.429 79 200.373 79ZM208.075 79V78.006H209.587V79H208.075ZM200.375 79C200.319 79 200.272 78.9907 200.235 78.972C200.198 78.944 200.17 78.9113 200.151 78.874C200.132 78.8273 200.118 78.7713 200.109 78.706C200.1 78.6407 200.095 78.5707 200.095 78.496C200.095 78.3933 200.104 78.3093 200.123 78.244C200.132 78.1693 200.16 78.1133 200.207 78.076C200.244 78.0293 200.3 78.006 200.375 78.006V79ZM200.375 79V78.006H207.375L206.983 78.356V75.864C206.983 75.36 206.913 74.9447 206.773 74.618C206.642 74.282 206.442 74.0347 206.171 73.876C205.91 73.708 205.578 73.624 205.177 73.624H202.125L201.327 72.42L201.929 71.258C202.041 71.0527 202.158 70.8427 202.279 70.628C202.4 70.4133 202.55 70.166 202.727 69.886C202.904 69.606 203.128 69.2653 203.399 68.864L204.309 69.41C204.038 69.8207 203.819 70.1613 203.651 70.432C203.483 70.7027 203.338 70.936 203.217 71.132C203.105 71.328 202.998 71.524 202.895 71.72L202.195 73.064L201.915 72.63H205.177C205.765 72.63 206.246 72.7327 206.619 72.938C207.002 73.134 207.296 73.3953 207.501 73.722C207.716 74.0487 207.865 74.4033 207.949 74.786C208.033 75.1593 208.075 75.5187 208.075 75.864V79H200.375ZM209.587 79V78.006C209.643 78.006 209.69 78.02 209.727 78.048C209.764 78.0667 209.792 78.0993 209.811 78.146C209.83 78.1833 209.844 78.2347 209.853 78.3C209.862 78.356 209.867 78.4213 209.867 78.496C209.867 78.5707 209.862 78.6407 209.853 78.706C209.844 78.7713 209.83 78.8273 209.811 78.874C209.792 78.9113 209.764 78.944 209.727 78.972C209.69 78.9907 209.643 79 209.587 79ZM209.59 79V78.006H211.606L211.102 78.412V72H212.194V79H209.59ZM209.59 79C209.534 79 209.487 78.9907 209.45 78.972C209.413 78.944 209.385 78.9113 209.366 78.874C209.347 78.8273 209.333 78.7713 209.324 78.706C209.315 78.6407 209.31 78.5707 209.31 78.496C209.31 78.3933 209.319 78.3093 209.338 78.244C209.347 78.1693 209.375 78.1133 209.422 78.076C209.459 78.0293 209.515 78.006 209.59 78.006V79ZM210.15 81.52V80.26H211.242V81.52H210.15ZM212.068 81.52V80.26H213.16V81.52H212.068ZM222.376 79V78.006H223.888V79H222.376ZM216.958 79V78.006H222.18L221.284 78.804V75.752C221.284 75.0613 221.205 74.5153 221.046 74.114C220.888 73.7127 220.626 73.428 220.262 73.26C219.908 73.0827 219.427 72.994 218.82 72.994H217.686V72H218.82C219.567 72 220.206 72.1167 220.738 72.35C221.27 72.5833 221.676 72.9753 221.956 73.526C222.236 74.0673 222.376 74.8093 222.376 75.752V79H216.958ZM223.888 79V78.006C223.944 78.006 223.991 78.02 224.028 78.048C224.066 78.0667 224.094 78.0993 224.112 78.146C224.131 78.1833 224.145 78.2347 224.154 78.3C224.164 78.356 224.168 78.4213 224.168 78.496C224.168 78.5707 224.164 78.6407 224.154 78.706C224.145 78.7713 224.131 78.8273 224.112 78.874C224.094 78.9113 224.066 78.944 224.028 78.972C223.991 78.9907 223.944 79 223.888 79ZM223.891 79V78.006H230.961L230.233 78.636V72.518L230.807 72.994H228.427C227.885 72.994 227.465 73.0593 227.167 73.19C226.877 73.3207 226.677 73.568 226.565 73.932C226.453 74.2867 226.397 74.8093 226.397 75.5C226.397 76.1907 226.453 76.718 226.565 77.082C226.677 77.4367 226.877 77.6793 227.167 77.81C227.465 77.9407 227.885 78.006 228.427 78.006V78.72C227.615 78.72 226.98 78.622 226.523 78.426C226.075 78.2207 225.757 77.8847 225.571 77.418C225.393 76.942 225.305 76.3027 225.305 75.5C225.305 74.6973 225.393 74.0393 225.571 73.526C225.757 73.0033 226.075 72.6207 226.523 72.378C226.98 72.126 227.615 72 228.427 72H231.325V79H223.891ZM223.891 79C223.835 79 223.788 78.9907 223.751 78.972C223.713 78.944 223.685 78.9113 223.667 78.874C223.648 78.8273 223.634 78.7713 223.625 78.706C223.615 78.6407 223.611 78.5707 223.611 78.496C223.611 78.3933 223.62 78.3093 223.639 78.244C223.648 78.1693 223.676 78.1133 223.723 78.076C223.76 78.0293 223.816 78.006 223.891 78.006V79ZM227.139 70.74V69.48H228.231V70.74H227.139ZM229.057 70.74V69.48H230.149V70.74H229.057ZM237.893 79V78.006H239.601V79H237.893ZM236.815 79V68.962H237.893V79H236.815ZM239.601 79V78.006C239.657 78.006 239.703 78.02 239.741 78.048C239.778 78.0667 239.806 78.0993 239.825 78.146C239.843 78.1833 239.857 78.2347 239.867 78.3C239.876 78.356 239.881 78.4213 239.881 78.496C239.881 78.5707 239.876 78.6407 239.867 78.706C239.857 78.7713 239.843 78.8273 239.825 78.874C239.806 78.9113 239.778 78.944 239.741 78.972C239.703 78.9907 239.657 79 239.601 79ZM247.538 79V78.006H249.05V79H247.538ZM239.6 79C239.544 79 239.497 78.9907 239.46 78.972C239.422 78.944 239.394 78.9113 239.376 78.874C239.357 78.8273 239.343 78.7713 239.334 78.706C239.324 78.6407 239.32 78.5707 239.32 78.496C239.32 78.3933 239.329 78.3093 239.348 78.244C239.357 78.1693 239.385 78.1133 239.432 78.076C239.469 78.0293 239.525 78.006 239.6 78.006V79ZM239.6 79V78.006H247.258L246.446 78.58V75.57C246.446 74.9167 246.371 74.4033 246.222 74.03C246.072 73.6567 245.816 73.3907 245.452 73.232C245.097 73.0733 244.612 72.994 243.996 72.994C243.604 72.994 243.212 73.022 242.82 73.078C242.437 73.134 242.138 73.2087 241.924 73.302L242.582 72.63C242.526 72.854 242.47 73.1387 242.414 73.484C242.358 73.82 242.311 74.184 242.274 74.576C242.236 74.968 242.218 75.36 242.218 75.752C242.218 76.1533 242.236 76.5453 242.274 76.928C242.311 77.3107 242.353 77.642 242.4 77.922C242.446 78.202 242.484 78.398 242.512 78.51L241.476 78.804C241.438 78.6827 241.392 78.4727 241.336 78.174C241.289 77.8753 241.242 77.516 241.196 77.096C241.158 76.676 241.14 76.228 241.14 75.752C241.14 75.2947 241.158 74.8513 241.196 74.422C241.242 73.9833 241.294 73.5867 241.35 73.232C241.415 72.8773 241.476 72.5927 241.532 72.378C241.737 72.294 242.064 72.21 242.512 72.126C242.96 72.042 243.454 72 243.996 72C244.78 72 245.433 72.1167 245.956 72.35C246.488 72.5833 246.884 72.9613 247.146 73.484C247.407 73.9973 247.538 74.6927 247.538 75.57V79H239.6ZM249.05 79V78.006C249.106 78.006 249.152 78.02 249.19 78.048C249.227 78.0667 249.255 78.0993 249.274 78.146C249.292 78.1833 249.306 78.2347 249.316 78.3C249.325 78.356 249.33 78.4213 249.33 78.496C249.33 78.5707 249.325 78.6407 249.316 78.706C249.306 78.7713 249.292 78.8273 249.274 78.874C249.255 78.9113 249.227 78.944 249.19 78.972C249.152 78.9907 249.106 79 249.05 79ZM250.741 79V68.962H251.833V79H250.741ZM249.047 79V78.006H250.741V79H249.047ZM249.047 79C248.991 79 248.944 78.9907 248.907 78.972C248.87 78.944 248.842 78.9113 248.823 78.874C248.804 78.8273 248.79 78.7713 248.781 78.706C248.772 78.6407 248.767 78.5707 248.767 78.496C248.767 78.3933 248.776 78.3093 248.795 78.244C248.804 78.1693 248.832 78.1133 248.879 78.076C248.916 78.0293 248.972 78.006 249.047 78.006V79ZM260.473 82.472C259.735 82.472 259.068 82.3367 258.471 82.066C257.873 81.7953 257.402 81.4173 257.057 80.932C256.711 80.4467 256.539 79.8913 256.539 79.266C256.539 79.07 256.553 78.8133 256.581 78.496C256.618 78.1693 256.66 77.81 256.707 77.418C256.763 77.0167 256.823 76.6153 256.889 76.214C256.954 75.8033 257.015 75.416 257.071 75.052L258.149 75.22C258.046 75.864 257.953 76.4613 257.869 77.012C257.794 77.5533 257.733 78.02 257.687 78.412C257.649 78.7947 257.631 79.0793 257.631 79.266C257.631 79.6953 257.747 80.0733 257.981 80.4C258.223 80.736 258.559 80.9973 258.989 81.184C259.418 81.38 259.913 81.478 260.473 81.478C261.033 81.478 261.513 81.3893 261.915 81.212C262.316 81.0347 262.624 80.7873 262.839 80.47C263.053 80.1527 263.161 79.7793 263.161 79.35V68.962H264.253V79.35C264.253 80.0033 264.08 80.5633 263.735 81.03C263.399 81.4967 262.946 81.8513 262.377 82.094C261.807 82.346 261.173 82.472 260.473 82.472ZM267.725 79V78.006H269.433V79H267.725ZM266.647 79V68.962H267.725V79H266.647ZM269.433 79V78.006C269.489 78.006 269.535 78.02 269.573 78.048C269.61 78.0667 269.638 78.0993 269.657 78.146C269.675 78.1833 269.689 78.2347 269.699 78.3C269.708 78.356 269.713 78.4213 269.713 78.496C269.713 78.5707 269.708 78.6407 269.699 78.706C269.689 78.7713 269.675 78.8273 269.657 78.874C269.638 78.9113 269.61 78.944 269.573 78.972C269.535 78.9907 269.489 79 269.433 79ZM272.036 79V78.006H273.548V79H272.036ZM273.548 79V78.006C273.604 78.006 273.65 78.02 273.688 78.048C273.725 78.0667 273.753 78.0993 273.772 78.146C273.79 78.1833 273.804 78.2347 273.814 78.3C273.823 78.356 273.828 78.4213 273.828 78.496C273.828 78.5707 273.823 78.6407 273.814 78.706C273.804 78.7713 273.79 78.8273 273.772 78.874C273.753 78.9113 273.725 78.944 273.688 78.972C273.65 78.9907 273.604 79 273.548 79ZM269.432 79C269.376 79 269.329 78.9907 269.292 78.972C269.254 78.944 269.226 78.9113 269.208 78.874C269.189 78.8273 269.175 78.7713 269.166 78.706C269.156 78.6407 269.152 78.5707 269.152 78.496C269.152 78.3933 269.161 78.3093 269.18 78.244C269.189 78.1693 269.217 78.1133 269.264 78.076C269.301 78.0293 269.357 78.006 269.432 78.006V79ZM269.432 79V78.006H271.448L270.944 78.412V72H272.036V79H269.432ZM270.986 68.892V67.702H271.994V68.892H270.986ZM269.978 70.74V69.48H271.07V70.74H269.978ZM271.896 70.74V69.48H272.988V70.74H271.896ZM273.547 79V78.006H281.205L280.393 78.58V75.57C280.393 74.9167 280.318 74.4033 280.169 74.03C280.02 73.6567 279.763 73.3907 279.399 73.232C279.044 73.0733 278.559 72.994 277.943 72.994C277.551 72.994 277.159 73.022 276.767 73.078C276.384 73.134 276.086 73.2087 275.871 73.302L276.529 72.63C276.473 72.854 276.417 73.1387 276.361 73.484C276.305 73.82 276.258 74.184 276.221 74.576C276.184 74.968 276.165 75.36 276.165 75.752C276.165 76.1533 276.184 76.5453 276.221 76.928C276.258 77.3107 276.3 77.642 276.347 77.922C276.394 78.202 276.431 78.398 276.459 78.51L275.423 78.804C275.386 78.6827 275.339 78.4727 275.283 78.174C275.236 77.8753 275.19 77.516 275.143 77.096C275.106 76.676 275.087 76.228 275.087 75.752C275.087 75.2947 275.106 74.8513 275.143 74.422C275.19 73.9833 275.241 73.5867 275.297 73.232C275.362 72.8773 275.423 72.5927 275.479 72.378C275.684 72.294 276.011 72.21 276.459 72.126C276.907 72.042 277.402 72 277.943 72C278.727 72 279.38 72.1167 279.903 72.35C280.435 72.5833 280.832 72.9613 281.093 73.484C281.354 73.9973 281.485 74.6927 281.485 75.57V79H273.547ZM273.547 79C273.491 79 273.444 78.9907 273.407 78.972C273.37 78.944 273.342 78.9113 273.323 78.874C273.304 78.8273 273.29 78.7713 273.281 78.706C273.272 78.6407 273.267 78.5707 273.267 78.496C273.267 78.3933 273.276 78.3093 273.295 78.244C273.304 78.1693 273.332 78.1133 273.379 78.076C273.416 78.0293 273.472 78.006 273.547 78.006V79ZM286.949 79V68.962H288.027V79H286.949ZM295.343 79V78.006H296.855V79H295.343ZM289.925 79V78.006H295.147L294.251 78.804V75.752C294.251 75.0613 294.172 74.5153 294.013 74.114C293.855 73.7127 293.593 73.428 293.229 73.26C292.875 73.0827 292.394 72.994 291.787 72.994H290.653V72H291.787C292.534 72 293.173 72.1167 293.705 72.35C294.237 72.5833 294.643 72.9753 294.923 73.526C295.203 74.0673 295.343 74.8093 295.343 75.752V79H289.925ZM296.855 79V78.006C296.911 78.006 296.958 78.02 296.995 78.048C297.033 78.0667 297.061 78.0993 297.079 78.146C297.098 78.1833 297.112 78.2347 297.121 78.3C297.131 78.356 297.135 78.4213 297.135 78.496C297.135 78.5707 297.131 78.6407 297.121 78.706C297.112 78.7713 297.098 78.8273 297.079 78.874C297.061 78.9113 297.033 78.944 296.995 78.972C296.958 78.9907 296.911 79 296.855 79ZM290.989 70.74V69.48H292.081V70.74H290.989ZM296.857 79V78.006H306.545L305.859 78.594V76.214C305.859 75.3367 305.724 74.618 305.453 74.058C305.183 73.498 304.772 73.0827 304.221 72.812C303.68 72.5413 302.999 72.406 302.177 72.406C301.832 72.406 301.468 72.4247 301.085 72.462C300.703 72.4993 300.325 72.546 299.951 72.602C299.578 72.658 299.233 72.714 298.915 72.77L298.761 71.944C298.976 71.888 299.27 71.818 299.643 71.734C300.026 71.6407 300.446 71.5613 300.903 71.496C301.361 71.4307 301.813 71.398 302.261 71.398C302.849 71.398 303.423 71.4773 303.983 71.636C304.543 71.7947 305.043 72.056 305.481 72.42C305.929 72.784 306.284 73.2787 306.545 73.904C306.807 74.52 306.937 75.29 306.937 76.214V79H296.857ZM298.523 78.006V76.886C298.523 76.438 298.635 76.0227 298.859 75.64C299.083 75.2573 299.391 74.9493 299.783 74.716C300.175 74.4827 300.614 74.366 301.099 74.366C301.594 74.366 302.033 74.4827 302.415 74.716C302.807 74.9493 303.111 75.2573 303.325 75.64C303.549 76.0227 303.661 76.438 303.661 76.886V78.006H302.569V76.886C302.569 76.5967 302.504 76.34 302.373 76.116C302.243 75.8827 302.065 75.7007 301.841 75.57C301.627 75.43 301.379 75.36 301.099 75.36C300.829 75.36 300.581 75.43 300.357 75.57C300.133 75.7007 299.951 75.8827 299.811 76.116C299.681 76.34 299.615 76.5967 299.615 76.886V78.006H298.523ZM296.857 79C296.801 79 296.755 78.9907 296.717 78.972C296.68 78.944 296.652 78.9113 296.633 78.874C296.615 78.8273 296.601 78.7713 296.591 78.706C296.582 78.6407 296.577 78.5707 296.577 78.496C296.577 78.3933 296.587 78.3093 296.605 78.244C296.615 78.1693 296.643 78.1133 296.689 78.076C296.727 78.0293 296.783 78.006 296.857 78.006V79ZM46.3286 99V97.362H47.5186V99H46.3286ZM49.3775 99V97.362H50.5675V99H49.3775ZM52.4263 99V97.362H53.6163V99H52.4263ZM62.8111 99V98.006H64.3231V99H62.8111ZM59.0311 102.472C58.2938 102.472 57.6264 102.337 57.0291 102.066C56.4318 101.795 55.9604 101.417 55.6151 100.932C55.2698 100.447 55.0971 99.8913 55.0971 99.266C55.0971 99.07 55.1111 98.8133 55.1391 98.496C55.1764 98.1693 55.2184 97.81 55.2651 97.418C55.3211 97.0167 55.3818 96.6153 55.4471 96.214C55.5124 95.8033 55.5731 95.416 55.6291 95.052L56.7071 95.22C56.6044 95.864 56.5111 96.4613 56.4271 97.012C56.3524 97.5533 56.2918 98.02 56.2451 98.412C56.2078 98.7947 56.1891 99.0793 56.1891 99.266C56.1891 99.6953 56.3058 100.073 56.5391 100.4C56.7818 100.736 57.1178 100.997 57.5471 101.184C57.9764 101.38 58.4711 101.478 59.0311 101.478C59.5911 101.478 60.0718 101.389 60.4731 101.212C60.8744 101.035 61.1824 100.787 61.3971 100.47C61.6118 100.153 61.7191 99.7793 61.7191 99.35V88.962H62.8111V99.35C62.8111 100.003 62.6384 100.563 62.2931 101.03C61.9571 101.497 61.5044 101.851 60.9351 102.094C60.3658 102.346 59.7311 102.472 59.0311 102.472ZM64.3231 99V98.006C64.3791 98.006 64.4258 98.02 64.4631 98.048C64.5004 98.0667 64.5284 98.0993 64.5471 98.146C64.5658 98.1833 64.5798 98.2347 64.5891 98.3C64.5984 98.356 64.6031 98.4213 64.6031 98.496C64.6031 98.5707 64.5984 98.6407 64.5891 98.706C64.5798 98.7713 64.5658 98.8273 64.5471 98.874C64.5284 98.9113 64.5004 98.944 64.4631 98.972C64.4258 98.9907 64.3791 99 64.3231 99ZM67.3642 98.958C66.8602 98.5287 66.4728 98.0387 66.2022 97.488C65.9408 96.928 65.8102 96.3353 65.8102 95.71C65.8102 95.178 65.9035 94.688 66.0902 94.24C66.2768 93.7827 66.5335 93.386 66.8602 93.05C67.1868 92.714 67.5742 92.4573 68.0222 92.28C68.4702 92.0933 68.9508 92 69.4642 92C69.7348 92 70.0242 92.028 70.3322 92.084C70.6495 92.14 70.9528 92.2193 71.2422 92.322L70.8642 93.26C70.6308 93.176 70.3928 93.1107 70.1502 93.064C69.9168 93.0173 69.6928 92.994 69.4782 92.994C68.9835 92.994 68.5402 93.1107 68.1482 93.344C67.7562 93.5773 67.4482 93.8993 67.2242 94.31C67.0095 94.7113 66.9022 95.178 66.9022 95.71C66.9022 96.1953 67.0002 96.6527 67.1962 97.082C67.4015 97.502 67.6955 97.8753 68.0782 98.202L67.3642 98.958ZM64.3262 99V98.006H71.4102V99H64.3262ZM64.3262 99C64.2702 99 64.2235 98.9907 64.1862 98.972C64.1488 98.944 64.1208 98.9113 64.1022 98.874C64.0835 98.8273 64.0695 98.7713 64.0602 98.706C64.0508 98.6407 64.0462 98.5707 64.0462 98.496C64.0462 98.3933 64.0555 98.3093 64.0742 98.244C64.0835 98.1693 64.1115 98.1133 64.1582 98.076C64.1955 98.0293 64.2515 98.006 64.3262 98.006V99ZM80.1815 102.472C79.4442 102.472 78.7768 102.337 78.1795 102.066C77.5822 101.795 77.1108 101.417 76.7655 100.932C76.4202 100.447 76.2475 99.8913 76.2475 99.266C76.2475 99.07 76.2615 98.8133 76.2895 98.496C76.3268 98.1693 76.3688 97.81 76.4155 97.418C76.4715 97.0167 76.5322 96.6153 76.5975 96.214C76.6628 95.8033 76.7235 95.416 76.7795 95.052L77.8575 95.22C77.7548 95.864 77.6615 96.4613 77.5775 97.012C77.5028 97.5533 77.4422 98.02 77.3955 98.412C77.3582 98.7947 77.3395 99.0793 77.3395 99.266C77.3395 99.6953 77.4562 100.073 77.6895 100.4C77.9322 100.736 78.2682 100.997 78.6975 101.184C79.1268 101.38 79.6215 101.478 80.1815 101.478C80.7415 101.478 81.2222 101.389 81.6235 101.212C82.0248 101.035 82.3328 100.787 82.5475 100.47C82.7622 100.153 82.8695 99.7793 82.8695 99.35V92H83.9615V99.35C83.9615 100.003 83.7888 100.563 83.4435 101.03C83.1075 101.497 82.6548 101.851 82.0855 102.094C81.5162 102.346 80.8815 102.472 80.1815 102.472ZM79.5795 92V90.74H80.6715V92H79.5795ZM91.5917 99V98.006H93.1037V99H91.5917ZM88.2737 102.094C87.9471 102.094 87.5971 102.066 87.2237 102.01C86.8597 101.963 86.4584 101.893 86.0197 101.8L86.1877 100.918C86.6824 100.983 87.0931 101.03 87.4197 101.058C87.7557 101.086 88.0404 101.1 88.2737 101.1C89.0484 101.1 89.6131 100.951 89.9677 100.652C90.3224 100.363 90.4997 99.938 90.4997 99.378V92.63L91.0597 92.994H88.6937C88.1524 92.994 87.7324 93.0593 87.4337 93.19C87.1444 93.3207 86.9437 93.568 86.8317 93.932C86.7197 94.2867 86.6637 94.8093 86.6637 95.5C86.6637 96.1907 86.7197 96.718 86.8317 97.082C86.9437 97.4367 87.1444 97.6793 87.4337 97.81C87.7324 97.9407 88.1524 98.006 88.6937 98.006H90.4997V99H88.6937C87.8817 99 87.2471 98.8787 86.7897 98.636C86.3417 98.384 86.0244 98.0013 85.8377 97.488C85.6604 96.9653 85.5717 96.3027 85.5717 95.5C85.5717 94.6973 85.6604 94.0393 85.8377 93.526C86.0244 93.0033 86.3417 92.6207 86.7897 92.378C87.2471 92.126 87.8817 92 88.6937 92H91.5917V99.364C91.5917 99.9427 91.4564 100.437 91.1857 100.848C90.9244 101.259 90.5464 101.567 90.0517 101.772C89.5571 101.987 88.9644 102.094 88.2737 102.094ZM93.1037 99V98.006C93.1597 98.006 93.2064 98.02 93.2437 98.048C93.2811 98.0667 93.3091 98.0993 93.3277 98.146C93.3464 98.1833 93.3604 98.2347 93.3697 98.3C93.3791 98.356 93.3837 98.4213 93.3837 98.496C93.3837 98.5707 93.3791 98.6407 93.3697 98.706C93.3604 98.7713 93.3464 98.8273 93.3277 98.874C93.3091 98.9113 93.2811 98.944 93.2437 98.972C93.2064 98.9907 93.1597 99 93.1037 99ZM100.805 99V98.006H102.317V99H100.805ZM93.1055 99C93.0495 99 93.0028 98.9907 92.9655 98.972C92.9281 98.944 92.9001 98.9113 92.8815 98.874C92.8628 98.8273 92.8488 98.7713 92.8395 98.706C92.8301 98.6407 92.8255 98.5707 92.8255 98.496C92.8255 98.3933 92.8348 98.3093 92.8535 98.244C92.8628 98.1693 92.8908 98.1133 92.9375 98.076C92.9748 98.0293 93.0308 98.006 93.1055 98.006V99ZM93.1055 99V98.006H100.105L99.7135 98.356V95.864C99.7135 95.36 99.6435 94.9447 99.5035 94.618C99.3728 94.282 99.1721 94.0347 98.9015 93.876C98.6401 93.708 98.3088 93.624 97.9075 93.624H94.8555L94.0575 92.42L94.6595 91.258C94.7715 91.0527 94.8881 90.8427 95.0095 90.628C95.1308 90.4133 95.2801 90.166 95.4575 89.886C95.6348 89.606 95.8588 89.2653 96.1295 88.864L97.0395 89.41C96.7688 89.8207 96.5495 90.1613 96.3815 90.432C96.2135 90.7027 96.0688 90.936 95.9475 91.132C95.8355 91.328 95.7281 91.524 95.6255 91.72L94.9255 93.064L94.6455 92.63H97.9075C98.4955 92.63 98.9761 92.7327 99.3495 92.938C99.7321 93.134 100.026 93.3953 100.231 93.722C100.446 94.0487 100.595 94.4033 100.679 94.786C100.763 95.1593 100.805 95.5187 100.805 95.864V99H93.1055ZM102.317 99V98.006C102.373 98.006 102.42 98.02 102.457 98.048C102.495 98.0667 102.523 98.0993 102.541 98.146C102.56 98.1833 102.574 98.2347 102.583 98.3C102.593 98.356 102.597 98.4213 102.597 98.496C102.597 98.5707 102.593 98.6407 102.583 98.706C102.574 98.7713 102.56 98.8273 102.541 98.874C102.523 98.9113 102.495 98.944 102.457 98.972C102.42 98.9907 102.373 99 102.317 99ZM102.32 99V98.006H104.336L103.832 98.412V92H104.924V99H102.32ZM102.32 99C102.264 99 102.218 98.9907 102.18 98.972C102.143 98.944 102.115 98.9113 102.096 98.874C102.078 98.8273 102.064 98.7713 102.054 98.706C102.045 98.6407 102.04 98.5707 102.04 98.496C102.04 98.3933 102.05 98.3093 102.068 98.244C102.078 98.1693 102.106 98.1133 102.152 98.076C102.19 98.0293 102.246 98.006 102.32 98.006V99ZM102.88 101.52V100.26H103.972V101.52H102.88ZM104.798 101.52V100.26H105.89V101.52H104.798ZM115.107 99V98.006H116.619V99H115.107ZM109.689 99V98.006H114.911L114.015 98.804V95.752C114.015 95.0613 113.936 94.5153 113.777 94.114C113.618 93.7127 113.357 93.428 112.993 93.26C112.638 93.0827 112.158 92.994 111.551 92.994H110.417V92H111.551C112.298 92 112.937 92.1167 113.469 92.35C114.001 92.5833 114.407 92.9753 114.687 93.526C114.967 94.0673 115.107 94.8093 115.107 95.752V99H109.689ZM116.619 99V98.006C116.675 98.006 116.722 98.02 116.759 98.048C116.796 98.0667 116.824 98.0993 116.843 98.146C116.862 98.1833 116.876 98.2347 116.885 98.3C116.894 98.356 116.899 98.4213 116.899 98.496C116.899 98.5707 116.894 98.6407 116.885 98.706C116.876 98.7713 116.862 98.8273 116.843 98.874C116.824 98.9113 116.796 98.944 116.759 98.972C116.722 98.9907 116.675 99 116.619 99ZM116.621 99V98.006H123.691L122.963 98.636V92.518L123.537 92.994H121.157C120.616 92.994 120.196 93.0593 119.897 93.19C119.608 93.3207 119.407 93.568 119.295 93.932C119.183 94.2867 119.127 94.8093 119.127 95.5C119.127 96.1907 119.183 96.718 119.295 97.082C119.407 97.4367 119.608 97.6793 119.897 97.81C120.196 97.9407 120.616 98.006 121.157 98.006V98.72C120.345 98.72 119.71 98.622 119.253 98.426C118.805 98.2207 118.488 97.8847 118.301 97.418C118.124 96.942 118.035 96.3027 118.035 95.5C118.035 94.6973 118.124 94.0393 118.301 93.526C118.488 93.0033 118.805 92.6207 119.253 92.378C119.71 92.126 120.345 92 121.157 92H124.055V99H116.621ZM116.621 99C116.565 99 116.518 98.9907 116.481 98.972C116.444 98.944 116.416 98.9113 116.397 98.874C116.378 98.8273 116.364 98.7713 116.355 98.706C116.346 98.6407 116.341 98.5707 116.341 98.496C116.341 98.3933 116.35 98.3093 116.369 98.244C116.378 98.1693 116.406 98.1133 116.453 98.076C116.49 98.0293 116.546 98.006 116.621 98.006V99ZM119.869 90.74V89.48H120.961V90.74H119.869ZM121.787 90.74V89.48H122.879V90.74H121.787ZM130.623 99V98.006H132.331V99H130.623ZM129.545 99V88.962H130.623V99H129.545ZM132.331 99V98.006C132.387 98.006 132.434 98.02 132.471 98.048C132.509 98.0667 132.537 98.0993 132.555 98.146C132.574 98.1833 132.588 98.2347 132.597 98.3C132.607 98.356 132.611 98.4213 132.611 98.496C132.611 98.5707 132.607 98.6407 132.597 98.706C132.588 98.7713 132.574 98.8273 132.555 98.874C132.537 98.9113 132.509 98.944 132.471 98.972C132.434 98.9907 132.387 99 132.331 99ZM140.268 99V98.006H141.78V99H140.268ZM132.33 99C132.274 99 132.227 98.9907 132.19 98.972C132.153 98.944 132.125 98.9113 132.106 98.874C132.087 98.8273 132.073 98.7713 132.064 98.706C132.055 98.6407 132.05 98.5707 132.05 98.496C132.05 98.3933 132.059 98.3093 132.078 98.244C132.087 98.1693 132.115 98.1133 132.162 98.076C132.199 98.0293 132.255 98.006 132.33 98.006V99ZM132.33 99V98.006H139.988L139.176 98.58V95.57C139.176 94.9167 139.101 94.4033 138.952 94.03C138.803 93.6567 138.546 93.3907 138.182 93.232C137.827 93.0733 137.342 92.994 136.726 92.994C136.334 92.994 135.942 93.022 135.55 93.078C135.167 93.134 134.869 93.2087 134.654 93.302L135.312 92.63C135.256 92.854 135.2 93.1387 135.144 93.484C135.088 93.82 135.041 94.184 135.004 94.576C134.967 94.968 134.948 95.36 134.948 95.752C134.948 96.1533 134.967 96.5453 135.004 96.928C135.041 97.3107 135.083 97.642 135.13 97.922C135.177 98.202 135.214 98.398 135.242 98.51L134.206 98.804C134.169 98.6827 134.122 98.4727 134.066 98.174C134.019 97.8753 133.973 97.516 133.926 97.096C133.889 96.676 133.87 96.228 133.87 95.752C133.87 95.2947 133.889 94.8513 133.926 94.422C133.973 93.9833 134.024 93.5867 134.08 93.232C134.145 92.8773 134.206 92.5927 134.262 92.378C134.467 92.294 134.794 92.21 135.242 92.126C135.69 92.042 136.185 92 136.726 92C137.51 92 138.163 92.1167 138.686 92.35C139.218 92.5833 139.615 92.9613 139.876 93.484C140.137 93.9973 140.268 94.6927 140.268 95.57V99H132.33ZM141.78 99V98.006C141.836 98.006 141.883 98.02 141.92 98.048C141.957 98.0667 141.985 98.0993 142.004 98.146C142.023 98.1833 142.037 98.2347 142.046 98.3C142.055 98.356 142.06 98.4213 142.06 98.496C142.06 98.5707 142.055 98.6407 142.046 98.706C142.037 98.7713 142.023 98.8273 142.004 98.874C141.985 98.9113 141.957 98.944 141.92 98.972C141.883 98.9907 141.836 99 141.78 99ZM143.471 99V88.962H144.563V99H143.471ZM141.777 99V98.006H143.471V99H141.777ZM141.777 99C141.721 99 141.675 98.9907 141.637 98.972C141.6 98.944 141.572 98.9113 141.553 98.874C141.535 98.8273 141.521 98.7713 141.511 98.706C141.502 98.6407 141.497 98.5707 141.497 98.496C141.497 98.3933 141.507 98.3093 141.525 98.244C141.535 98.1693 141.563 98.1133 141.609 98.076C141.647 98.0293 141.703 98.006 141.777 98.006V99ZM153.203 102.472C152.466 102.472 151.798 102.337 151.201 102.066C150.604 101.795 150.132 101.417 149.787 100.932C149.442 100.447 149.269 99.8913 149.269 99.266C149.269 99.07 149.283 98.8133 149.311 98.496C149.348 98.1693 149.39 97.81 149.437 97.418C149.493 97.0167 149.554 96.6153 149.619 96.214C149.684 95.8033 149.745 95.416 149.801 95.052L150.879 95.22C150.776 95.864 150.683 96.4613 150.599 97.012C150.524 97.5533 150.464 98.02 150.417 98.412C150.38 98.7947 150.361 99.0793 150.361 99.266C150.361 99.6953 150.478 100.073 150.711 100.4C150.954 100.736 151.29 100.997 151.719 101.184C152.148 101.38 152.643 101.478 153.203 101.478C153.763 101.478 154.244 101.389 154.645 101.212C155.046 101.035 155.354 100.787 155.569 100.47C155.784 100.153 155.891 99.7793 155.891 99.35V88.962H156.983V99.35C156.983 100.003 156.81 100.563 156.465 101.03C156.129 101.497 155.676 101.851 155.107 102.094C154.538 102.346 153.903 102.472 153.203 102.472ZM160.455 99V98.006H162.163V99H160.455ZM159.377 99V88.962H160.455V99H159.377ZM162.163 99V98.006C162.219 98.006 162.266 98.02 162.303 98.048C162.341 98.0667 162.369 98.0993 162.387 98.146C162.406 98.1833 162.42 98.2347 162.429 98.3C162.439 98.356 162.443 98.4213 162.443 98.496C162.443 98.5707 162.439 98.6407 162.429 98.706C162.42 98.7713 162.406 98.8273 162.387 98.874C162.369 98.9113 162.341 98.944 162.303 98.972C162.266 98.9907 162.219 99 162.163 99ZM164.766 99V98.006H166.278V99H164.766ZM166.278 99V98.006C166.334 98.006 166.381 98.02 166.418 98.048C166.455 98.0667 166.483 98.0993 166.502 98.146C166.521 98.1833 166.535 98.2347 166.544 98.3C166.553 98.356 166.558 98.4213 166.558 98.496C166.558 98.5707 166.553 98.6407 166.544 98.706C166.535 98.7713 166.521 98.8273 166.502 98.874C166.483 98.9113 166.455 98.944 166.418 98.972C166.381 98.9907 166.334 99 166.278 99ZM162.162 99C162.106 99 162.059 98.9907 162.022 98.972C161.985 98.944 161.957 98.9113 161.938 98.874C161.919 98.8273 161.905 98.7713 161.896 98.706C161.887 98.6407 161.882 98.5707 161.882 98.496C161.882 98.3933 161.891 98.3093 161.91 98.244C161.919 98.1693 161.947 98.1133 161.994 98.076C162.031 98.0293 162.087 98.006 162.162 98.006V99ZM162.162 99V98.006H164.178L163.674 98.412V92H164.766V99H162.162ZM163.716 88.892V87.702H164.724V88.892H163.716ZM162.708 90.74V89.48H163.8V90.74H162.708ZM164.626 90.74V89.48H165.718V90.74H164.626ZM166.277 99V98.006H173.935L173.123 98.58V95.57C173.123 94.9167 173.049 94.4033 172.899 94.03C172.75 93.6567 172.493 93.3907 172.129 93.232C171.775 93.0733 171.289 92.994 170.673 92.994C170.281 92.994 169.889 93.022 169.497 93.078C169.115 93.134 168.816 93.2087 168.601 93.302L169.259 92.63C169.203 92.854 169.147 93.1387 169.091 93.484C169.035 93.82 168.989 94.184 168.951 94.576C168.914 94.968 168.895 95.36 168.895 95.752C168.895 96.1533 168.914 96.5453 168.951 96.928C168.989 97.3107 169.031 97.642 169.077 97.922C169.124 98.202 169.161 98.398 169.189 98.51L168.153 98.804C168.116 98.6827 168.069 98.4727 168.013 98.174C167.967 97.8753 167.92 97.516 167.873 97.096C167.836 96.676 167.817 96.228 167.817 95.752C167.817 95.2947 167.836 94.8513 167.873 94.422C167.92 93.9833 167.971 93.5867 168.027 93.232C168.093 92.8773 168.153 92.5927 168.209 92.378C168.415 92.294 168.741 92.21 169.189 92.126C169.637 92.042 170.132 92 170.673 92C171.457 92 172.111 92.1167 172.633 92.35C173.165 92.5833 173.562 92.9613 173.823 93.484C174.085 93.9973 174.215 94.6927 174.215 95.57V99H166.277ZM166.277 99C166.221 99 166.175 98.9907 166.137 98.972C166.1 98.944 166.072 98.9113 166.053 98.874C166.035 98.8273 166.021 98.7713 166.011 98.706C166.002 98.6407 165.997 98.5707 165.997 98.496C165.997 98.3933 166.007 98.3093 166.025 98.244C166.035 98.1693 166.063 98.1133 166.109 98.076C166.147 98.0293 166.203 98.006 166.277 98.006V99ZM179.68 99V88.962H180.758V99H179.68ZM188.074 99V98.006H189.586V99H188.074ZM182.656 99V98.006H187.878L186.982 98.804V95.752C186.982 95.0613 186.902 94.5153 186.744 94.114C186.585 93.7127 186.324 93.428 185.96 93.26C185.605 93.0827 185.124 92.994 184.518 92.994H183.384V92H184.518C185.264 92 185.904 92.1167 186.436 92.35C186.968 92.5833 187.374 92.9753 187.654 93.526C187.934 94.0673 188.074 94.8093 188.074 95.752V99H182.656ZM189.586 99V98.006C189.642 98.006 189.688 98.02 189.726 98.048C189.763 98.0667 189.791 98.0993 189.81 98.146C189.828 98.1833 189.842 98.2347 189.852 98.3C189.861 98.356 189.866 98.4213 189.866 98.496C189.866 98.5707 189.861 98.6407 189.852 98.706C189.842 98.7713 189.828 98.8273 189.81 98.874C189.791 98.9113 189.763 98.944 189.726 98.972C189.688 98.9907 189.642 99 189.586 99ZM183.72 90.74V89.48H184.812V90.74H183.72ZM189.588 99V98.006H199.276L198.59 98.594V96.214C198.59 95.3367 198.455 94.618 198.184 94.058C197.913 93.498 197.503 93.0827 196.952 92.812C196.411 92.5413 195.729 92.406 194.908 92.406C194.563 92.406 194.199 92.4247 193.816 92.462C193.433 92.4993 193.055 92.546 192.682 92.602C192.309 92.658 191.963 92.714 191.646 92.77L191.492 91.944C191.707 91.888 192.001 91.818 192.374 91.734C192.757 91.6407 193.177 91.5613 193.634 91.496C194.091 91.4307 194.544 91.398 194.992 91.398C195.58 91.398 196.154 91.4773 196.714 91.636C197.274 91.7947 197.773 92.056 198.212 92.42C198.66 92.784 199.015 93.2787 199.276 93.904C199.537 94.52 199.668 95.29 199.668 96.214V99H189.588ZM191.254 98.006V96.886C191.254 96.438 191.366 96.0227 191.59 95.64C191.814 95.2573 192.122 94.9493 192.514 94.716C192.906 94.4827 193.345 94.366 193.83 94.366C194.325 94.366 194.763 94.4827 195.146 94.716C195.538 94.9493 195.841 95.2573 196.056 95.64C196.28 96.0227 196.392 96.438 196.392 96.886V98.006H195.3V96.886C195.3 96.5967 195.235 96.34 195.104 96.116C194.973 95.8827 194.796 95.7007 194.572 95.57C194.357 95.43 194.11 95.36 193.83 95.36C193.559 95.36 193.312 95.43 193.088 95.57C192.864 95.7007 192.682 95.8827 192.542 96.116C192.411 96.34 192.346 96.5967 192.346 96.886V98.006H191.254ZM189.588 99C189.532 99 189.485 98.9907 189.448 98.972C189.411 98.944 189.383 98.9113 189.364 98.874C189.345 98.8273 189.331 98.7713 189.322 98.706C189.313 98.6407 189.308 98.5707 189.308 98.496C189.308 98.3933 189.317 98.3093 189.336 98.244C189.345 98.1693 189.373 98.1133 189.42 98.076C189.457 98.0293 189.513 98.006 189.588 98.006V99ZM204.745 99V97.362H205.935V99H204.745ZM207.765 103.648C207.672 103.116 207.588 102.612 207.513 102.136C207.448 101.66 207.415 101.254 207.415 100.918C207.415 100.311 207.518 99.7887 207.723 99.35C207.938 98.9207 208.241 98.5893 208.633 98.356C209.035 98.1227 209.511 98.006 210.061 98.006C210.22 98.006 210.453 98.006 210.761 98.006C211.069 98.006 211.424 98.006 211.825 98.006C212.227 98.006 212.642 98.006 213.071 98.006C213.501 98.006 213.907 98.006 214.289 98.006L213.477 98.72V95.57C213.477 94.9167 213.403 94.4033 213.253 94.03C213.104 93.6567 212.847 93.3907 212.483 93.232C212.129 93.0733 211.643 92.994 211.027 92.994C210.635 92.994 210.243 93.022 209.851 93.078C209.469 93.134 209.17 93.2087 208.955 93.302L209.613 92.63C209.557 92.854 209.501 93.1387 209.445 93.484C209.389 93.82 209.343 94.184 209.305 94.576C209.277 94.968 209.263 95.36 209.263 95.752C209.263 96.1533 209.277 96.5453 209.305 96.928C209.343 97.3107 209.385 97.642 209.431 97.922C209.478 98.202 209.515 98.398 209.543 98.51L208.507 98.804C208.47 98.6827 208.423 98.4727 208.367 98.174C208.321 97.8753 208.274 97.516 208.227 97.096C208.19 96.676 208.171 96.228 208.171 95.752C208.171 95.2947 208.19 94.8513 208.227 94.422C208.274 93.9833 208.325 93.5867 208.381 93.232C208.447 92.8773 208.507 92.5927 208.563 92.378C208.769 92.294 209.095 92.21 209.543 92.126C209.991 92.042 210.486 92 211.027 92C211.494 92 211.914 92.042 212.287 92.126C212.67 92.2007 213.001 92.3267 213.281 92.504C213.571 92.6813 213.809 92.91 213.995 93.19C214.191 93.4607 214.336 93.7967 214.429 94.198C214.523 94.59 214.569 95.0473 214.569 95.57V99C214.177 99 213.753 99 213.295 99C212.847 99 212.404 99 211.965 99C211.536 99 211.149 99 210.803 99C210.467 99 210.22 99 210.061 99C209.912 99 209.749 99.0187 209.571 99.056C209.394 99.1027 209.221 99.1867 209.053 99.308C208.895 99.4387 208.764 99.63 208.661 99.882C208.559 100.143 208.507 100.489 208.507 100.918C208.507 101.273 208.54 101.679 208.605 102.136C208.671 102.593 208.745 103.097 208.829 103.648H207.765ZM221.597 99V98.006H223.109V99H221.597ZM216.179 99V98.006H221.401L220.505 98.804V95.752C220.505 95.0613 220.426 94.5153 220.267 94.114C220.108 93.7127 219.847 93.428 219.483 93.26C219.128 93.0827 218.648 92.994 218.041 92.994H216.907V92H218.041C218.788 92 219.427 92.1167 219.959 92.35C220.491 92.5833 220.897 92.9753 221.177 93.526C221.457 94.0673 221.597 94.8093 221.597 95.752V99H216.179ZM223.109 99V98.006C223.165 98.006 223.212 98.02 223.249 98.048C223.286 98.0667 223.314 98.0993 223.333 98.146C223.352 98.1833 223.366 98.2347 223.375 98.3C223.384 98.356 223.389 98.4213 223.389 98.496C223.389 98.5707 223.384 98.6407 223.375 98.706C223.366 98.7713 223.352 98.8273 223.333 98.874C223.314 98.9113 223.286 98.944 223.249 98.972C223.212 98.9907 223.165 99 223.109 99ZM230.041 99V98.006H231.553V99H230.041ZM223.111 99C223.055 99 223.009 98.9907 222.971 98.972C222.934 98.944 222.906 98.9113 222.887 98.874C222.869 98.8273 222.855 98.7713 222.845 98.706C222.836 98.6407 222.831 98.5707 222.831 98.496C222.831 98.3933 222.841 98.3093 222.859 98.244C222.869 98.1693 222.897 98.1133 222.943 98.076C222.981 98.0293 223.037 98.006 223.111 98.006V99ZM223.111 99V98.006H229.285L228.949 98.3V94.828C228.949 94.2213 228.758 93.7687 228.375 93.47C228.002 93.162 227.428 93.008 226.653 93.008C226.411 93.008 226.061 93.0313 225.603 93.078C225.146 93.1153 224.665 93.1713 224.161 93.246L224.035 92.35C224.418 92.2567 224.838 92.1773 225.295 92.112C225.753 92.0373 226.196 92 226.625 92C227.335 92 227.941 92.112 228.445 92.336C228.959 92.5507 229.351 92.868 229.621 93.288C229.901 93.708 230.041 94.2213 230.041 94.828V99H223.111ZM231.553 99V98.006C231.609 98.006 231.656 98.02 231.693 98.048C231.731 98.0667 231.759 98.0993 231.777 98.146C231.796 98.1833 231.81 98.2347 231.819 98.3C231.829 98.356 231.833 98.4213 231.833 98.496C231.833 98.5707 231.829 98.6407 231.819 98.706C231.81 98.7713 231.796 98.8273 231.777 98.874C231.759 98.9113 231.731 98.944 231.693 98.972C231.656 98.9907 231.609 99 231.553 99ZM226.079 91.034V89.774H227.171V91.034H226.079ZM234.151 99V98.006H235.663V99H234.151ZM235.663 99V98.006C235.719 98.006 235.766 98.02 235.803 98.048C235.84 98.0667 235.868 98.0993 235.887 98.146C235.906 98.1833 235.92 98.2347 235.929 98.3C235.938 98.356 235.943 98.4213 235.943 98.496C235.943 98.5707 235.938 98.6407 235.929 98.706C235.92 98.7713 235.906 98.8273 235.887 98.874C235.868 98.9113 235.84 98.944 235.803 98.972C235.766 98.9907 235.719 99 235.663 99ZM231.547 99C231.491 99 231.444 98.9907 231.407 98.972C231.37 98.944 231.342 98.9113 231.323 98.874C231.304 98.8273 231.29 98.7713 231.281 98.706C231.272 98.6407 231.267 98.5707 231.267 98.496C231.267 98.3933 231.276 98.3093 231.295 98.244C231.304 98.1693 231.332 98.1133 231.379 98.076C231.416 98.0293 231.472 98.006 231.547 98.006V99ZM231.547 99V98.006H233.563L233.059 98.412V92H234.151V99H231.547ZM232.107 90.74V89.48H233.199V90.74H232.107ZM234.025 90.74V89.48H235.117V90.74H234.025ZM246.19 99V98.006H247.702V99H246.19ZM235.662 99C235.606 99 235.559 98.9907 235.522 98.972C235.485 98.944 235.457 98.9113 235.438 98.874C235.419 98.8273 235.405 98.7713 235.396 98.706C235.387 98.6407 235.382 98.5707 235.382 98.496C235.382 98.3933 235.391 98.3093 235.41 98.244C235.419 98.1693 235.447 98.1133 235.494 98.076C235.531 98.0293 235.587 98.006 235.662 98.006V99ZM243.026 99C242.709 99 242.396 98.9393 242.088 98.818C241.789 98.6967 241.5 98.5053 241.22 98.244L241.934 97.502C242.149 97.6793 242.34 97.81 242.508 97.894C242.676 97.9687 242.849 98.006 243.026 98.006H245.518L245.098 98.454V95.108C245.098 94.94 245.079 94.702 245.042 94.394C245.014 94.086 244.967 93.7407 244.902 93.358C244.846 92.966 244.776 92.574 244.692 92.182L245.756 92C245.821 92.3267 245.887 92.6907 245.952 93.092C246.017 93.4933 246.073 93.876 246.12 94.24C246.167 94.5947 246.19 94.884 246.19 95.108V99H243.026ZM235.662 99V98.006H237.706L237.426 98.286V93.4H238.504V99H235.662ZM238.504 99V98.006H240.086C240.403 98.006 240.641 97.9593 240.8 97.866C240.968 97.7727 241.085 97.586 241.15 97.306C241.215 97.026 241.248 96.6153 241.248 96.074V92.7H242.34V96.074C242.34 96.802 242.261 97.3807 242.102 97.81C241.953 98.2393 241.715 98.5473 241.388 98.734C241.061 98.9113 240.627 99 240.086 99H238.504ZM247.702 99V98.006C247.758 98.006 247.805 98.02 247.842 98.048C247.879 98.0667 247.907 98.0993 247.926 98.146C247.945 98.1833 247.959 98.2347 247.968 98.3C247.977 98.356 247.982 98.4213 247.982 98.496C247.982 98.5707 247.977 98.6407 247.968 98.706C247.959 98.7713 247.945 98.8273 247.926 98.874C247.907 98.9113 247.879 98.944 247.842 98.972C247.805 98.9907 247.758 99 247.702 99ZM255.645 99V98.006H257.157V99H255.645ZM247.707 99C247.651 99 247.604 98.9907 247.567 98.972C247.53 98.944 247.502 98.9113 247.483 98.874C247.464 98.8273 247.45 98.7713 247.441 98.706C247.432 98.6407 247.427 98.5707 247.427 98.496C247.427 98.3933 247.436 98.3093 247.455 98.244C247.464 98.1693 247.492 98.1133 247.539 98.076C247.576 98.0293 247.632 98.006 247.707 98.006V99ZM247.707 99V98.006H255.365L254.553 98.58V95.57C254.553 94.9167 254.478 94.4033 254.329 94.03C254.18 93.6567 253.923 93.3907 253.559 93.232C253.204 93.0733 252.719 92.994 252.103 92.994C251.711 92.994 251.319 93.022 250.927 93.078C250.544 93.134 250.246 93.2087 250.031 93.302L250.689 92.63C250.633 92.854 250.577 93.1387 250.521 93.484C250.465 93.82 250.418 94.184 250.381 94.576C250.344 94.968 250.325 95.36 250.325 95.752C250.325 96.1533 250.344 96.5453 250.381 96.928C250.418 97.3107 250.46 97.642 250.507 97.922C250.554 98.202 250.591 98.398 250.619 98.51L249.583 98.804C249.546 98.6827 249.499 98.4727 249.443 98.174C249.396 97.8753 249.35 97.516 249.303 97.096C249.266 96.676 249.247 96.228 249.247 95.752C249.247 95.2947 249.266 94.8513 249.303 94.422C249.35 93.9833 249.401 93.5867 249.457 93.232C249.522 92.8773 249.583 92.5927 249.639 92.378C249.844 92.294 250.171 92.21 250.619 92.126C251.067 92.042 251.562 92 252.103 92C252.887 92 253.54 92.1167 254.063 92.35C254.595 92.5833 254.992 92.9613 255.253 93.484C255.514 93.9973 255.645 94.6927 255.645 95.57V99H247.707ZM257.157 99V98.006C257.213 98.006 257.26 98.02 257.297 98.048C257.334 98.0667 257.362 98.0993 257.381 98.146C257.4 98.1833 257.414 98.2347 257.423 98.3C257.432 98.356 257.437 98.4213 257.437 98.496C257.437 98.5707 257.432 98.6407 257.423 98.706C257.414 98.7713 257.4 98.8273 257.381 98.874C257.362 98.9113 257.334 98.944 257.297 98.972C257.26 98.9907 257.213 99 257.157 99ZM259.94 99V98.006H261.452V99H259.94ZM257.154 99C257.098 99 257.052 98.9907 257.014 98.972C256.977 98.944 256.949 98.9113 256.93 98.874C256.912 98.8273 256.898 98.7713 256.888 98.706C256.879 98.6407 256.874 98.5707 256.874 98.496C256.874 98.3933 256.884 98.3093 256.902 98.244C256.912 98.1693 256.94 98.1133 256.986 98.076C257.024 98.0293 257.08 98.006 257.154 98.006V99ZM258.848 99V88.962H259.94V99H258.848ZM257.154 99V98.006H258.848V99H257.154ZM261.452 99V98.006C261.508 98.006 261.555 98.02 261.592 98.048C261.63 98.0667 261.658 98.0993 261.676 98.146C261.695 98.1833 261.709 98.2347 261.718 98.3C261.728 98.356 261.732 98.4213 261.732 98.496C261.732 98.5707 261.728 98.6407 261.718 98.706C261.709 98.7713 261.695 98.8273 261.676 98.874C261.658 98.9113 261.63 98.944 261.592 98.972C261.555 98.9907 261.508 99 261.452 99ZM263.141 99V88.962H264.233V99H263.141ZM261.447 99V98.006H263.141V99H261.447ZM261.447 99C261.391 99 261.345 98.9907 261.307 98.972C261.27 98.944 261.242 98.9113 261.223 98.874C261.205 98.8273 261.191 98.7713 261.181 98.706C261.172 98.6407 261.167 98.5707 261.167 98.496C261.167 98.3933 261.177 98.3093 261.195 98.244C261.205 98.1693 261.233 98.1133 261.279 98.076C261.317 98.0293 261.373 98.006 261.447 98.006V99ZM270.787 99V98.006H272.579V99H270.787ZM268.505 102.094C268.384 102.094 268.258 102.085 268.127 102.066C267.987 102.057 267.852 102.047 267.721 102.038L267.847 101.044C267.978 101.053 268.099 101.063 268.211 101.072C268.323 101.091 268.421 101.1 268.505 101.1C268.944 101.1 269.298 100.932 269.569 100.596C269.84 100.269 269.975 99.812 269.975 99.224V92H271.067V99.224C271.067 99.7933 270.955 100.293 270.731 100.722C270.516 101.161 270.218 101.497 269.835 101.73C269.452 101.973 269.009 102.094 268.505 102.094ZM272.579 99V98.006C272.635 98.006 272.682 98.02 272.719 98.048C272.756 98.0667 272.784 98.0993 272.803 98.146C272.822 98.1833 272.836 98.2347 272.845 98.3C272.854 98.356 272.859 98.4213 272.859 98.496C272.859 98.5707 272.854 98.6407 272.845 98.706C272.836 98.7713 272.822 98.8273 272.803 98.874C272.784 98.9113 272.756 98.944 272.719 98.972C272.682 98.9907 272.635 99 272.579 99ZM272.576 99V98.006H280.304L279.226 99V95.57C279.226 94.926 279.152 94.4173 279.002 94.044C278.853 93.6707 278.601 93.4047 278.246 93.246C277.892 93.078 277.411 92.994 276.804 92.994C276.384 92.994 275.983 93.022 275.6 93.078C275.218 93.134 274.914 93.2087 274.69 93.302L275.348 92.63C275.292 92.854 275.236 93.1387 275.18 93.484C275.134 93.82 275.092 94.1887 275.054 94.59C275.017 94.982 274.998 95.374 274.998 95.766C274.998 96.1673 275.017 96.5593 275.054 96.942C275.092 97.3153 275.134 97.642 275.18 97.922C275.227 98.202 275.264 98.398 275.292 98.51L274.256 98.804C274.219 98.6827 274.172 98.4727 274.116 98.174C274.06 97.866 274.009 97.5067 273.962 97.096C273.925 96.676 273.906 96.2327 273.906 95.766C273.906 95.2993 273.925 94.8467 273.962 94.408C274.009 93.9693 274.065 93.5773 274.13 93.232C274.196 92.8773 274.252 92.5927 274.298 92.378C274.504 92.294 274.83 92.21 275.278 92.126C275.726 92.042 276.226 92 276.776 92C277.56 92 278.214 92.1167 278.736 92.35C279.259 92.5833 279.651 92.9613 279.912 93.484C280.174 93.9973 280.304 94.6927 280.304 95.57V99H272.576ZM276.762 102.458C276.221 102.458 275.726 102.43 275.278 102.374C274.83 102.327 274.504 102.276 274.298 102.22C274.252 102.08 274.196 101.898 274.13 101.674C274.065 101.459 274.009 101.212 273.962 100.932C273.925 100.652 273.906 100.363 273.906 100.064C273.906 99.7653 273.925 99.4853 273.962 99.224C274.009 98.9627 274.06 98.7387 274.116 98.552C274.172 98.356 274.219 98.2207 274.256 98.146L275.236 98.552C275.208 98.6267 275.176 98.7527 275.138 98.93C275.101 99.1073 275.068 99.2987 275.04 99.504C275.012 99.7187 274.998 99.9147 274.998 100.092C274.998 100.279 275.012 100.479 275.04 100.694C275.068 100.909 275.106 101.119 275.152 101.324C275.208 101.529 275.264 101.711 275.32 101.87L274.592 101.254C274.807 101.319 275.12 101.371 275.53 101.408C275.95 101.445 276.375 101.464 276.804 101.464C277.448 101.464 277.943 101.422 278.288 101.338C278.643 101.254 278.886 101.119 279.016 100.932C279.156 100.745 279.226 100.498 279.226 100.19V98.006H280.304V100.19C280.304 100.741 280.174 101.184 279.912 101.52C279.651 101.856 279.259 102.094 278.736 102.234C278.214 102.383 277.556 102.458 276.762 102.458ZM280.304 99V98.006H281.816V99H280.304ZM281.816 99V98.006C281.872 98.006 281.919 98.02 281.956 98.048C281.994 98.0667 282.022 98.0993 282.04 98.146C282.059 98.1833 282.073 98.2347 282.082 98.3C282.092 98.356 282.096 98.4213 282.096 98.496C282.096 98.5707 282.092 98.6407 282.082 98.706C282.073 98.7713 282.059 98.8273 282.04 98.874C282.022 98.9113 281.994 98.944 281.956 98.972C281.919 98.9907 281.872 99 281.816 99ZM272.576 99C272.52 99 272.474 98.9907 272.436 98.972C272.399 98.944 272.371 98.9113 272.352 98.874C272.334 98.8273 272.32 98.7713 272.31 98.706C272.301 98.6407 272.296 98.5707 272.296 98.496C272.296 98.3933 272.306 98.3093 272.324 98.244C272.334 98.1693 272.362 98.1133 272.408 98.076C272.446 98.0293 272.502 98.006 272.576 98.006V99ZM290.792 99V98.006H292.304V99H290.792ZM281.818 99V98.006H291.1L290.092 98.916V95.626C290.092 95.038 290.008 94.5527 289.84 94.17C289.682 93.778 289.439 93.484 289.112 93.288C288.795 93.092 288.394 92.994 287.908 92.994C287.498 92.994 287.115 93.064 286.76 93.204C286.415 93.3347 286.093 93.512 285.794 93.736C285.496 93.9507 285.216 94.1933 284.954 94.464C284.702 94.7253 284.469 94.9913 284.254 95.262C284.04 95.5327 283.844 95.78 283.666 96.004L283.302 95.01C283.592 94.646 283.886 94.2867 284.184 93.932C284.483 93.5773 284.81 93.2553 285.164 92.966C285.519 92.6767 285.92 92.4433 286.368 92.266C286.816 92.0887 287.33 92 287.908 92C288.571 92 289.112 92.112 289.532 92.336C289.962 92.56 290.293 92.8587 290.526 93.232C290.769 93.596 290.937 93.988 291.03 94.408C291.124 94.828 291.17 95.234 291.17 95.626V99H281.818ZM282.742 98.006V88.962H283.834V98.006H282.742ZM281.818 99C281.762 99 281.716 98.9907 281.678 98.972C281.641 98.944 281.613 98.9113 281.594 98.874C281.576 98.8273 281.562 98.7713 281.552 98.706C281.543 98.6407 281.538 98.5707 281.538 98.496C281.538 98.3933 281.548 98.3093 281.566 98.244C281.576 98.1693 281.604 98.1133 281.65 98.076C281.688 98.0293 281.744 98.006 281.818 98.006V99ZM292.304 99V98.006C292.36 98.006 292.407 98.02 292.444 98.048C292.482 98.0667 292.51 98.0993 292.528 98.146C292.547 98.1833 292.561 98.2347 292.57 98.3C292.58 98.356 292.584 98.4213 292.584 98.496C292.584 98.5707 292.58 98.6407 292.57 98.706C292.561 98.7713 292.547 98.8273 292.528 98.874C292.51 98.9113 292.482 98.944 292.444 98.972C292.407 98.9907 292.36 99 292.304 99ZM286.564 90.74V89.48H287.656V90.74H286.564ZM294.909 99V98.006H296.421V99H294.909ZM296.421 99V98.006C296.477 98.006 296.523 98.02 296.561 98.048C296.598 98.0667 296.626 98.0993 296.645 98.146C296.663 98.1833 296.677 98.2347 296.687 98.3C296.696 98.356 296.701 98.4213 296.701 98.496C296.701 98.5707 296.696 98.6407 296.687 98.706C296.677 98.7713 296.663 98.8273 296.645 98.874C296.626 98.9113 296.598 98.944 296.561 98.972C296.523 98.9907 296.477 99 296.421 99ZM292.305 99C292.249 99 292.202 98.9907 292.165 98.972C292.127 98.944 292.099 98.9113 292.081 98.874C292.062 98.8273 292.048 98.7713 292.039 98.706C292.029 98.6407 292.025 98.5707 292.025 98.496C292.025 98.3933 292.034 98.3093 292.053 98.244C292.062 98.1693 292.09 98.1133 292.137 98.076C292.174 98.0293 292.23 98.006 292.305 98.006V99ZM292.305 99V98.006H294.321L293.817 98.412V92H294.909V99H292.305ZM292.865 101.52V100.26H293.957V101.52H292.865ZM294.783 101.52V100.26H295.875V101.52H294.783ZM303.784 99C303.467 99 303.154 98.9393 302.846 98.818C302.547 98.6967 302.258 98.5053 301.978 98.244L302.692 97.502C302.907 97.6793 303.098 97.81 303.266 97.894C303.434 97.9687 303.607 98.006 303.784 98.006H306.276L305.856 98.454V95.108C305.856 94.94 305.837 94.702 305.8 94.394C305.772 94.086 305.725 93.7407 305.66 93.358C305.604 92.966 305.534 92.574 305.45 92.182L306.514 92C306.579 92.3267 306.645 92.6907 306.71 93.092C306.775 93.4933 306.831 93.876 306.878 94.24C306.925 94.5947 306.948 94.884 306.948 95.108V99H303.784ZM296.42 99V98.006H298.464L298.184 98.286V93.4H299.262V99H296.42ZM299.262 99V98.006H300.844C301.161 98.006 301.399 97.9593 301.558 97.866C301.726 97.7727 301.843 97.586 301.908 97.306C301.973 97.026 302.006 96.6153 302.006 96.074V92.7H303.098V96.074C303.098 96.802 303.019 97.3807 302.86 97.81C302.711 98.2393 302.473 98.5473 302.146 98.734C301.819 98.9113 301.385 99 300.844 99H299.262ZM296.42 99C296.364 99 296.317 98.9907 296.28 98.972C296.243 98.944 296.215 98.9113 296.196 98.874C296.177 98.8273 296.163 98.7713 296.154 98.706C296.145 98.6407 296.14 98.5707 296.14 98.496C296.14 98.3933 296.149 98.3093 296.168 98.244C296.177 98.1693 296.205 98.1133 296.252 98.076C296.289 98.0293 296.345 98.006 296.42 98.006V99Z" fill="#483A1E" fill-opacity="0.75"/>
<path d="M350.25 65.6665C350.25 65.335 350.118 65.017 349.884 64.7826C349.649 64.5482 349.332 64.4165 349 64.4165H339C338.668 64.4165 338.351 64.5482 338.116 64.7826C337.882 65.017 337.75 65.335 337.75 65.6665C337.75 65.998 337.882 66.316 338.116 66.5504C338.351 66.7848 338.668 66.9165 339 66.9165H349C349.332 66.9165 349.649 66.7848 349.884 66.5504C350.118 66.316 350.25 65.998 350.25 65.6665ZM350.25 72.3332C350.25 72.0017 350.118 71.6837 349.884 71.4493C349.649 71.2149 349.332 71.0832 349 71.0832H339C338.668 71.0832 338.351 71.2149 338.116 71.4493C337.882 71.6837 337.75 72.0017 337.75 72.3332C337.75 72.6647 337.882 72.9826 338.116 73.2171C338.351 73.4515 338.668 73.5832 339 73.5832H349C349.332 73.5832 349.649 73.4515 349.884 73.2171C350.118 72.9826 350.25 72.6647 350.25 72.3332Z" fill="#483A1E"/>
<path fill-rule="evenodd" clip-rule="evenodd" d="M335.667 47.75C334.451 47.75 333.285 48.2329 332.426 49.0924C331.566 49.952 331.083 51.1178 331.083 52.3333V75.6667C331.083 76.8822 331.566 78.048 332.426 78.9076C333.285 79.7671 334.451 80.25 335.667 80.25H352.333C353.549 80.25 354.715 79.7671 355.574 78.9076C356.434 78.048 356.917 76.8822 356.917 75.6667V57.28C356.917 56.645 356.71 56.0283 356.327 55.5217L351.33 48.9083C351.058 48.5485 350.707 48.2567 350.303 48.0557C349.899 47.8547 349.454 47.7501 349.003 47.75H335.667ZM333.583 52.3333C333.583 51.1833 334.517 50.25 335.667 50.25H347.75V57.5783C347.75 58.2683 348.31 58.8283 349 58.8283H354.417V75.6667C354.417 76.8167 353.483 77.75 352.333 77.75H335.667C334.517 77.75 333.583 76.8167 333.583 75.6667V52.3333Z" fill="#483A1E"/>
</g>
<defs>
<filter id="filter0_d_658_18104" x="0" y="0" width="396" height="128" filterUnits="userSpaceOnUse" color-interpolation-filters="sRGB">
<feFlood flood-opacity="0" result="BackgroundImageFix"/>
<feColorMatrix in="SourceAlpha" type="matrix" values="0 0 0 0 0 0 0 0 0 0 0 0 0 0 0 0 0 0 127 0" result="hardAlpha"/>
<feOffset/>
<feGaussianBlur stdDeviation="4"/>
<feComposite in2="hardAlpha" operator="out"/>
<feColorMatrix type="matrix" values="0 0 0 0 0 0 0 0 0 0 0 0 0 0 0 0 0 0 0.12 0"/>
<feBlend mode="normal" in2="BackgroundImageFix" result="effect1_dropShadow_658_18104"/>
<feBlend mode="normal" in="SourceGraphic" in2="effect1_dropShadow_658_18104" result="shape"/>
</filter>
</defs>
</svg>
