<svg width="261" height="48" viewBox="0 0 261 48" fill="none" xmlns="http://www.w3.org/2000/svg">
<path d="M37.217 30V28.864H38.945V30H37.217ZM29.473 34.256C28.6943 34.256 27.985 34.112 27.345 33.824C26.705 33.536 26.1983 33.136 25.825 32.624C25.4517 32.112 25.265 31.52 25.265 30.848C25.265 30.624 25.2863 30.32 25.329 29.936C25.3717 29.5413 25.425 29.1147 25.489 28.656C25.553 28.1867 25.6223 27.712 25.697 27.232C25.7717 26.752 25.841 26.3147 25.905 25.92L27.137 26.112C27.0197 26.8373 26.913 27.5093 26.817 28.128C26.721 28.736 26.6463 29.264 26.593 29.712C26.5503 30.16 26.529 30.5067 26.529 30.752C26.529 31.2533 26.6517 31.68 26.897 32.032C27.1423 32.384 27.4837 32.6507 27.921 32.832C28.369 33.024 28.8863 33.12 29.473 33.12H33.185C33.7717 33.12 34.2677 33.0293 34.673 32.848C35.089 32.6667 35.409 32.4107 35.633 32.08C35.857 31.76 35.969 31.376 35.969 30.928V22.592L36.625 23.136H33.905C33.2863 23.136 32.8063 23.2107 32.465 23.36C32.1343 23.5093 31.905 23.792 31.777 24.208C31.649 24.6133 31.585 25.2107 31.585 26C31.585 26.7893 31.649 27.392 31.777 27.808C31.905 28.2133 32.1343 28.4907 32.465 28.64C32.8063 28.7893 33.2863 28.864 33.905 28.864H35.969V30H33.905C32.9663 30 32.241 29.8613 31.729 29.584C31.217 29.296 30.8543 28.8587 30.641 28.272C30.4383 27.6747 30.337 26.9173 30.337 26C30.337 25.0827 30.4383 24.3307 30.641 23.744C30.8543 23.1467 31.217 22.7093 31.729 22.432C32.241 22.144 32.9663 22 33.905 22H37.217V30.928C37.217 31.664 37.025 32.2773 36.641 32.768C36.2677 33.2693 35.7717 33.6427 35.153 33.888C34.545 34.1333 33.889 34.256 33.185 34.256H29.473ZM38.945 30V28.864C39.009 28.864 39.0623 28.88 39.105 28.912C39.1477 28.9333 39.1797 28.9707 39.201 29.024C39.2223 29.0667 39.2383 29.1253 39.249 29.2C39.2597 29.264 39.265 29.3387 39.265 29.424C39.265 29.5093 39.2597 29.5893 39.249 29.664C39.2383 29.7387 39.2223 29.8027 39.201 29.856C39.1797 29.8987 39.1477 29.936 39.105 29.968C39.0623 29.9893 39.009 30 38.945 30ZM32.433 20.56V19.12H33.681V20.56H32.433ZM34.625 20.56V19.12H35.873V20.56H34.625ZM41.9135 30V28.864H43.6415V30H41.9135ZM43.6415 30V28.864C43.7055 28.864 43.7588 28.88 43.8015 28.912C43.8442 28.9333 43.8762 28.9707 43.8975 29.024C43.9188 29.0667 43.9348 29.1253 43.9455 29.2C43.9562 29.264 43.9615 29.3387 43.9615 29.424C43.9615 29.5093 43.9562 29.5893 43.9455 29.664C43.9348 29.7387 43.9188 29.8027 43.8975 29.856C43.8762 29.8987 43.8442 29.936 43.8015 29.968C43.7588 29.9893 43.7055 30 43.6415 30ZM38.9375 30C38.8735 30 38.8202 29.9893 38.7775 29.968C38.7348 29.936 38.7028 29.8987 38.6815 29.856C38.6602 29.8027 38.6442 29.7387 38.6335 29.664C38.6228 29.5893 38.6175 29.5093 38.6175 29.424C38.6175 29.3067 38.6282 29.2107 38.6495 29.136C38.6602 29.0507 38.6922 28.9867 38.7455 28.944C38.7882 28.8907 38.8522 28.864 38.9375 28.864V30ZM38.9375 30V28.864H41.2415L40.6655 29.328V22H41.9135V30H38.9375ZM39.5775 32.88V31.44H40.8255V32.88H39.5775ZM41.7695 32.88V31.44H43.0175V32.88H41.7695ZM43.6406 30V28.864H45.9446L45.3686 29.328V22H46.6166V30H43.6406ZM43.6406 30C43.5766 30 43.5233 29.9893 43.4806 29.968C43.438 29.936 43.406 29.8987 43.3846 29.856C43.3633 29.8027 43.3473 29.7387 43.3366 29.664C43.326 29.5893 43.3206 29.5093 43.3206 29.424C43.3206 29.3067 43.3313 29.2107 43.3526 29.136C43.3633 29.0507 43.3953 28.9867 43.4486 28.944C43.4913 28.8907 43.5553 28.864 43.6406 28.864V30ZM45.4166 18.448V17.088H46.5686V18.448H45.4166ZM44.2646 20.56V19.12H45.5126V20.56H44.2646ZM46.4566 20.56V19.12H47.7046V20.56H46.4566ZM55.4263 30V28.864H57.1543V30H55.4263ZM51.6343 33.536C51.2609 33.536 50.8609 33.504 50.4343 33.44C50.0183 33.3867 49.5596 33.3067 49.0583 33.2L49.2503 32.192C49.8156 32.2667 50.2849 32.32 50.6583 32.352C51.0423 32.384 51.3676 32.4 51.6343 32.4C52.5196 32.4 53.1649 32.2293 53.5703 31.888C53.9756 31.5573 54.1783 31.072 54.1783 30.432V22.72L54.8183 23.136H52.1143C51.4956 23.136 51.0156 23.2107 50.6743 23.36C50.3436 23.5093 50.1143 23.792 49.9863 24.208C49.8583 24.6133 49.7943 25.2107 49.7943 26C49.7943 26.7893 49.8583 27.392 49.9863 27.808C50.1143 28.2133 50.3436 28.4907 50.6743 28.64C51.0156 28.7893 51.4956 28.864 52.1143 28.864H54.1783V30H52.1143C51.1863 30 50.4609 29.8613 49.9383 29.584C49.4263 29.296 49.0636 28.8587 48.8503 28.272C48.6476 27.6747 48.5463 26.9173 48.5463 26C48.5463 25.0827 48.6476 24.3307 48.8503 23.744C49.0636 23.1467 49.4263 22.7093 49.9383 22.432C50.4609 22.144 51.1863 22 52.1143 22H55.4263V30.416C55.4263 31.0773 55.2716 31.6427 54.9623 32.112C54.6636 32.5813 54.2316 32.9333 53.6663 33.168C53.1009 33.4133 52.4236 33.536 51.6343 33.536ZM57.1543 30V28.864C57.2183 28.864 57.2716 28.88 57.3142 28.912C57.3569 28.9333 57.3889 28.9707 57.4103 29.024C57.4316 29.0667 57.4476 29.1253 57.4583 29.2C57.4689 29.264 57.4743 29.3387 57.4743 29.424C57.4743 29.5093 57.4689 29.5893 57.4583 29.664C57.4476 29.7387 57.4316 29.8027 57.4103 29.856C57.3889 29.8987 57.3569 29.936 57.3142 29.968C57.2716 29.9893 57.2183 30 57.1543 30ZM57.1562 30V28.864H59.4603L58.8843 29.328V22H60.1323V30H57.1562ZM57.1562 30C57.0922 30 57.0389 29.9893 56.9962 29.968C56.9536 29.936 56.9216 29.8987 56.9002 29.856C56.8789 29.8027 56.8629 29.7387 56.8522 29.664C56.8416 29.5893 56.8362 29.5093 56.8362 29.424C56.8362 29.3067 56.8469 29.2107 56.8682 29.136C56.8789 29.0507 56.9109 28.9867 56.9642 28.944C57.0069 28.8907 57.0709 28.864 57.1562 28.864V30ZM57.7963 20.56V19.12H59.0443V20.56H57.7963ZM59.9883 20.56V19.12H61.2363V20.56H59.9883ZM70.3295 30C69.2735 30 68.3935 29.8773 67.6895 29.632C66.9855 29.3867 66.4575 29.0133 66.1055 28.512C65.7535 28.0107 65.5775 27.3707 65.5775 26.592C65.5775 26.336 65.5935 26.0587 65.6255 25.76C65.6682 25.4613 65.7162 25.1733 65.7695 24.896C65.8228 24.608 65.8708 24.3627 65.9135 24.16C65.9562 23.9467 65.9828 23.8027 65.9935 23.728L67.2095 23.952C67.1775 24.1227 67.1295 24.3573 67.0655 24.656C67.0122 24.9547 66.9588 25.2747 66.9055 25.616C66.8522 25.9573 66.8255 26.2827 66.8255 26.592C66.8255 26.9867 66.8842 27.328 67.0015 27.616C67.1295 27.904 67.3268 28.144 67.5935 28.336C67.8708 28.5173 68.2335 28.6507 68.6815 28.736C69.1295 28.8213 69.6788 28.864 70.3295 28.864H75.0335V22H76.2815V30H70.3295ZM69.2255 22.112V20.672H70.4735V22.112H69.2255ZM71.4175 22.112V20.672H72.6655V22.112H71.4175ZM80.3461 30V28.864H82.2981V30H80.3461ZM79.1141 30V18.528H80.3461V30H79.1141ZM82.2981 30V28.864C82.3621 28.864 82.4155 28.88 82.4581 28.912C82.5008 28.9333 82.5328 28.9707 82.5541 29.024C82.5755 29.0667 82.5915 29.1253 82.6021 29.2C82.6128 29.264 82.6181 29.3387 82.6181 29.424C82.6181 29.5093 82.6128 29.5893 82.6021 29.664C82.5915 29.7387 82.5755 29.8027 82.5541 29.856C82.5328 29.8987 82.5008 29.936 82.4581 29.968C82.4155 29.9893 82.3621 30 82.2981 30ZM82.2969 30V28.864H91.0489L90.1209 29.52V26.08C90.1209 25.3333 90.0355 24.7467 89.8649 24.32C89.6942 23.8933 89.4009 23.5893 88.9849 23.408C88.5795 23.2267 88.0249 23.136 87.3209 23.136C86.8729 23.136 86.4249 23.168 85.9769 23.232C85.5395 23.296 85.1982 23.3813 84.9529 23.488L85.7049 22.72C85.6409 22.976 85.5769 23.3013 85.5129 23.696C85.4489 24.08 85.3955 24.496 85.3529 24.944C85.3102 25.392 85.2889 25.84 85.2889 26.288C85.2889 26.7467 85.3102 27.1947 85.3529 27.632C85.3955 28.0693 85.4435 28.448 85.4969 28.768C85.5502 29.088 85.5929 29.312 85.6249 29.44L84.4409 29.776C84.3982 29.6373 84.3449 29.3973 84.2809 29.056C84.2275 28.7147 84.1742 28.304 84.1209 27.824C84.0782 27.344 84.0569 26.832 84.0569 26.288C84.0569 25.7653 84.0782 25.2587 84.1209 24.768C84.1742 24.2667 84.2329 23.8133 84.2969 23.408C84.3715 23.0027 84.4409 22.6773 84.5049 22.432C84.7395 22.336 85.1129 22.24 85.6249 22.144C86.1369 22.048 86.7022 22 87.3209 22C88.2169 22 88.9635 22.1333 89.5609 22.4C90.1689 22.6667 90.6222 23.0987 90.9209 23.696C91.2195 24.2827 91.3689 25.0773 91.3689 26.08V30H82.2969ZM82.2969 30C82.2329 30 82.1795 29.9893 82.1369 29.968C82.0942 29.936 82.0622 29.8987 82.0409 29.856C82.0195 29.8027 82.0035 29.7387 81.9929 29.664C81.9822 29.5893 81.9769 29.5093 81.9769 29.424C81.9769 29.3067 81.9875 29.2107 82.0089 29.136C82.0195 29.0507 82.0515 28.9867 82.1049 28.944C82.1475 28.8907 82.2115 28.864 82.2969 28.864V30ZM99.3945 30V28.864H101.123V30H99.3945ZM93.2025 30V28.864H99.1705L98.1465 29.776V26.288C98.1465 25.4987 98.0558 24.8747 97.8745 24.416C97.6932 23.9573 97.3945 23.632 96.9785 23.44C96.5732 23.2373 96.0238 23.136 95.3305 23.136H94.0345V22H95.3305C96.1838 22 96.9145 22.1333 97.5225 22.4C98.1305 22.6667 98.5945 23.1147 98.9145 23.744C99.2345 24.3627 99.3945 25.2107 99.3945 26.288V30H93.2025ZM101.123 30V28.864C101.187 28.864 101.24 28.88 101.283 28.912C101.325 28.9333 101.357 28.9707 101.378 29.024C101.4 29.0667 101.416 29.1253 101.427 29.2C101.437 29.264 101.443 29.3387 101.443 29.424C101.443 29.5093 101.437 29.5893 101.427 29.664C101.416 29.7387 101.4 29.8027 101.378 29.856C101.357 29.8987 101.325 29.936 101.283 29.968C101.24 29.9893 101.187 30 101.123 30ZM101.125 30V28.864H108.181L107.797 29.2V25.232C107.797 24.5387 107.578 24.0213 107.141 23.68C106.714 23.328 106.058 23.152 105.173 23.152C104.896 23.152 104.496 23.1787 103.973 23.232C103.45 23.2747 102.901 23.3387 102.325 23.424L102.181 22.4C102.618 22.2933 103.098 22.2027 103.621 22.128C104.144 22.0427 104.65 22 105.141 22C105.952 22 106.645 22.128 107.221 22.384C107.808 22.6293 108.256 22.992 108.565 23.472C108.885 23.952 109.045 24.5387 109.045 25.232V30H101.125ZM101.125 30C101.061 30 101.008 29.9893 100.965 29.968C100.922 29.936 100.89 29.8987 100.869 29.856C100.848 29.8027 100.832 29.7387 100.821 29.664C100.81 29.5893 100.805 29.5093 100.805 29.424C100.805 29.3067 100.816 29.2107 100.837 29.136C100.848 29.0507 100.88 28.9867 100.933 28.944C100.976 28.8907 101.04 28.864 101.125 28.864V30ZM104.517 20.896V19.456H105.765V20.896H104.517Z" fill="#2B2B2B"/>
<mask id="path-2-inside-1_447_12808" fill="white">
<path d="M134 8H245V40H134V8Z"/>
</mask>
<path d="M245 40V39H134V40V41H245V40Z" fill="#B3914C" mask="url(#path-2-inside-1_447_12808)"/>
<path d="M146.333 30C145.405 30 144.68 29.8613 144.157 29.584C143.645 29.296 143.282 28.8587 143.069 28.272C142.866 27.6747 142.765 26.9173 142.765 26C142.765 25.0827 142.866 24.3307 143.069 23.744C143.282 23.1467 143.645 22.7093 144.157 22.432C144.68 22.144 145.405 22 146.333 22H149.645V29.36H148.397V22.592L149.037 23.136H146.333C145.714 23.136 145.234 23.2107 144.893 23.36C144.562 23.5093 144.333 23.792 144.205 24.208C144.077 24.6133 144.013 25.2107 144.013 26C144.013 26.7893 144.077 27.392 144.205 27.808C144.333 28.2133 144.562 28.4907 144.893 28.64C145.234 28.7893 145.714 28.864 146.333 28.864H151.373V30H146.333ZM151.373 30V28.864C151.437 28.864 151.49 28.88 151.533 28.912C151.576 28.9333 151.608 28.9707 151.629 29.024C151.65 29.0667 151.666 29.1253 151.677 29.2C151.688 29.264 151.693 29.3387 151.693 29.424C151.693 29.5093 151.688 29.5893 151.677 29.664C151.666 29.7387 151.65 29.8027 151.629 29.856C151.608 29.8987 151.576 29.936 151.533 29.968C151.49 29.9893 151.437 30 151.373 30ZM144.781 20.56V19.12H146.029V20.56H144.781ZM146.973 20.56V19.12H148.221V20.56H146.973ZM154.351 30V28.864H156.079V30H154.351ZM156.079 30V28.864C156.143 28.864 156.196 28.88 156.239 28.912C156.282 28.9333 156.314 28.9707 156.335 29.024C156.356 29.0667 156.372 29.1253 156.383 29.2C156.394 29.264 156.399 29.3387 156.399 29.424C156.399 29.5093 156.394 29.5893 156.383 29.664C156.372 29.7387 156.356 29.8027 156.335 29.856C156.314 29.8987 156.282 29.936 156.239 29.968C156.196 29.9893 156.143 30 156.079 30ZM151.375 30C151.311 30 151.258 29.9893 151.215 29.968C151.172 29.936 151.14 29.8987 151.119 29.856C151.098 29.8027 151.082 29.7387 151.071 29.664C151.06 29.5893 151.055 29.5093 151.055 29.424C151.055 29.3067 151.066 29.2107 151.087 29.136C151.098 29.0507 151.13 28.9867 151.183 28.944C151.226 28.8907 151.29 28.864 151.375 28.864V30ZM151.375 30V28.864H153.679L153.103 29.328V22H154.351V30H151.375ZM152.015 32.88V31.44H153.263V32.88H152.015ZM154.207 32.88V31.44H155.455V32.88H154.207ZM156.078 30V28.864H158.382L157.806 29.328V22H159.054V30H156.078ZM156.078 30C156.014 30 155.961 29.9893 155.918 29.968C155.875 29.936 155.843 29.8987 155.822 29.856C155.801 29.8027 155.785 29.7387 155.774 29.664C155.763 29.5893 155.758 29.5093 155.758 29.424C155.758 29.3067 155.769 29.2107 155.79 29.136C155.801 29.0507 155.833 28.9867 155.886 28.944C155.929 28.8907 155.993 28.864 156.078 28.864V30ZM157.678 20.56C157.507 20.3467 157.374 20.1387 157.278 19.936C157.193 19.7333 157.15 19.52 157.15 19.296C157.15 18.9867 157.225 18.7093 157.374 18.464C157.534 18.2187 157.742 18.0267 157.998 17.888C158.254 17.7493 158.531 17.68 158.83 17.68C159.001 17.68 159.171 17.7067 159.342 17.76C159.513 17.8027 159.662 17.8667 159.79 17.952L159.374 18.672C159.289 18.6187 159.203 18.5867 159.118 18.576C159.043 18.5547 158.963 18.544 158.878 18.544C158.633 18.544 158.435 18.6133 158.286 18.752C158.147 18.8907 158.078 19.072 158.078 19.296C158.078 19.4347 158.105 19.568 158.158 19.696C158.222 19.824 158.313 19.9627 158.43 20.112L157.678 20.56ZM156.846 20.56V19.712H159.998V20.56H156.846ZM163.112 30V28.864H165.064V30H163.112ZM161.88 30V18.528H163.112V30H161.88ZM165.064 30V28.864C165.128 28.864 165.181 28.88 165.224 28.912C165.266 28.9333 165.298 28.9707 165.32 29.024C165.341 29.0667 165.357 29.1253 165.368 29.2C165.378 29.264 165.384 29.3387 165.384 29.424C165.384 29.5093 165.378 29.5893 165.368 29.664C165.357 29.7387 165.341 29.8027 165.32 29.856C165.298 29.8987 165.266 29.936 165.224 29.968C165.181 29.9893 165.128 30 165.064 30ZM176.983 30V28.864H178.711V30H176.983ZM165.062 30C164.998 30 164.945 29.9893 164.902 29.968C164.86 29.936 164.828 29.8987 164.806 29.856C164.785 29.8027 164.769 29.7387 164.758 29.664C164.748 29.5893 164.742 29.5093 164.742 29.424C164.742 29.3067 164.753 29.2107 164.774 29.136C164.785 29.0507 164.817 28.9867 164.87 28.944C164.913 28.8907 164.977 28.864 165.062 28.864V30ZM165.062 30V28.864H176.887L175.735 29.904V26.144C175.735 25.472 175.639 24.9173 175.447 24.48C175.265 24.032 174.988 23.696 174.615 23.472C174.252 23.248 173.793 23.136 173.239 23.136C172.769 23.136 172.332 23.216 171.927 23.376C171.532 23.5253 171.164 23.728 170.823 23.984C170.481 24.2293 170.161 24.5067 169.863 24.816C169.575 25.1147 169.308 25.4187 169.062 25.728C168.817 26.0373 168.593 26.32 168.391 26.576L167.991 25.44C168.257 25.1093 168.524 24.7787 168.791 24.448C169.068 24.1173 169.356 23.808 169.655 23.52C169.953 23.2213 170.279 22.96 170.631 22.736C170.993 22.512 171.388 22.336 171.815 22.208C172.241 22.0693 172.721 22 173.255 22C174.012 22 174.631 22.128 175.111 22.384C175.601 22.64 175.98 22.9813 176.247 23.408C176.524 23.824 176.716 24.272 176.823 24.752C176.929 25.232 176.983 25.696 176.983 26.144V30H165.062ZM167.335 28.864V22H168.583V28.864H167.335ZM178.711 30V28.864C178.775 28.864 178.828 28.88 178.871 28.912C178.913 28.9333 178.945 28.9707 178.967 29.024C178.988 29.0667 179.004 29.1253 179.015 29.2C179.025 29.264 179.031 29.3387 179.031 29.424C179.031 29.5093 179.025 29.5893 179.015 29.664C179.004 29.7387 178.988 29.8027 178.967 29.856C178.945 29.8987 178.913 29.936 178.871 29.968C178.828 29.9893 178.775 30 178.711 30ZM171.703 20.576V19.136H172.951V20.576H171.703ZM178.703 30V28.864H186.783L185.951 29.584V22.592L186.607 23.136H183.887C183.268 23.136 182.788 23.2107 182.447 23.36C182.116 23.5093 181.887 23.792 181.759 24.208C181.631 24.6133 181.567 25.2107 181.567 26C181.567 26.7893 181.631 27.392 181.759 27.808C181.887 28.2133 182.116 28.4907 182.447 28.64C182.788 28.7893 183.268 28.864 183.887 28.864V29.68C182.959 29.68 182.234 29.568 181.711 29.344C181.199 29.1093 180.836 28.7253 180.623 28.192C180.42 27.648 180.319 26.9173 180.319 26C180.319 25.0827 180.42 24.3307 180.623 23.744C180.836 23.1467 181.199 22.7093 181.711 22.432C182.234 22.144 182.959 22 183.887 22H187.199V30H178.703ZM178.703 30C178.639 30 178.586 29.9893 178.543 29.968C178.5 29.936 178.468 29.8987 178.447 29.856C178.426 29.8027 178.41 29.7387 178.399 29.664C178.388 29.5893 178.383 29.5093 178.383 29.424C178.383 29.3067 178.394 29.2107 178.415 29.136C178.426 29.0507 178.458 28.9867 178.511 28.944C178.554 28.8907 178.618 28.864 178.703 28.864V30ZM182.415 20.56V19.12H183.663V20.56H182.415ZM184.607 20.56V19.12H185.855V20.56H184.607ZM197.33 30C196.274 30 195.394 29.8773 194.69 29.632C193.986 29.3867 193.458 29.0133 193.106 28.512C192.754 28.0107 192.578 27.3707 192.578 26.592C192.578 26.336 192.594 26.0587 192.626 25.76C192.668 25.4613 192.716 25.1733 192.77 24.896C192.823 24.608 192.871 24.3627 192.914 24.16C192.956 23.9467 192.983 23.8027 192.993 23.728L194.21 23.952C194.178 24.1227 194.13 24.3573 194.066 24.656C194.012 24.9547 193.959 25.2747 193.906 25.616C193.852 25.9573 193.826 26.2827 193.826 26.592C193.826 26.9867 193.884 27.328 194.002 27.616C194.13 27.904 194.327 28.144 194.594 28.336C194.871 28.5173 195.234 28.6507 195.682 28.736C196.13 28.8213 196.679 28.864 197.33 28.864H202.034V22H203.282V30H197.33ZM196.226 22.112V20.672H197.474V22.112H196.226ZM198.418 22.112V20.672H199.666V22.112H198.418ZM207.346 30V28.864H209.298V30H207.346ZM206.114 30V18.528H207.346V30H206.114ZM209.298 30V28.864C209.362 28.864 209.415 28.88 209.458 28.912C209.501 28.9333 209.533 28.9707 209.554 29.024C209.575 29.0667 209.591 29.1253 209.602 29.2C209.613 29.264 209.618 29.3387 209.618 29.424C209.618 29.5093 209.613 29.5893 209.602 29.664C209.591 29.7387 209.575 29.8027 209.554 29.856C209.533 29.8987 209.501 29.936 209.458 29.968C209.415 29.9893 209.362 30 209.298 30ZM209.297 30V28.864H218.049L217.121 29.52V26.08C217.121 25.3333 217.036 24.7467 216.865 24.32C216.694 23.8933 216.401 23.5893 215.985 23.408C215.58 23.2267 215.025 23.136 214.321 23.136C213.873 23.136 213.425 23.168 212.977 23.232C212.54 23.296 212.198 23.3813 211.953 23.488L212.705 22.72C212.641 22.976 212.577 23.3013 212.513 23.696C212.449 24.08 212.396 24.496 212.353 24.944C212.31 25.392 212.289 25.84 212.289 26.288C212.289 26.7467 212.31 27.1947 212.353 27.632C212.396 28.0693 212.444 28.448 212.497 28.768C212.55 29.088 212.593 29.312 212.625 29.44L211.441 29.776C211.398 29.6373 211.345 29.3973 211.281 29.056C211.228 28.7147 211.174 28.304 211.121 27.824C211.078 27.344 211.057 26.832 211.057 26.288C211.057 25.7653 211.078 25.2587 211.121 24.768C211.174 24.2667 211.233 23.8133 211.297 23.408C211.372 23.0027 211.441 22.6773 211.505 22.432C211.74 22.336 212.113 22.24 212.625 22.144C213.137 22.048 213.702 22 214.321 22C215.217 22 215.964 22.1333 216.561 22.4C217.169 22.6667 217.622 23.0987 217.921 23.696C218.22 24.2827 218.369 25.0773 218.369 26.08V30H209.297ZM209.297 30C209.233 30 209.18 29.9893 209.137 29.968C209.094 29.936 209.062 29.8987 209.041 29.856C209.02 29.8027 209.004 29.7387 208.993 29.664C208.982 29.5893 208.977 29.5093 208.977 29.424C208.977 29.3067 208.988 29.2107 209.009 29.136C209.02 29.0507 209.052 28.9867 209.105 28.944C209.148 28.8907 209.212 28.864 209.297 28.864V30ZM226.395 30V28.864H228.123V30H226.395ZM220.203 30V28.864H226.171L225.147 29.776V26.288C225.147 25.4987 225.056 24.8747 224.875 24.416C224.693 23.9573 224.395 23.632 223.979 23.44C223.573 23.2373 223.024 23.136 222.331 23.136H221.035V22H222.331C223.184 22 223.915 22.1333 224.523 22.4C225.131 22.6667 225.595 23.1147 225.915 23.744C226.235 24.3627 226.395 25.2107 226.395 26.288V30H220.203ZM228.123 30V28.864C228.187 28.864 228.24 28.88 228.283 28.912C228.325 28.9333 228.357 28.9707 228.378 29.024C228.4 29.0667 228.416 29.1253 228.427 29.2C228.437 29.264 228.443 29.3387 228.443 29.424C228.443 29.5093 228.437 29.5893 228.427 29.664C228.416 29.7387 228.4 29.8027 228.378 29.856C228.357 29.8987 228.325 29.936 228.283 29.968C228.24 29.9893 228.187 30 228.123 30ZM228.125 30V28.864H235.181L234.797 29.2V25.232C234.797 24.5387 234.578 24.0213 234.141 23.68C233.714 23.328 233.058 23.152 232.173 23.152C231.896 23.152 231.496 23.1787 230.973 23.232C230.45 23.2747 229.901 23.3387 229.325 23.424L229.181 22.4C229.618 22.2933 230.098 22.2027 230.621 22.128C231.144 22.0427 231.65 22 232.141 22C232.952 22 233.645 22.128 234.221 22.384C234.808 22.6293 235.256 22.992 235.565 23.472C235.885 23.952 236.045 24.5387 236.045 25.232V30H228.125ZM228.125 30C228.061 30 228.008 29.9893 227.965 29.968C227.922 29.936 227.89 29.8987 227.869 29.856C227.848 29.8027 227.832 29.7387 227.821 29.664C227.81 29.5893 227.805 29.5093 227.805 29.424C227.805 29.3067 227.816 29.2107 227.837 29.136C227.848 29.0507 227.88 28.9867 227.933 28.944C227.976 28.8907 228.04 28.864 228.125 28.864V30ZM231.517 20.896V19.456H232.765V20.896H231.517Z" fill="#B3914C"/>
</svg>
